if (_typeface_js && _typeface_js.loadFace) _typeface_js.loadFace({"glyphs":{"0":{"ha":838,"x_min":89,"x_max":749,"o":"m 163 861 q 199 919 163 861 q 418 976 236 976 q 674 861 600 976 q 749 479 749 746 q 674 97 749 213 q 418 -18 600 -18 q 163 97 236 -18 q 89 479 89 213 q 163 861 89 746 m 583 782 q 559 826 583 782 q 418 869 536 869 q 254 782 300 869 q 208 479 208 694 q 254 176 208 264 q 418 89 300 89 q 583 176 536 89 q 629 479 629 264 q 583 782 629 694 z "},"1":{"ha":553,"x_min":31,"x_max":397,"o":"m 397 0 l 275 0 l 275 760 q 282 843 275 808 l 47 769 l 31 860 l 275 958 l 397 958 l 397 0 z "},"2":{"ha":781,"x_min":76,"x_max":706,"o":"m 93 844 l 85 939 q 376 975 239 975 q 599 933 528 975 q 671 768 671 890 q 633 602 671 678 q 500 419 596 526 l 225 113 q 381 118 290 118 l 706 118 l 706 0 l 76 0 l 76 76 q 94 129 76 110 l 372 443 q 508 620 467 544 q 547 763 550 696 q 503 847 546 828 q 368 867 461 867 q 93 844 229 867 z "},"3":{"ha":772,"x_min":72,"x_max":681,"o":"m 99 857 l 89 951 q 358 976 231 976 q 587 928 519 976 q 654 754 654 879 q 514 513 654 540 l 514 507 q 640 432 603 492 q 681 267 678 372 q 613 50 683 118 q 376 -18 543 -18 q 72 7 247 -18 l 81 106 q 346 92 238 92 q 511 133 463 92 q 560 279 560 175 q 520 411 560 367 q 369 456 481 456 l 192 456 l 192 551 l 369 551 q 505 599 472 553 q 538 726 538 644 q 496 841 536 814 q 342 868 456 868 q 99 857 226 868 z "},"4":{"ha":854,"x_min":65,"x_max":793,"o":"m 793 247 l 669 235 l 669 0 l 554 0 l 554 235 l 157 235 q 70 282 99 235 q 65 383 42 329 l 338 958 l 458 958 l 190 392 q 190 349 179 364 q 225 335 200 335 l 554 335 l 554 617 l 575 775 l 669 775 l 669 335 l 793 335 l 793 247 z "},"5":{"ha":744,"x_min":72,"x_max":667,"o":"m 633 854 l 231 854 l 217 593 l 319 585 q 590 506 511 571 q 667 288 668 440 q 660 197 667 238 q 633 115 653 156 q 579 46 613 74 q 490 1 546 18 q 357 -17 433 -17 q 72 18 224 -17 l 86 117 q 329 92 226 92 q 501 138 457 92 q 547 288 544 183 q 542 363 549 332 q 516 416 536 394 q 477 449 496 438 q 412 469 458 461 q 329 481 365 478 q 219 489 293 485 l 156 493 q 122 510 135 496 q 110 547 108 525 l 132 958 l 639 958 l 633 854 z "},"6":{"ha":794,"x_min":92,"x_max":718,"o":"m 657 954 l 646 865 q 464 871 585 871 q 351 858 393 871 q 276 809 308 846 q 231 705 244 772 q 214 525 217 638 q 319 603 264 581 q 456 625 374 625 q 662 556 606 625 q 718 310 718 486 q 707 174 718 229 q 665 74 696 119 q 572 6 633 28 q 415 -17 510 -17 q 277 -1 332 -17 q 185 44 222 14 q 127 133 147 75 q 99 267 107 192 q 92 456 92 342 q 107 683 92 590 q 149 833 122 775 q 224 922 176 890 q 327 964 272 953 q 464 975 382 975 q 657 954 579 975 m 417 88 q 567 139 532 88 q 601 310 601 190 q 565 478 601 431 q 424 526 528 526 q 317 508 364 526 q 213 438 271 489 q 216 297 213 349 q 231 200 219 246 q 265 133 242 154 q 324 99 288 111 q 417 88 360 88 z "},"7":{"ha":711,"x_min":54,"x_max":660,"o":"m 54 958 l 596 958 q 656 936 639 958 q 660 874 672 914 l 361 0 l 239 0 l 508 783 q 538 854 521 821 l 60 854 l 54 958 z "},"8":{"ha":843,"x_min":96,"x_max":747,"o":"m 254 494 l 254 500 q 117 719 117 515 q 181 914 117 856 q 422 972 246 972 q 663 915 599 972 q 726 719 726 857 q 590 500 726 515 l 590 494 q 712 422 676 486 q 747 239 747 358 q 680 45 747 103 q 422 -14 613 -12 q 165 43 235 -15 q 96 239 96 101 q 132 422 96 358 q 254 494 168 486 m 578 839 q 559 856 578 839 q 424 874 540 874 q 268 839 307 874 q 229 708 229 804 q 267 578 229 610 q 425 546 306 546 q 580 578 544 546 q 615 708 615 610 q 578 839 615 804 m 425 449 q 253 411 294 447 q 211 264 211 375 q 254 128 211 165 q 424 92 297 92 q 589 128 547 92 q 631 264 631 164 q 591 413 631 378 q 425 449 551 449 z "},"9":{"ha":794,"x_min":76,"x_max":699,"o":"m 121 4 l 132 94 q 328 89 199 89 q 474 117 424 89 q 551 219 525 144 q 581 438 576 294 q 474 356 529 378 q 336 333 419 333 q 76 646 76 333 q 146 896 76 817 q 383 975 215 975 q 503 965 454 975 q 589 931 553 956 q 646 872 625 906 q 678 780 667 839 q 694 656 690 721 q 699 490 699 590 q 679 230 699 329 q 612 76 660 131 q 499 2 564 21 q 328 -17 435 -17 q 121 4 207 -17 m 368 431 q 476 450 429 431 q 581 522 522 469 q 578 642 581 597 q 569 732 576 688 q 550 799 563 776 q 515 840 538 821 q 461 865 493 858 q 382 871 429 871 q 231 817 269 871 q 193 646 192 763 q 231 483 192 536 q 368 431 269 431 z "}," ":{"ha":310,"x_min":0,"x_max":0,"o":""},"!":{"ha":379,"x_min":131,"x_max":250,"o":"m 249 540 l 238 293 l 143 293 l 131 540 l 131 965 l 249 965 l 249 540 m 175 164 l 206 164 q 240 154 229 164 q 250 119 250 144 l 250 44 q 240 10 250 19 q 206 0 229 0 l 175 0 q 142 10 151 0 q 132 44 132 19 l 132 119 q 142 154 132 144 q 175 164 151 164 z "},"\"":{"ha":490,"x_min":97,"x_max":393,"o":"m 186 660 l 104 660 l 97 958 l 194 958 l 186 660 m 386 660 l 306 660 l 297 958 l 393 958 l 386 660 z "},"#":{"ha":951,"x_min":61,"x_max":889,"o":"m 722 622 l 678 372 l 831 372 l 815 296 l 665 296 l 614 0 l 519 0 l 571 296 l 317 296 l 265 0 l 171 0 l 222 296 l 61 296 l 76 372 l 235 372 l 279 622 l 119 622 l 135 699 l 292 699 l 338 958 l 432 958 l 386 699 l 640 699 l 686 958 l 781 958 l 735 699 l 889 699 l 874 622 l 722 622 m 628 622 l 374 622 l 329 372 l 583 372 l 628 622 z "},"$":{"ha":783,"x_min":79,"x_max":713,"o":"m 438 535 l 518 514 q 669 424 625 488 q 713 244 713 360 q 641 35 713 86 q 390 -17 569 -17 l 388 -17 l 375 -176 l 311 -176 l 324 -15 q 93 10 199 -10 l 101 103 q 198 100 146 101 q 280 98 250 99 q 333 97 310 97 l 358 433 l 269 456 q 124 545 168 481 q 79 722 79 610 q 97 856 79 806 q 156 933 114 907 q 251 967 199 958 q 390 975 303 975 l 407 975 l 417 1110 l 479 1110 l 469 972 q 675 947 585 968 l 667 858 q 461 865 554 864 l 438 535 m 399 865 l 396 865 q 306 863 335 865 q 249 846 276 860 q 212 802 221 832 q 203 719 203 772 q 230 611 203 643 q 325 563 257 579 l 375 550 l 399 865 m 421 417 l 396 97 q 548 126 508 97 q 588 247 588 154 q 561 358 588 326 q 467 406 535 389 l 421 417 z "},"%":{"ha":1242,"x_min":65,"x_max":1175,"o":"m 288 976 q 461 911 411 976 q 511 692 511 846 q 461 472 511 538 q 288 407 411 407 q 115 472 165 407 q 65 692 65 538 q 115 911 65 846 q 288 976 165 976 m 350 0 l 267 0 l 888 958 l 971 958 l 350 0 m 391 855 q 377 878 391 855 q 288 901 363 901 q 184 855 213 901 q 156 692 156 808 q 184 528 156 575 q 288 482 213 482 q 391 528 363 482 q 419 692 419 574 q 391 855 419 808 m 781 490 q 806 523 781 490 q 953 556 831 556 q 1125 490 1075 556 q 1175 272 1175 425 q 1125 53 1175 118 q 953 -12 1075 -12 q 781 53 831 -12 q 731 272 731 118 q 781 490 731 425 m 1056 435 q 1041 458 1056 435 q 951 481 1026 481 q 848 435 876 481 q 821 272 819 390 q 848 108 819 154 q 951 61 876 61 q 1056 108 1026 61 q 1085 272 1085 154 q 1056 435 1085 389 z "},"&":{"ha":1072,"x_min":93,"x_max":1007,"o":"m 993 92 l 1007 6 q 860 -12 944 -12 q 693 107 715 -12 q 558 14 632 42 q 374 -14 485 -14 q 157 43 221 -14 q 93 243 93 100 q 136 422 93 358 q 281 494 179 486 l 281 500 q 158 563 196 508 q 121 724 121 618 q 140 856 121 807 q 208 931 160 906 q 317 965 257 957 q 483 972 378 972 q 704 958 611 972 l 690 868 q 479 872 635 872 q 293 842 342 872 q 244 707 244 811 q 285 577 244 611 q 431 543 325 543 l 692 543 l 703 721 l 801 721 l 801 543 l 975 543 l 975 450 l 801 450 l 801 182 q 822 113 801 133 q 890 92 842 92 l 993 92 m 690 450 l 425 450 q 265 410 310 450 q 221 263 221 371 q 260 128 221 165 q 401 92 299 92 q 690 201 585 93 l 690 450 z "},"'":{"ha":290,"x_min":97,"x_max":194,"o":"m 186 660 l 104 660 l 97 958 l 194 958 l 186 660 z "},"(":{"ha":499,"x_min":75,"x_max":456,"o":"m 440 1097 l 456 1040 q 254 824 318 974 q 190 435 190 675 q 456 -172 190 -36 l 440 -229 q 163 4 251 -157 q 75 433 75 165 q 163 864 75 703 q 440 1097 251 1025 z "},")":{"ha":499,"x_min":44,"x_max":425,"o":"m 44 1040 l 58 1097 q 336 865 247 1025 q 425 433 425 704 q 336 4 425 165 q 58 -229 247 -157 l 44 -172 q 244 49 181 -101 q 308 435 308 199 q 244 824 308 675 q 44 1040 181 974 z "},"*":{"ha":625,"x_min":75,"x_max":551,"o":"m 338 736 l 476 557 l 419 515 l 313 686 l 206 517 l 147 558 l 286 736 l 276 960 l 349 960 l 338 736 m 263 771 l 263 740 l 247 721 l 75 767 l 99 835 l 263 771 m 551 765 l 378 721 l 361 740 l 361 771 l 528 835 l 551 765 z "},"+":{"ha":765,"x_min":78,"x_max":686,"o":"m 686 371 l 426 371 l 426 125 l 336 125 l 336 371 l 78 371 l 78 460 l 336 460 l 336 704 l 428 704 l 428 460 l 686 460 l 686 371 z "},",":{"ha":317,"x_min":96,"x_max":219,"o":"m 142 164 l 176 164 q 210 154 201 164 q 219 119 219 144 l 219 31 q 171 -183 218 -87 l 115 -167 q 129 0 129 -85 q 96 39 96 0 l 96 119 q 142 164 97 164 z "},"-":{"ha":624,"x_min":100,"x_max":524,"o":"m 524 306 l 100 306 l 100 396 l 524 396 l 524 306 z "},".":{"ha":318,"x_min":94,"x_max":222,"o":"m 139 164 l 178 164 q 213 154 203 164 q 222 119 222 144 l 222 44 q 213 10 222 19 q 178 0 203 0 l 139 0 q 105 10 115 0 q 94 44 94 19 l 94 119 q 105 154 94 144 q 139 164 115 164 z "},"/":{"ha":718,"x_min":38,"x_max":681,"o":"m 135 -92 l 38 -92 l 583 958 l 681 958 l 135 -92 z "},":":{"ha":328,"x_min":96,"x_max":224,"o":"m 140 611 l 179 611 q 213 601 203 611 q 224 568 224 592 l 224 492 q 213 457 224 467 q 179 447 203 447 l 140 447 q 106 457 117 447 q 96 492 96 467 l 96 568 q 106 601 96 592 q 140 611 117 611 m 140 164 l 179 164 q 213 154 203 164 q 224 119 224 144 l 224 44 q 213 10 224 19 q 179 0 203 0 l 140 0 q 106 10 117 0 q 96 44 96 19 l 96 119 q 106 154 96 144 q 140 164 117 164 z "},";":{"ha":329,"x_min":103,"x_max":229,"o":"m 146 611 l 186 611 q 219 601 210 611 q 229 568 229 592 l 229 492 q 219 457 229 467 q 186 447 210 447 l 146 447 q 113 457 122 447 q 103 492 103 467 l 103 568 q 113 601 103 592 q 146 611 122 611 m 149 164 l 183 164 q 217 154 208 164 q 226 119 226 144 l 226 31 q 179 -183 225 -86 l 122 -167 q 136 0 136 -85 q 103 39 103 0 l 103 119 q 115 154 104 144 q 149 164 125 164 z "},"<":{"ha":736,"x_min":74,"x_max":638,"o":"m 638 608 l 176 414 l 638 224 l 638 129 l 74 367 l 74 461 l 638 703 l 638 608 z "},"=":{"ha":813,"x_min":103,"x_max":711,"o":"m 711 510 l 103 510 l 103 597 l 711 597 l 711 510 m 711 215 l 103 215 l 103 304 l 711 304 l 711 215 z "},">":{"ha":736,"x_min":99,"x_max":663,"o":"m 663 461 l 663 367 l 99 129 l 99 224 l 560 414 l 99 608 l 99 703 l 663 461 z "},"?":{"ha":701,"x_min":56,"x_max":642,"o":"m 63 875 l 56 960 q 99 967 65 961 q 142 975 132 974 q 181 981 151 976 q 231 985 210 985 q 286 988 251 986 q 361 989 321 989 q 642 774 642 989 q 624 683 642 725 q 578 610 606 640 q 518 545 550 581 q 458 478 486 510 q 410 397 431 446 q 389 293 390 349 l 288 293 q 309 424 286 364 q 365 523 332 483 q 433 598 399 563 q 491 672 467 633 q 517 753 515 711 q 476 856 519 822 q 336 889 432 889 q 63 875 218 889 m 322 164 l 354 164 q 388 154 378 164 q 397 119 397 144 l 397 44 q 388 10 397 19 q 354 0 378 0 l 322 0 q 289 10 299 0 q 279 44 279 19 l 279 119 q 289 154 279 144 q 322 164 299 164 z "},"@":{"ha":997,"x_min":104,"x_max":897,"o":"m 489 813 l 688 813 q 844 766 792 813 q 897 615 897 719 l 897 183 l 808 183 l 797 288 q 677 208 754 243 q 521 172 600 172 q 388 215 438 172 q 339 338 339 257 l 339 408 q 380 514 339 476 q 499 551 421 551 l 786 551 l 786 611 q 760 691 786 668 q 667 714 735 714 l 489 714 q 385 712 421 714 q 313 697 349 710 q 262 666 276 685 q 235 605 247 647 q 219 510 222 563 q 217 369 217 457 q 218 256 217 301 q 227 172 219 211 q 242 109 235 132 q 269 67 249 86 q 308 40 290 49 q 366 26 326 32 q 439 20 406 21 q 535 19 472 19 l 893 19 l 893 -69 q 536 -81 704 -81 q 368 -77 432 -82 q 251 -53 304 -72 q 174 -8 199 -35 q 131 76 149 19 q 108 197 113 132 q 104 369 104 261 q 108 538 104 475 q 128 656 113 601 q 166 736 143 710 q 236 782 189 763 q 340 806 283 801 q 489 813 396 811 m 786 479 l 539 474 q 470 453 490 472 q 450 394 450 435 l 450 358 q 542 267 450 267 q 672 291 603 267 q 786 358 740 315 l 786 479 z "},"A":{"ha":864,"x_min":14,"x_max":850,"o":"m 629 300 l 235 300 l 140 0 l 14 0 l 322 925 q 368 958 331 958 l 496 958 q 542 925 533 958 l 850 0 l 724 0 l 629 300 m 596 406 l 475 786 q 451 864 463 822 l 413 864 l 389 786 l 268 406 l 596 406 z "},"B":{"ha":861,"x_min":121,"x_max":781,"o":"m 589 500 l 589 494 q 737 422 693 485 q 781 239 781 358 q 713 42 781 94 q 475 -11 644 -11 q 121 0 244 -11 l 121 958 q 432 969 231 969 q 681 917 611 969 q 751 719 751 865 q 713 562 751 615 q 589 500 674 508 m 240 543 l 446 543 q 593 578 553 544 q 633 706 633 611 q 590 833 633 801 q 426 865 546 865 l 240 865 l 240 543 m 240 450 l 240 94 q 456 93 297 93 q 615 126 572 93 q 657 260 657 160 q 612 408 657 369 q 447 450 567 447 l 240 450 z "},"C":{"ha":792,"x_min":85,"x_max":742,"o":"m 729 107 l 742 15 q 461 -17 626 -17 q 169 94 254 -17 q 85 479 85 206 q 169 864 85 753 q 461 975 254 975 q 722 947 610 975 l 710 854 q 461 867 585 867 q 267 783 321 867 q 214 479 214 699 q 267 176 214 260 q 461 92 321 92 q 729 107 622 92 z "},"D":{"ha":922,"x_min":121,"x_max":836,"o":"m 121 0 l 121 958 q 463 971 301 971 q 753 863 669 971 q 836 479 836 756 q 753 95 836 203 q 463 -12 669 -12 q 121 0 301 -12 m 243 863 l 243 97 q 463 94 368 94 q 654 178 600 94 q 708 479 708 263 q 654 781 708 696 q 463 865 600 865 q 243 863 374 865 z "},"E":{"ha":778,"x_min":113,"x_max":708,"o":"m 703 101 l 708 7 q 297 -1 581 -1 q 163 44 213 -1 q 113 165 114 89 l 113 793 q 163 915 114 869 q 297 960 213 960 q 708 951 581 960 l 703 856 l 318 856 q 235 764 235 856 l 235 556 l 649 556 l 649 457 l 235 457 l 235 194 q 318 101 235 101 l 703 101 z "},"F":{"ha":749,"x_min":118,"x_max":700,"o":"m 693 856 l 333 856 q 263 834 285 856 q 240 764 240 813 l 240 542 l 640 542 l 640 443 l 240 443 l 240 0 l 118 0 l 118 788 q 168 915 118 869 q 303 960 218 960 q 700 950 576 960 l 693 856 z "},"G":{"ha":872,"x_min":86,"x_max":778,"o":"m 689 0 l 675 101 q 389 -18 553 -18 q 158 101 229 -18 q 86 482 86 221 q 174 870 86 764 q 486 976 261 976 q 753 947 638 976 l 740 856 q 493 867 624 867 q 327 838 383 867 q 243 725 271 810 q 215 474 215 640 q 261 175 215 261 q 422 89 307 89 q 658 182 531 89 l 658 554 l 778 554 l 778 0 l 689 0 z "},"H":{"ha":928,"x_min":121,"x_max":807,"o":"m 807 958 l 807 0 l 685 0 l 685 460 l 243 460 l 243 0 l 121 0 l 121 958 l 243 958 l 243 565 l 685 565 l 685 958 l 807 958 z "},"I":{"ha":364,"x_min":121,"x_max":243,"o":"m 243 0 l 121 0 l 121 958 l 243 958 l 243 0 z "},"J":{"ha":472,"x_min":42,"x_max":356,"o":"m 356 958 l 356 201 q 308 42 356 96 q 169 -12 260 -12 q 42 6 92 -12 l 56 92 l 125 92 q 233 197 233 92 l 233 958 l 356 958 z "},"K":{"ha":821,"x_min":121,"x_max":794,"o":"m 351 450 l 233 450 q 242 349 242 397 l 242 0 l 121 0 l 121 958 l 242 958 l 242 658 q 233 549 242 603 l 350 549 l 642 958 l 775 958 l 496 561 q 443 500 479 536 l 443 497 q 503 431 482 460 l 794 0 l 657 0 l 351 450 z "},"L":{"ha":714,"x_min":118,"x_max":683,"o":"m 239 958 l 239 194 q 332 103 239 103 l 678 103 l 683 8 q 313 -1 563 -1 q 118 179 118 -1 l 118 958 l 239 958 z "},"M":{"ha":1218,"x_min":101,"x_max":1117,"o":"m 889 958 l 1026 958 q 1076 907 1076 958 l 1117 0 l 994 0 l 960 857 l 931 857 l 717 150 q 664 108 706 108 l 554 108 q 499 150 511 108 l 285 857 l 257 857 l 224 0 l 101 0 l 139 907 q 190 958 142 958 l 329 958 q 381 917 368 958 l 560 332 q 581 258 568 307 q 596 203 594 208 l 621 203 q 637 263 625 218 q 657 335 649 308 l 836 917 q 889 958 847 958 z "},"N":{"ha":979,"x_min":121,"x_max":858,"o":"m 858 958 l 858 49 q 811 0 858 0 l 692 0 q 638 39 654 0 l 314 718 q 260 844 267 821 l 238 844 q 243 718 243 789 l 243 0 l 121 0 l 121 910 q 169 958 121 958 l 285 958 q 339 919 322 958 l 653 257 q 718 118 688 189 l 742 118 q 738 264 738 193 l 738 958 l 858 958 z "},"O":{"ha":928,"x_min":85,"x_max":842,"o":"m 169 867 q 211 922 169 867 q 464 976 253 976 q 758 867 675 976 q 842 479 842 758 q 758 91 842 200 q 464 -18 675 -18 q 169 91 253 -18 q 85 479 85 200 q 169 867 85 758 m 660 783 q 633 825 660 783 q 464 867 606 867 q 268 783 322 867 q 214 479 214 699 q 268 176 214 260 q 464 92 322 92 q 660 176 606 92 q 714 479 714 260 q 660 783 714 699 z "},"P":{"ha":819,"x_min":121,"x_max":758,"o":"m 121 0 l 121 958 q 450 971 238 971 q 692 908 625 971 q 758 671 758 844 q 694 434 758 497 q 464 371 629 371 q 243 383 350 371 l 243 0 l 121 0 m 243 476 l 449 476 q 595 517 556 478 q 635 671 635 557 q 594 825 635 785 q 449 865 554 865 q 243 864 297 865 l 243 476 z "},"Q":{"ha":929,"x_min":86,"x_max":843,"o":"m 170 867 q 212 922 170 867 q 465 976 254 976 q 760 867 676 976 q 843 479 843 758 q 760 91 843 200 q 465 -18 676 -18 q 170 91 254 -18 q 86 479 86 200 q 170 867 86 758 m 465 867 q 269 783 324 867 q 215 479 215 699 q 269 176 215 260 q 465 92 324 92 q 660 176 606 92 q 715 479 715 260 q 660 783 715 699 q 465 867 606 867 m 374 -133 l 408 -60 q 776 -157 561 -126 l 738 -279 q 374 -133 557 -243 z "},"R":{"ha":858,"x_min":121,"x_max":796,"o":"m 796 0 l 665 0 l 581 300 q 532 377 563 354 q 453 400 501 400 q 334 401 404 400 q 242 401 264 401 l 242 0 l 121 0 l 121 958 q 451 971 238 971 q 692 912 622 971 q 761 694 761 853 q 720 518 761 576 q 585 447 679 460 l 585 440 q 656 395 624 431 q 703 303 688 360 l 796 0 m 242 506 l 449 506 q 597 544 557 507 q 638 688 638 582 q 597 828 638 792 q 449 865 557 865 q 242 864 296 865 l 242 506 z "},"S":{"ha":779,"x_min":76,"x_max":708,"o":"m 464 406 l 265 456 q 120 545 164 481 q 76 722 76 610 q 94 856 76 806 q 153 933 111 907 q 248 967 196 958 q 388 975 300 975 q 672 947 557 972 l 664 858 q 393 865 529 865 q 303 863 332 865 q 246 846 274 860 q 209 802 218 832 q 200 719 200 772 q 227 611 200 643 q 321 563 254 579 l 515 514 q 665 424 622 488 q 708 244 708 360 q 637 35 708 86 q 388 -17 565 -17 q 90 10 236 -17 l 99 100 q 392 93 332 92 q 545 122 506 93 q 585 247 585 151 q 558 358 585 326 q 464 406 531 389 z "},"T":{"ha":807,"x_min":33,"x_max":774,"o":"m 774 850 l 464 850 l 464 0 l 342 0 l 342 850 l 33 850 l 33 958 l 774 958 l 774 850 z "},"U":{"ha":925,"x_min":114,"x_max":811,"o":"m 811 958 l 811 367 q 733 69 811 157 q 468 -18 656 -18 q 194 69 274 -18 q 114 367 114 157 l 114 958 l 236 958 l 236 367 q 286 152 236 213 q 463 92 336 92 q 638 152 588 92 q 689 367 689 213 l 689 958 l 811 958 z "},"V":{"ha":846,"x_min":24,"x_max":822,"o":"m 822 958 l 532 35 q 485 0 519 0 l 361 0 q 314 35 324 0 l 24 958 l 150 958 l 376 199 q 404 94 396 129 l 442 94 q 471 200 456 151 l 696 958 l 822 958 z "},"W":{"ha":1317,"x_min":43,"x_max":1274,"o":"m 1274 958 l 1079 36 q 1031 0 1069 0 l 892 0 q 844 38 851 0 l 694 758 q 672 867 686 794 l 643 867 l 622 758 l 474 38 q 425 0 464 0 l 285 0 q 253 10 267 0 q 238 36 240 21 l 43 958 l 172 958 l 322 211 q 342 93 325 199 l 374 93 q 396 211 385 158 l 544 918 q 592 958 551 958 l 725 958 q 772 918 763 958 l 921 211 q 940 93 935 143 l 975 93 q 993 210 988 176 l 1144 958 l 1274 958 z "},"X":{"ha":849,"x_min":35,"x_max":814,"o":"m 442 450 l 406 450 l 168 0 l 35 0 l 304 496 l 53 958 l 185 958 l 404 544 l 444 544 l 664 958 l 796 958 l 543 496 l 814 0 l 681 0 l 442 450 z "},"Y":{"ha":790,"x_min":15,"x_max":774,"o":"m 456 336 l 456 0 l 333 0 l 333 338 l 15 958 l 146 958 l 347 554 q 390 446 364 521 l 400 446 q 443 553 422 507 l 644 958 l 774 958 l 456 336 z "},"Z":{"ha":786,"x_min":67,"x_max":721,"o":"m 721 104 l 721 0 l 67 0 l 67 104 l 578 854 l 75 854 l 75 958 l 711 958 l 711 854 l 203 104 l 721 104 z "},"[":{"ha":457,"x_min":126,"x_max":400,"o":"m 400 989 l 258 989 q 239 967 239 989 l 239 -129 q 258 -151 239 -151 l 400 -151 l 400 -229 l 201 -229 q 126 -154 126 -229 l 126 992 q 148 1046 126 1025 q 201 1067 169 1067 l 400 1067 l 400 989 z "},"\\":{"ha":719,"x_min":38,"x_max":682,"o":"m 682 -92 l 583 -92 l 38 958 l 136 958 l 682 -92 z "},"]":{"ha":457,"x_min":57,"x_max":329,"o":"m 57 1067 l 254 1067 q 308 1046 288 1067 q 329 992 329 1025 l 329 -154 q 308 -208 329 -187 q 254 -229 288 -229 l 57 -229 l 57 -151 l 197 -151 q 218 -129 218 -151 l 218 967 q 197 989 218 989 l 57 989 l 57 1067 z "},"^":{"ha":592,"x_min":42,"x_max":550,"o":"m 550 542 l 503 511 l 303 753 l 292 753 l 90 511 l 42 542 l 254 833 l 339 833 l 550 542 z "},"_":{"ha":803,"x_min":97,"x_max":706,"o":"m 706 -90 l 97 -90 l 97 0 l 706 0 l 706 -90 z "},"`":{"ha":438,"x_min":40,"x_max":347,"o":"m 347 801 l 307 747 l 40 914 l 107 1004 l 347 801 z "},"a":{"ha":763,"x_min":71,"x_max":660,"o":"m 113 575 l 101 663 q 428 693 288 693 q 603 644 546 693 q 660 476 660 594 l 660 0 l 567 0 l 553 111 q 431 25 504 63 q 274 -12 358 -12 q 126 37 181 -12 q 71 176 71 86 l 71 250 q 120 373 71 329 q 258 417 169 417 l 540 417 l 540 476 q 511 567 540 540 q 403 593 482 593 q 113 575 303 593 m 192 233 l 192 190 q 217 113 192 138 q 297 89 242 89 q 417 114 350 88 q 540 190 485 140 l 540 326 l 279 326 q 212 301 232 325 q 192 233 192 278 z "},"b":{"ha":792,"x_min":106,"x_max":717,"o":"m 224 972 l 224 719 q 211 569 224 622 q 472 693 332 693 q 658 610 599 693 q 717 340 717 528 q 650 70 717 157 q 417 -17 583 -17 q 106 32 243 -17 l 106 972 l 224 972 m 224 490 l 224 107 q 414 83 317 81 q 553 141 513 85 q 594 340 593 197 q 560 537 593 483 q 431 590 526 590 q 337 567 382 590 q 224 490 292 543 z "},"c":{"ha":679,"x_min":75,"x_max":628,"o":"m 615 97 l 628 18 q 396 -17 528 -17 q 148 63 221 -17 q 75 339 75 143 q 148 614 75 535 q 397 693 221 693 q 615 661 531 693 l 600 585 q 417 593 508 593 q 247 539 294 593 q 200 339 200 485 q 247 138 200 192 q 417 83 294 83 q 615 97 528 83 z "},"d":{"ha":796,"x_min":78,"x_max":686,"o":"m 686 972 l 686 0 l 594 0 l 583 97 q 315 -17 454 -17 q 134 72 190 -17 q 78 340 78 160 q 139 613 78 533 q 333 693 200 693 q 574 631 465 693 q 568 764 568 692 l 568 972 l 686 972 m 568 179 l 568 553 q 361 590 435 590 q 235 539 271 590 q 199 342 199 488 q 234 141 199 196 q 354 86 269 86 q 450 106 407 86 q 568 179 493 126 z "},"e":{"ha":746,"x_min":75,"x_max":676,"o":"m 515 281 l 200 281 q 257 124 210 164 q 414 83 304 83 q 649 100 529 83 l 661 21 q 399 -17 571 -17 q 149 65 224 -17 q 75 340 75 146 q 147 615 75 536 q 386 693 219 693 q 607 638 538 693 q 676 472 676 583 q 515 281 679 281 m 199 372 l 485 372 q 558 472 558 372 q 519 565 557 538 q 392 593 482 593 q 243 547 285 593 q 199 372 201 500 z "},"f":{"ha":528,"x_min":39,"x_max":549,"o":"m 539 899 l 400 899 q 306 873 333 899 q 279 785 279 847 l 279 676 l 496 676 l 496 583 l 279 583 l 279 0 l 161 0 l 161 583 l 39 583 l 39 669 l 161 675 l 161 797 q 207 946 161 896 q 358 996 253 996 q 549 986 475 996 l 539 899 z "},"g":{"ha":775,"x_min":57,"x_max":744,"o":"m 738 611 l 638 603 q 665 478 665 557 q 600 313 665 364 q 375 263 535 263 q 235 276 297 263 q 219 206 208 244 q 282 160 231 168 l 535 119 q 667 60 629 106 q 706 -71 706 15 q 635 -235 706 -189 q 383 -281 565 -281 q 128 -235 200 -281 q 57 -75 57 -190 q 82 21 57 -15 q 167 89 107 57 q 119 196 115 129 q 172 300 124 263 q 86 476 86 346 q 151 643 86 593 q 376 693 215 693 q 533 676 472 693 l 744 676 l 738 611 m 235 381 q 255 367 235 381 q 375 353 275 353 q 515 381 475 353 q 556 478 556 410 q 516 574 556 546 q 375 603 476 603 q 235 574 275 603 q 194 478 194 546 q 235 381 194 410 m 474 32 l 243 64 q 172 -65 172 10 q 214 -158 172 -136 q 382 -181 256 -181 q 548 -158 506 -181 q 590 -65 590 -135 q 569 3 590 -15 q 474 32 547 21 z "},"h":{"ha":807,"x_min":108,"x_max":703,"o":"m 228 972 l 228 704 q 219 572 228 626 q 519 693 383 693 q 703 507 703 693 l 703 0 l 583 0 l 583 474 q 562 567 583 540 q 488 593 540 593 q 373 568 431 593 q 226 488 315 543 l 226 0 l 108 0 l 108 972 l 228 972 z "},"i":{"ha":344,"x_min":108,"x_max":236,"o":"m 144 964 l 200 964 q 236 928 236 964 l 236 849 q 200 813 236 813 l 144 813 q 108 849 108 813 l 108 928 q 144 964 108 964 m 231 0 l 114 0 l 114 676 l 231 676 l 231 0 z "},"j":{"ha":347,"x_min":38,"x_max":238,"o":"m 147 964 l 203 964 q 238 928 238 964 l 238 849 q 203 813 238 813 l 147 813 q 111 849 111 813 l 111 928 q 147 964 111 964 m 233 676 l 233 -17 q 199 -167 233 -97 q 103 -282 164 -236 l 38 -231 q 115 -17 115 -135 l 115 676 l 233 676 z "},"k":{"ha":707,"x_min":108,"x_max":683,"o":"m 311 339 l 219 339 q 226 231 226 276 l 226 0 l 108 0 l 108 972 l 228 972 l 228 540 q 221 425 228 472 l 310 425 l 524 676 l 661 676 l 449 428 q 401 382 428 399 l 401 379 q 449 325 429 358 l 683 0 l 546 0 l 311 339 z "},"l":{"ha":413,"x_min":110,"x_max":399,"o":"m 228 972 l 228 186 q 250 119 226 142 q 319 96 274 96 l 385 96 l 399 6 q 275 -12 361 -12 q 154 33 199 -12 q 110 160 110 78 l 110 972 l 228 972 z "},"m":{"ha":1217,"x_min":108,"x_max":1113,"o":"m 206 676 l 213 569 q 489 693 356 693 q 660 574 631 693 q 932 693 797 693 q 1066 646 1019 693 q 1113 507 1113 599 l 1113 0 l 996 0 l 996 474 q 970 565 994 536 q 890 593 946 593 q 797 571 842 593 q 668 488 751 549 l 668 0 l 554 0 l 554 474 q 528 565 554 538 q 449 593 503 593 q 355 571 400 593 q 226 489 310 549 l 226 0 l 108 0 l 108 676 l 206 676 z "},"n":{"ha":807,"x_min":108,"x_max":703,"o":"m 208 676 l 217 569 q 519 693 381 693 q 703 507 703 693 l 703 0 l 585 0 l 585 474 q 563 567 585 540 q 488 593 540 593 q 376 568 432 593 q 226 486 319 543 l 226 0 l 108 0 l 108 676 l 208 676 z "},"o":{"ha":789,"x_min":76,"x_max":713,"o":"m 394 693 q 641 613 569 693 q 713 338 713 532 q 641 63 713 143 q 394 -18 569 -18 q 149 63 221 -18 q 76 338 76 143 q 149 613 76 532 q 394 693 221 693 m 548 539 q 527 566 548 539 q 394 593 506 593 q 242 539 283 593 q 200 338 200 485 q 242 136 200 190 q 394 82 283 82 q 548 136 506 82 q 590 338 590 190 q 548 539 590 485 z "},"p":{"ha":806,"x_min":108,"x_max":728,"o":"m 206 676 l 215 568 q 346 660 269 626 q 496 693 422 693 q 672 604 617 693 q 728 335 728 515 q 667 63 728 143 q 472 -17 606 -17 q 222 53 339 -17 q 226 -83 226 6 l 226 -279 l 108 -279 l 108 676 l 206 676 m 226 486 l 226 128 q 443 86 368 86 q 571 138 535 86 q 607 335 607 189 q 573 533 607 476 q 457 590 539 590 q 352 566 404 590 q 226 486 300 542 z "},"q":{"ha":792,"x_min":76,"x_max":686,"o":"m 686 -279 l 567 -279 l 567 -47 q 578 92 567 40 q 308 -18 446 -18 q 133 67 190 -18 q 76 336 76 153 q 143 607 76 521 q 381 693 210 693 q 686 646 547 693 l 686 -279 m 568 178 l 568 569 q 379 593 474 596 q 237 535 276 590 q 197 328 197 481 q 229 142 197 199 q 347 86 261 86 q 451 108 403 86 q 568 178 499 129 z "},"r":{"ha":557,"x_min":108,"x_max":532,"o":"m 532 693 l 518 582 l 479 582 q 373 562 428 582 q 226 496 318 542 l 226 0 l 108 0 l 108 676 l 200 676 l 213 569 q 501 693 369 693 l 532 693 z "},"s":{"ha":706,"x_min":69,"x_max":638,"o":"m 417 274 l 222 318 q 104 381 139 338 q 69 507 69 424 q 128 658 69 619 q 333 693 188 696 q 618 672 496 690 l 608 586 q 351 593 397 593 q 217 581 249 594 q 185 507 185 567 q 206 440 185 458 q 283 410 228 422 l 481 365 q 601 303 564 344 q 638 179 638 263 q 572 23 638 61 q 349 -15 507 -15 q 83 4 207 -15 l 92 90 q 325 85 210 83 q 483 103 443 85 q 524 179 524 121 q 499 242 524 225 q 417 274 475 260 z "},"t":{"ha":529,"x_min":38,"x_max":493,"o":"m 278 583 l 278 186 q 299 117 278 138 q 369 96 319 96 l 472 96 l 486 6 q 333 -12 422 -12 q 204 35 249 -12 q 160 171 160 82 l 160 583 l 38 583 l 38 669 l 160 675 l 160 876 l 278 876 l 278 676 l 493 676 l 493 583 l 278 583 z "},"u":{"ha":792,"x_min":104,"x_max":683,"o":"m 683 676 l 683 0 l 589 0 l 581 97 q 289 -18 428 -18 q 104 168 104 -18 l 104 676 l 222 676 l 222 201 q 246 111 221 138 q 329 85 271 85 q 433 108 381 85 q 565 182 486 131 l 565 676 l 683 676 z "},"v":{"ha":736,"x_min":25,"x_max":710,"o":"m 710 676 l 463 29 q 421 0 451 0 l 314 0 q 272 29 283 0 l 25 676 l 151 676 l 318 203 q 358 85 332 164 l 376 85 l 418 203 l 585 676 l 710 676 z "},"w":{"ha":1144,"x_min":35,"x_max":1110,"o":"m 1110 676 l 913 33 q 867 0 904 0 l 760 0 q 730 10 743 0 q 714 38 717 21 l 603 497 q 592 552 599 517 q 581 604 585 588 l 564 604 l 540 497 l 431 38 q 383 0 421 0 l 278 0 q 232 33 240 0 l 35 676 l 157 676 l 297 178 q 319 76 310 135 l 338 76 l 363 178 l 475 639 q 519 676 482 676 l 626 676 q 671 638 661 676 l 782 178 q 793 128 785 163 q 806 76 801 94 l 824 76 q 833 120 825 83 q 847 178 840 157 l 988 676 l 1110 676 z "},"x":{"ha":733,"x_min":32,"x_max":701,"o":"m 381 306 l 353 306 l 161 0 l 32 0 l 258 349 l 49 676 l 176 676 l 351 397 l 383 397 l 557 676 l 685 676 l 475 349 l 701 0 l 574 0 l 381 306 z "},"y":{"ha":735,"x_min":25,"x_max":708,"o":"m 708 676 l 438 -37 q 142 -286 349 -276 l 131 -208 q 255 -140 210 -183 q 328 -29 300 -96 l 339 0 l 313 0 q 271 31 279 0 l 25 676 l 151 676 l 331 172 q 356 90 350 115 l 375 90 q 404 172 386 118 l 581 676 l 708 676 z "},"z":{"ha":708,"x_min":68,"x_max":640,"o":"m 640 96 l 640 0 l 68 0 l 68 96 l 503 579 l 72 579 l 72 676 l 636 676 l 636 579 l 200 96 l 640 96 z "},"{":{"ha":443,"x_min":64,"x_max":389,"o":"m 383 1067 l 383 992 q 285 965 313 992 q 258 874 258 939 l 258 625 q 234 506 260 540 q 135 456 208 471 q 237 399 211 432 q 264 292 263 365 l 264 -37 q 291 -128 264 -101 q 389 -154 318 -154 l 389 -229 q 207 -192 264 -239 q 150 -44 150 -144 l 150 311 q 147 353 150 338 q 128 380 143 368 q 104 397 114 392 q 64 413 94 401 l 64 499 q 131 530 118 515 q 144 606 144 544 l 144 882 q 201 1029 144 982 q 383 1067 258 1076 z "},"|":{"ha":342,"x_min":128,"x_max":214,"o":"m 214 -235 l 128 -235 l 128 1085 l 214 1085 l 214 -235 z "},"}":{"ha":444,"x_min":56,"x_max":381,"o":"m 61 992 l 61 1067 q 243 1029 186 1076 q 300 882 300 982 l 300 606 q 313 530 300 544 q 381 499 326 515 l 381 413 q 328 391 342 399 q 305 365 315 383 q 294 311 294 346 l 294 -44 q 238 -192 294 -144 q 56 -229 181 -239 l 56 -154 q 153 -128 126 -154 q 181 -37 181 -101 l 181 292 q 208 399 182 365 q 310 456 233 432 q 210 506 236 471 q 186 625 185 540 l 186 874 q 159 965 186 939 q 61 992 132 992 z "},"~":{"ha":729,"x_min":107,"x_max":624,"o":"m 168 317 l 107 317 q 128 443 97 400 q 214 483 158 486 q 363 443 265 481 q 500 401 460 406 q 549 415 536 397 q 563 476 563 432 l 624 476 q 603 353 633 396 q 517 313 572 310 q 361 353 457 315 q 231 394 265 390 q 181 381 194 399 q 168 317 168 363 z "}," ":{"ha":310,"x_min":0,"x_max":0,"o":""},"¡":{"ha":356,"x_min":119,"x_max":238,"o":"m 164 685 l 194 685 q 228 675 218 685 q 238 640 238 665 l 238 564 q 228 531 238 540 q 194 521 218 521 l 164 521 q 130 531 140 521 q 119 564 119 540 l 119 640 q 130 675 119 665 q 164 685 140 685 m 238 144 l 238 -272 l 119 -272 l 119 144 l 131 392 l 225 392 l 238 144 z "},"¢":{"ha":706,"x_min":75,"x_max":626,"o":"m 614 244 l 626 165 q 406 131 526 131 l 393 0 l 331 0 l 343 132 q 136 223 197 142 q 75 485 75 304 q 148 760 75 679 q 396 840 221 840 l 404 840 l 415 958 l 479 958 l 468 838 q 614 807 554 831 l 599 728 q 458 739 525 736 l 415 229 q 614 244 521 229 m 353 233 l 394 739 q 236 680 281 735 q 192 485 192 625 q 228 301 192 357 q 353 233 264 244 z "},"£":{"ha":790,"x_min":78,"x_max":719,"o":"m 719 104 l 719 0 l 86 0 l 86 104 q 194 365 207 165 l 189 469 l 78 469 l 78 539 l 185 539 l 174 724 q 231 926 167 876 q 439 975 294 975 q 688 961 547 975 l 681 864 q 436 869 582 869 q 320 838 351 869 q 293 722 289 806 l 304 539 l 599 539 l 596 469 l 308 469 l 315 365 q 297 207 319 267 q 215 100 275 147 q 308 104 246 104 l 719 104 z "},"¤":{"ha":825,"x_min":92,"x_max":731,"o":"m 678 171 l 576 271 q 411 215 503 215 q 247 271 321 215 l 147 171 l 92 226 l 192 326 q 139 488 139 397 q 194 654 139 581 l 96 753 l 147 806 l 246 706 q 411 761 319 761 q 578 704 506 761 l 678 806 l 731 753 l 629 653 q 683 488 683 582 q 628 324 683 397 l 731 222 l 678 171 m 411 289 q 551 347 493 288 q 610 489 610 406 q 551 631 610 572 q 411 690 493 690 q 270 631 329 690 q 211 489 211 572 q 270 347 211 406 q 411 289 329 288 z "},"¥":{"ha":858,"x_min":50,"x_max":808,"o":"m 490 292 l 738 292 l 738 221 l 490 221 l 490 0 l 368 0 l 368 221 l 126 221 l 126 292 l 368 292 l 368 365 l 363 376 l 128 376 l 126 449 l 324 449 l 50 958 l 176 958 l 378 576 q 406 514 389 557 q 425 468 424 471 l 435 468 q 481 575 463 536 l 681 958 l 808 958 l 535 449 l 738 449 l 738 376 l 497 376 l 490 365 l 490 292 z "},"¦":{"ha":344,"x_min":129,"x_max":215,"o":"m 215 529 l 129 529 l 129 1085 l 215 1085 l 215 529 m 215 -235 l 129 -235 l 129 321 l 215 321 l 215 -235 z "},"§":{"ha":756,"x_min":86,"x_max":671,"o":"m 467 447 l 226 585 q 120 673 154 626 q 86 799 86 719 q 152 940 86 904 q 361 976 218 976 q 663 960 533 974 l 654 868 q 392 875 551 875 q 294 873 326 876 q 238 851 263 869 q 213 796 213 833 q 234 722 211 750 q 304 667 257 693 l 529 540 q 651 408 625 489 q 649 214 678 326 l 563 214 q 549 358 569 306 q 467 447 529 411 m 108 539 l 194 539 q 207 395 188 446 q 290 308 226 344 l 531 172 q 636 83 601 131 q 671 -44 671 35 q 658 -125 671 -92 q 623 -178 644 -158 q 564 -208 601 -197 q 490 -222 526 -219 q 397 -225 453 -225 q 94 -208 244 -222 l 104 -115 q 368 -125 238 -124 q 428 -124 408 -125 q 475 -119 449 -124 q 514 -106 501 -115 q 535 -81 526 -97 q 544 -40 544 -65 q 523 35 546 6 q 456 89 500 64 l 231 214 q 107 345 133 265 q 108 539 81 425 z "},"¨":{"ha":571,"x_min":111,"x_max":463,"o":"m 143 963 l 183 963 q 215 929 215 963 l 215 853 q 183 819 215 819 l 143 819 q 111 853 111 819 l 111 929 q 143 963 111 963 m 390 963 l 429 963 q 463 929 463 963 l 463 853 q 429 819 463 819 l 390 819 q 357 853 357 819 l 357 929 q 390 963 357 963 z "},"©":{"ha":1161,"x_min":82,"x_max":1079,"o":"m 581 976 q 935 835 792 976 q 1079 479 1079 694 q 935 123 1079 264 q 581 -18 792 -18 q 226 124 371 -18 q 82 479 82 265 q 226 835 82 693 q 581 976 371 976 m 888 789 q 824 851 888 789 q 581 913 761 913 q 274 788 400 913 q 147 479 147 664 q 274 170 147 294 q 581 46 400 46 q 888 169 761 46 q 1014 479 1014 293 q 888 789 1014 665 m 781 265 l 789 197 q 588 176 703 176 q 378 245 439 176 q 317 482 317 314 q 378 720 317 651 q 588 789 439 789 q 775 769 697 789 l 764 703 q 586 707 675 707 q 448 658 486 707 q 410 482 410 610 q 448 306 410 354 q 586 257 486 257 q 781 265 713 257 z "},"ª":{"ha":613,"x_min":89,"x_max":511,"o":"m 119 757 l 110 824 q 353 843 265 843 q 472 808 432 843 q 511 693 511 774 l 511 378 l 440 378 l 429 463 q 225 369 336 369 q 126 401 163 369 q 89 490 89 432 l 89 543 q 123 626 89 596 q 218 656 157 656 l 422 656 l 422 694 q 335 768 422 768 q 119 757 264 768 m 176 535 l 176 510 q 253 446 176 446 q 422 514 336 446 l 422 604 l 246 593 q 176 535 176 589 z "},"«":{"ha":674,"x_min":61,"x_max":600,"o":"m 346 596 l 171 349 l 347 96 l 286 54 l 61 335 l 61 363 l 285 638 l 346 596 m 599 596 l 424 349 l 600 96 l 538 54 l 314 335 l 314 363 l 536 638 l 599 596 z "},"¬":{"ha":819,"x_min":103,"x_max":711,"o":"m 711 458 l 711 183 l 619 183 l 619 368 l 103 368 l 103 458 l 711 458 z "},"­":{"ha":622,"x_min":100,"x_max":524,"o":"m 524 306 l 100 306 l 100 396 l 524 396 l 524 306 z "},"®":{"ha":768,"x_min":75,"x_max":693,"o":"m 385 975 q 603 885 513 975 q 693 667 693 794 q 603 447 693 538 q 385 357 513 357 q 165 447 256 357 q 75 667 75 538 q 165 885 75 794 q 385 975 256 975 m 385 399 q 572 477 494 399 q 650 667 650 556 q 572 856 650 778 q 385 935 494 935 q 197 856 275 935 q 118 667 118 778 q 196 477 118 556 q 385 399 274 399 m 458 657 l 458 654 q 513 601 499 649 l 554 488 l 496 488 l 457 599 q 399 636 442 636 l 301 636 l 301 488 l 246 488 l 246 847 q 397 851 293 851 q 508 829 475 851 q 540 747 540 807 q 522 684 540 706 q 458 657 503 663 m 301 676 l 396 676 q 465 692 446 678 q 483 742 485 706 q 466 794 485 781 q 396 807 447 807 l 301 807 l 301 676 z "},"¯":{"ha":556,"x_min":85,"x_max":471,"o":"m 471 846 l 85 846 l 85 933 l 471 933 l 471 846 z "},"°":{"ha":504,"x_min":72,"x_max":432,"o":"m 253 976 q 379 924 326 976 q 432 800 432 872 q 379 675 432 728 q 253 622 326 622 q 126 675 179 622 q 72 800 72 728 q 125 924 72 872 q 253 976 178 976 m 253 904 q 178 875 208 904 q 147 800 147 846 q 178 725 147 756 q 253 694 208 694 q 326 725 296 694 q 357 800 357 756 q 326 874 357 844 q 253 904 296 904 z "},"±":{"ha":817,"x_min":104,"x_max":713,"o":"m 713 543 l 713 454 l 453 454 l 453 268 l 363 268 l 363 454 l 104 454 l 104 543 l 363 543 l 363 728 l 454 728 l 454 543 l 713 543 m 104 186 l 713 186 l 713 97 l 104 97 l 104 186 z "},"²":{"ha":604,"x_min":85,"x_max":518,"o":"m 96 994 l 90 1064 q 286 1085 193 1085 q 446 1058 397 1085 q 494 953 494 1032 q 381 753 494 867 l 204 581 q 300 582 246 585 l 518 582 l 518 500 l 85 500 l 85 553 q 100 592 85 576 l 279 765 q 393 944 392 875 q 367 994 394 983 q 281 1006 340 1006 q 96 994 188 1006 z "},"³":{"ha":579,"x_min":83,"x_max":497,"o":"m 100 1003 l 94 1071 q 278 1086 193 1086 q 438 1058 393 1086 q 482 953 482 1029 q 378 807 482 822 l 378 804 q 469 760 443 796 q 497 660 496 724 q 452 529 500 569 q 289 489 404 489 q 83 504 203 489 l 89 574 q 267 567 171 567 q 373 590 343 567 q 403 671 403 613 q 377 740 403 715 q 282 765 351 765 l 164 765 l 164 835 l 282 835 q 372 862 350 836 q 393 931 393 888 q 365 992 392 976 q 265 1008 339 1008 q 100 1003 157 1008 z "},"´":{"ha":436,"x_min":76,"x_max":383,"o":"m 383 914 l 117 747 l 76 801 l 315 1004 l 383 914 z "},"¶":{"ha":824,"x_min":56,"x_max":690,"o":"m 374 -292 l 374 279 q 130 375 204 294 q 56 625 56 456 q 153 896 56 817 q 481 975 250 975 q 690 951 606 975 l 690 0 l 600 0 l 600 892 q 464 897 503 897 l 464 -292 l 374 -292 z "},"·":{"ha":328,"x_min":100,"x_max":228,"o":"m 144 440 l 183 440 q 217 430 207 440 q 228 396 228 419 l 228 319 q 217 286 228 296 q 183 276 207 276 l 144 276 q 110 286 121 276 q 100 319 100 296 l 100 396 q 110 430 100 419 q 144 440 121 440 z "},"¸":{"ha":325,"x_min":47,"x_max":279,"o":"m 113 -115 l 125 -60 q 245 -71 210 -51 q 279 -150 281 -90 q 213 -285 278 -237 q 47 -318 147 -332 l 65 -256 q 158 -230 122 -257 q 194 -160 193 -203 q 179 -126 196 -135 q 113 -115 163 -117 z "},"¹":{"ha":408,"x_min":47,"x_max":303,"o":"m 303 500 l 210 500 l 210 938 q 214 992 210 974 l 60 951 l 47 1015 l 210 1075 l 303 1075 l 303 500 z "},"º":{"ha":617,"x_min":82,"x_max":535,"o":"m 133 790 q 158 816 133 790 q 308 843 183 843 q 484 790 433 843 q 535 604 535 736 q 484 420 535 474 q 308 367 433 367 q 133 420 183 367 q 82 604 82 474 q 133 790 82 736 m 412 735 q 398 752 412 735 q 308 769 383 769 q 204 734 233 769 q 175 604 175 699 q 203 476 175 510 q 308 442 232 442 q 412 476 383 442 q 440 604 440 510 q 412 735 440 700 z "},"»":{"ha":674,"x_min":74,"x_max":611,"o":"m 360 363 l 360 335 l 136 54 l 74 96 l 250 349 l 75 596 l 138 638 l 360 363 m 611 363 l 611 335 l 388 54 l 325 96 l 503 349 l 326 596 l 389 638 l 611 363 z "},"¼":{"ha":1199,"x_min":53,"x_max":1140,"o":"m 215 383 l 215 821 q 221 875 215 851 l 64 835 l 53 899 l 215 958 l 307 958 l 307 383 l 215 383 m 896 958 l 275 0 l 190 0 l 811 958 l 896 958 m 1140 143 l 1074 136 l 1074 0 l 986 0 l 986 135 l 715 135 q 660 159 678 135 q 661 225 643 183 l 838 575 l 926 575 l 757 239 q 758 217 751 226 q 781 208 765 208 l 986 208 l 986 371 l 1003 465 l 1074 465 l 1074 208 l 1140 208 l 1140 143 z "},"½":{"ha":1232,"x_min":53,"x_max":1163,"o":"m 307 383 l 215 383 l 215 821 q 221 875 215 851 l 64 835 l 53 899 l 215 958 l 307 958 l 307 383 m 267 0 l 181 0 l 803 958 l 888 958 l 267 0 m 742 494 l 736 564 q 931 585 839 585 q 1090 558 1042 585 q 1139 453 1139 532 q 1025 253 1139 367 l 849 81 q 944 82 892 85 l 1163 82 l 1163 0 l 731 0 l 731 53 q 744 92 731 78 l 924 265 q 1039 444 1038 376 q 1012 494 1039 483 q 925 506 985 506 q 742 494 832 506 z "},"¾":{"ha":1325,"x_min":78,"x_max":1267,"o":"m 372 688 l 372 685 q 465 640 438 676 q 493 540 492 604 q 448 410 496 450 q 285 369 400 369 q 78 385 197 369 l 83 454 q 263 447 165 447 q 368 470 338 447 q 399 551 399 493 q 373 621 399 596 q 278 646 347 646 l 158 649 l 158 711 l 278 715 q 366 742 344 717 q 388 810 388 768 q 360 872 388 856 q 260 889 333 889 q 94 883 154 889 l 89 951 q 274 965 181 965 q 433 937 389 965 q 478 833 478 908 q 372 688 478 703 m 1036 958 l 415 0 l 331 0 l 951 958 l 1036 958 m 1267 143 l 1196 136 l 1196 0 l 1110 0 l 1110 135 l 842 135 q 787 159 804 135 q 788 225 769 183 l 964 575 l 1053 575 l 883 239 q 885 217 878 226 q 908 208 892 208 l 1110 208 l 1110 371 l 1125 465 l 1196 465 l 1196 208 l 1267 208 l 1267 143 z "},"¿":{"ha":694,"x_min":57,"x_max":643,"o":"m 347 693 l 376 693 q 411 683 401 693 q 421 650 421 674 l 421 572 q 411 539 421 549 q 376 529 401 529 l 347 529 q 313 539 322 529 q 303 572 303 549 l 303 650 q 313 683 303 674 q 347 693 322 693 m 310 400 l 411 400 q 390 269 413 329 q 333 170 367 210 q 266 96 300 131 q 208 21 232 61 q 182 -61 183 -19 q 223 -162 179 -129 q 363 -194 267 -194 q 636 -182 497 -194 l 643 -267 q 600 -274 633 -268 q 557 -282 567 -281 q 518 -287 547 -283 q 468 -292 489 -292 q 413 -294 447 -293 q 338 -296 378 -296 q 57 -81 57 -296 q 82 26 57 -24 q 144 112 107 75 q 217 187 181 149 q 281 280 254 225 q 310 400 307 335 z "},"À":{"ha":864,"x_min":14,"x_max":850,"o":"m 461 1011 l 194 1178 l 263 1269 l 501 1065 l 461 1011 m 629 300 l 235 300 l 140 0 l 14 0 l 322 925 q 368 958 331 958 l 496 958 q 542 925 533 958 l 850 0 l 724 0 l 629 300 m 596 406 l 475 786 q 451 864 463 822 l 413 864 l 389 786 l 268 406 l 596 406 z "},"Á":{"ha":864,"x_min":14,"x_max":850,"o":"m 382 1011 l 342 1065 l 581 1269 l 649 1178 l 382 1011 m 629 300 l 235 300 l 140 0 l 14 0 l 322 925 q 368 958 331 958 l 496 958 q 542 925 533 958 l 850 0 l 724 0 l 629 300 m 596 406 l 475 786 q 451 864 463 822 l 413 864 l 389 786 l 268 406 l 596 406 z "},"Â":{"ha":864,"x_min":14,"x_max":850,"o":"m 246 1017 l 207 1068 l 389 1244 l 475 1244 l 658 1068 l 617 1017 l 438 1153 l 426 1153 l 246 1017 m 629 300 l 235 300 l 140 0 l 14 0 l 322 925 q 368 958 331 958 l 496 958 q 542 925 533 958 l 850 0 l 724 0 l 629 300 m 596 406 l 475 786 q 451 864 463 822 l 413 864 l 389 786 l 268 406 l 596 406 z "},"Ã":{"ha":864,"x_min":14,"x_max":850,"o":"m 268 1063 l 213 1063 q 235 1185 204 1143 q 321 1222 267 1226 q 428 1183 365 1218 q 529 1144 492 1149 q 581 1157 567 1140 q 596 1215 596 1174 l 651 1215 q 629 1097 660 1138 q 543 1060 599 1056 q 427 1099 492 1064 q 335 1139 363 1135 q 282 1125 296 1143 q 268 1063 268 1107 m 629 300 l 235 300 l 140 0 l 14 0 l 322 925 q 368 958 331 958 l 496 958 q 542 925 533 958 l 850 0 l 724 0 l 629 300 m 596 406 l 475 786 q 451 864 463 822 l 413 864 l 389 786 l 268 406 l 596 406 z "},"Ä":{"ha":864,"x_min":14,"x_max":850,"o":"m 329 1065 l 289 1065 q 257 1099 257 1065 l 257 1175 q 289 1208 257 1208 l 329 1208 q 361 1175 361 1208 l 361 1099 q 329 1065 361 1065 m 575 1065 l 536 1065 q 503 1099 503 1065 l 503 1175 q 536 1208 503 1208 l 575 1208 q 608 1175 608 1208 l 608 1099 q 575 1065 608 1065 m 629 300 l 235 300 l 140 0 l 14 0 l 322 925 q 368 958 331 958 l 496 958 q 542 925 533 958 l 850 0 l 724 0 l 629 300 m 596 406 l 475 786 q 451 864 463 822 l 413 864 l 389 786 l 268 406 l 596 406 z "},"Å":{"ha":864,"x_min":14,"x_max":850,"o":"m 433 993 q 328 1035 371 993 q 285 1138 285 1076 q 328 1241 285 1199 q 433 1283 372 1283 q 538 1241 494 1283 q 582 1138 582 1199 q 538 1035 582 1076 q 433 993 494 993 m 433 1224 q 374 1200 397 1224 q 350 1138 350 1176 q 374 1076 350 1100 q 433 1053 397 1053 q 492 1076 468 1053 q 515 1138 515 1100 q 492 1199 515 1175 q 433 1224 468 1224 m 629 300 l 235 300 l 140 0 l 14 0 l 322 925 q 368 958 331 958 l 496 958 q 542 925 533 958 l 850 0 l 724 0 l 629 300 m 596 406 l 475 786 q 451 864 463 822 l 413 864 l 389 786 l 268 406 l 596 406 z "},"Æ":{"ha":1268,"x_min":-1,"x_max":1197,"o":"m 1193 103 l 1197 7 q 790 -1 1065 -1 q 674 45 718 -1 q 629 165 629 92 l 629 313 l 308 313 l 126 0 l -1 0 l 475 808 q 591 928 524 896 q 788 960 658 960 q 1197 951 1050 960 l 1193 854 l 839 854 q 770 828 796 854 q 744 758 744 803 l 744 556 l 1138 556 l 1138 456 l 744 456 l 744 196 q 839 103 744 103 l 1193 103 m 629 414 l 629 775 q 642 833 629 804 q 674 875 656 863 l 663 875 q 582 788 622 853 l 367 414 l 629 414 z "},"Ç":{"ha":792,"x_min":85,"x_max":742,"o":"m 729 107 l 742 15 q 461 -17 626 -17 q 169 94 254 -17 q 85 479 85 206 q 169 864 85 753 q 461 975 254 975 q 722 947 610 975 l 710 854 q 461 867 585 867 q 267 783 321 867 q 214 479 214 699 q 267 176 214 260 q 461 92 321 92 q 729 107 622 92 m 379 -132 l 392 -76 q 512 -87 476 -68 q 546 -167 547 -107 q 479 -301 544 -254 q 314 -335 414 -349 l 332 -272 q 423 -247 388 -274 q 461 -176 458 -219 q 444 -142 461 -151 q 379 -132 428 -133 z "},"È":{"ha":778,"x_min":113,"x_max":708,"o":"m 458 1040 l 193 1207 l 260 1297 l 500 1094 l 458 1040 m 703 101 l 708 7 q 297 -1 581 -1 q 163 44 213 -1 q 113 165 114 89 l 113 793 q 163 915 114 869 q 297 960 213 960 q 708 951 581 960 l 703 856 l 318 856 q 235 764 235 856 l 235 556 l 649 556 l 649 457 l 235 457 l 235 194 q 318 101 235 101 l 703 101 z "},"É":{"ha":778,"x_min":113,"x_max":708,"o":"m 381 1040 l 339 1094 l 579 1297 l 646 1207 l 381 1040 m 703 101 l 708 7 q 297 -1 581 -1 q 163 44 213 -1 q 113 165 114 89 l 113 793 q 163 915 114 869 q 297 960 213 960 q 708 951 581 960 l 703 856 l 318 856 q 235 764 235 856 l 235 556 l 649 556 l 649 457 l 235 457 l 235 194 q 318 101 235 101 l 703 101 z "},"Ê":{"ha":778,"x_min":113,"x_max":708,"o":"m 244 1046 l 204 1097 l 388 1274 l 472 1274 l 657 1097 l 615 1046 l 436 1182 l 425 1182 l 244 1046 m 703 101 l 708 7 q 297 -1 581 -1 q 163 44 213 -1 q 113 165 114 89 l 113 793 q 163 915 114 869 q 297 960 213 960 q 708 951 581 960 l 703 856 l 318 856 q 235 764 235 856 l 235 556 l 649 556 l 649 457 l 235 457 l 235 194 q 318 101 235 101 l 703 101 z "},"Ë":{"ha":778,"x_min":113,"x_max":708,"o":"m 328 1094 l 288 1094 q 254 1128 254 1094 l 254 1203 q 288 1236 254 1236 l 328 1236 q 360 1203 360 1236 l 360 1128 q 328 1094 360 1094 m 574 1094 l 533 1094 q 500 1128 500 1094 l 500 1203 q 533 1236 500 1236 l 574 1236 q 606 1203 606 1236 l 606 1128 q 574 1094 606 1094 m 703 101 l 708 7 q 297 -1 581 -1 q 163 44 213 -1 q 113 165 114 89 l 113 793 q 163 915 114 869 q 297 960 213 960 q 708 951 581 960 l 703 856 l 318 856 q 235 764 235 856 l 235 556 l 649 556 l 649 457 l 235 457 l 235 194 q 318 101 235 101 l 703 101 z "},"Ì":{"ha":364,"x_min":-56,"x_max":251,"o":"m 251 1065 l 210 1011 l -56 1178 l 11 1269 l 251 1065 m 243 0 l 121 0 l 121 958 l 243 958 l 243 0 z "},"Í":{"ha":364,"x_min":92,"x_max":399,"o":"m 399 1178 l 132 1011 l 92 1065 l 331 1269 l 399 1178 m 243 0 l 121 0 l 121 958 l 243 958 l 243 0 z "},"Î":{"ha":364,"x_min":-44,"x_max":408,"o":"m 408 1068 l 367 1017 l 188 1153 l 176 1153 l -4 1017 l -44 1068 l 139 1244 l 224 1244 l 408 1068 m 243 0 l 121 0 l 121 958 l 243 958 l 243 0 z "},"Ï":{"ha":364,"x_min":6,"x_max":357,"o":"m 39 1208 l 79 1208 q 111 1175 111 1208 l 111 1099 q 79 1065 111 1065 l 39 1065 q 6 1099 6 1065 l 6 1175 q 39 1208 6 1208 m 285 1208 l 325 1208 q 357 1175 357 1208 l 357 1099 q 325 1065 357 1065 l 285 1065 q 251 1099 251 1065 l 251 1175 q 285 1208 251 1208 m 243 0 l 121 0 l 121 958 l 243 958 l 243 0 z "},"Ð":{"ha":929,"x_min":31,"x_max":842,"o":"m 126 543 l 126 958 q 468 971 307 971 q 758 863 675 971 q 842 479 842 756 q 758 95 842 203 q 468 -12 675 -12 q 126 0 308 -12 l 126 475 l 31 475 l 31 543 l 126 543 m 249 475 l 249 97 q 468 94 376 94 q 660 178 607 94 q 714 479 714 261 q 660 781 714 697 q 468 865 607 865 q 249 863 379 865 l 249 543 l 460 543 l 460 475 l 249 475 z "},"Ñ":{"ha":979,"x_min":121,"x_max":858,"o":"m 336 1063 l 282 1063 q 305 1185 274 1143 q 390 1222 336 1226 q 497 1183 435 1218 q 597 1144 560 1149 q 651 1157 636 1140 q 665 1215 665 1174 l 719 1215 q 699 1097 729 1138 q 611 1060 668 1056 q 496 1099 560 1064 q 403 1139 432 1135 q 351 1125 365 1143 q 336 1063 336 1107 m 858 958 l 858 49 q 811 0 858 0 l 692 0 q 638 39 654 0 l 314 718 q 260 844 267 821 l 238 844 q 243 718 243 789 l 243 0 l 121 0 l 121 910 q 169 958 121 958 l 285 958 q 339 919 322 958 l 653 257 q 718 118 688 189 l 742 118 q 738 264 738 193 l 738 958 l 858 958 z "},"Ò":{"ha":928,"x_min":85,"x_max":842,"o":"m 532 1065 l 492 1011 l 225 1178 l 293 1269 l 532 1065 m 169 867 q 211 922 169 867 q 464 976 253 976 q 758 867 675 976 q 842 479 842 758 q 758 91 842 200 q 464 -18 675 -18 q 169 91 253 -18 q 85 479 85 200 q 169 867 85 758 m 660 783 q 633 825 660 783 q 464 867 606 867 q 268 783 322 867 q 214 479 214 699 q 268 176 214 260 q 464 92 322 92 q 660 176 606 92 q 714 479 714 260 q 660 783 714 699 z "},"Ó":{"ha":928,"x_min":85,"x_max":842,"o":"m 679 1178 l 413 1011 l 372 1065 l 611 1269 l 679 1178 m 169 867 q 211 922 169 867 q 464 976 253 976 q 758 867 675 976 q 842 479 842 758 q 758 91 842 200 q 464 -18 675 -18 q 169 91 253 -18 q 85 479 85 200 q 169 867 85 758 m 660 783 q 633 825 660 783 q 464 867 606 867 q 268 783 322 867 q 214 479 214 699 q 268 176 214 260 q 464 92 322 92 q 660 176 606 92 q 714 479 714 260 q 660 783 714 699 z "},"Ô":{"ha":928,"x_min":85,"x_max":842,"o":"m 689 1068 l 647 1017 l 468 1153 l 457 1153 l 276 1017 l 238 1068 l 419 1244 l 506 1244 l 689 1068 m 169 867 q 211 922 169 867 q 464 976 253 976 q 758 867 675 976 q 842 479 842 758 q 758 91 842 200 q 464 -18 675 -18 q 169 91 253 -18 q 85 479 85 200 q 169 867 85 758 m 660 783 q 633 825 660 783 q 464 867 606 867 q 268 783 322 867 q 214 479 214 699 q 268 176 214 260 q 464 92 322 92 q 660 176 606 92 q 714 479 714 260 q 660 783 714 699 z "},"Õ":{"ha":928,"x_min":85,"x_max":842,"o":"m 299 1063 l 243 1063 q 266 1185 235 1143 q 351 1222 297 1226 q 459 1183 396 1218 q 560 1144 522 1149 q 612 1157 597 1140 q 626 1215 626 1174 l 682 1215 q 660 1097 690 1138 q 574 1060 629 1056 q 458 1099 522 1064 q 365 1139 393 1135 q 313 1125 326 1143 q 299 1063 299 1107 m 169 867 q 211 922 169 867 q 464 976 253 976 q 758 867 675 976 q 842 479 842 758 q 758 91 842 200 q 464 -18 675 -18 q 169 91 253 -18 q 85 479 85 200 q 169 867 85 758 m 660 783 q 633 825 660 783 q 464 867 606 867 q 268 783 322 867 q 214 479 214 699 q 268 176 214 260 q 464 92 322 92 q 660 176 606 92 q 714 479 714 260 q 660 783 714 699 z "},"Ö":{"ha":928,"x_min":85,"x_max":842,"o":"m 319 1208 l 360 1208 q 392 1175 392 1208 l 392 1099 q 360 1065 392 1065 l 319 1065 q 288 1099 288 1065 l 288 1175 q 319 1208 288 1208 m 567 1208 l 606 1208 q 639 1175 639 1208 l 639 1099 q 606 1065 639 1065 l 567 1065 q 533 1099 533 1065 l 533 1175 q 567 1208 533 1208 m 169 867 q 211 922 169 867 q 464 976 253 976 q 758 867 675 976 q 842 479 842 758 q 758 91 842 200 q 464 -18 675 -18 q 169 91 253 -18 q 85 479 85 200 q 169 867 85 758 m 660 783 q 633 825 660 783 q 464 867 606 867 q 268 783 322 867 q 214 479 214 699 q 268 176 214 260 q 464 92 322 92 q 660 176 606 92 q 714 479 714 260 q 660 783 714 699 z "},"×":{"ha":672,"x_min":64,"x_max":617,"o":"m 64 215 l 122 144 l 617 590 l 558 660 l 64 215 z "},"Ø":{"ha":928,"x_min":85,"x_max":842,"o":"m 749 1015 l 703 919 q 809 764 776 869 q 842 479 842 658 q 758 91 842 200 q 464 -18 675 -18 q 278 11 347 -18 l 235 -81 l 172 -53 l 217 44 q 116 200 147 96 q 85 479 85 304 q 169 867 85 758 q 464 976 253 976 q 642 950 571 976 l 685 1042 l 749 1015 m 275 167 l 592 843 q 464 867 544 867 q 268 783 322 867 q 214 479 214 699 q 275 167 214 249 m 647 800 l 328 119 q 464 92 379 92 q 660 176 606 92 q 714 479 714 260 q 647 800 714 719 z "},"Ù":{"ha":925,"x_min":114,"x_max":811,"o":"m 533 1065 l 493 1011 l 226 1178 l 294 1269 l 533 1065 m 811 958 l 811 367 q 733 69 811 157 q 468 -18 656 -18 q 194 69 274 -18 q 114 367 114 157 l 114 958 l 236 958 l 236 367 q 286 152 236 213 q 463 92 336 92 q 638 152 588 92 q 689 367 689 213 l 689 958 l 811 958 z "},"Ú":{"ha":925,"x_min":114,"x_max":811,"o":"m 681 1178 l 414 1011 l 374 1065 l 613 1269 l 681 1178 m 811 958 l 811 367 q 733 69 811 157 q 468 -18 656 -18 q 194 69 274 -18 q 114 367 114 157 l 114 958 l 236 958 l 236 367 q 286 152 236 213 q 463 92 336 92 q 638 152 588 92 q 689 367 689 213 l 689 958 l 811 958 z "},"Û":{"ha":925,"x_min":114,"x_max":811,"o":"m 690 1068 l 649 1017 l 469 1153 l 458 1153 l 278 1017 l 238 1068 l 421 1244 l 507 1244 l 690 1068 m 811 958 l 811 367 q 733 69 811 157 q 468 -18 656 -18 q 194 69 274 -18 q 114 367 114 157 l 114 958 l 236 958 l 236 367 q 286 152 236 213 q 463 92 336 92 q 638 152 588 92 q 689 367 689 213 l 689 958 l 811 958 z "},"Ü":{"ha":925,"x_min":114,"x_max":811,"o":"m 321 1208 l 361 1208 q 393 1175 393 1208 l 393 1099 q 361 1065 393 1065 l 321 1065 q 289 1099 289 1065 l 289 1175 q 321 1208 289 1208 m 568 1208 l 607 1208 q 640 1175 640 1208 l 640 1099 q 607 1065 640 1065 l 568 1065 q 535 1099 535 1065 l 535 1175 q 568 1208 535 1208 m 811 958 l 811 367 q 733 69 811 157 q 468 -18 656 -18 q 194 69 274 -18 q 114 367 114 157 l 114 958 l 236 958 l 236 367 q 286 152 236 213 q 463 92 336 92 q 638 152 588 92 q 689 367 689 213 l 689 958 l 811 958 z "},"Ý":{"ha":790,"x_min":15,"x_max":774,"o":"m 344 1011 l 304 1065 l 543 1269 l 611 1178 l 344 1011 m 456 336 l 456 0 l 333 0 l 333 338 l 15 958 l 146 958 l 347 554 q 390 446 364 521 l 400 446 q 443 553 422 507 l 644 958 l 774 958 l 456 336 z "},"Þ":{"ha":822,"x_min":121,"x_max":758,"o":"m 243 958 l 243 785 q 451 788 300 788 q 692 724 625 788 q 758 485 758 661 q 694 245 758 308 q 464 182 629 182 q 243 194 350 182 l 243 0 l 121 0 l 121 776 l 121 958 l 243 958 m 243 288 l 449 288 q 595 328 556 289 q 635 485 635 368 q 595 643 635 603 q 449 683 556 683 q 243 682 297 683 l 243 288 z "},"ß":{"ha":938,"x_min":39,"x_max":886,"o":"m 619 419 l 764 356 q 858 287 831 325 q 886 175 886 249 q 828 24 886 63 q 640 -15 771 -15 q 418 0 526 -15 l 425 89 q 618 82 514 82 q 739 101 707 83 q 771 181 771 118 q 751 243 771 224 q 678 286 731 263 l 531 351 q 417 507 417 404 q 420 547 417 529 q 435 581 424 565 q 453 607 446 597 q 482 631 461 617 q 512 650 503 644 q 550 671 521 656 q 588 692 579 686 q 658 746 639 721 q 676 814 676 771 q 634 883 676 861 q 479 904 592 904 q 321 872 363 904 q 279 742 279 839 l 279 0 l 161 0 l 161 582 l 39 582 l 39 674 l 161 675 l 161 754 q 181 884 161 833 q 245 960 201 935 q 341 993 289 985 q 474 1001 393 1001 q 716 961 644 1001 q 788 818 788 921 q 763 718 788 758 q 667 636 738 678 q 620 610 649 625 q 580 588 592 596 q 553 569 568 581 q 534 543 539 557 q 529 510 529 529 q 549 459 529 476 q 619 419 569 442 z "},"à":{"ha":763,"x_min":71,"x_max":660,"o":"m 403 761 l 136 929 l 203 1019 l 443 815 l 403 761 m 113 575 l 101 663 q 428 693 288 693 q 603 644 546 693 q 660 476 660 594 l 660 0 l 567 0 l 553 111 q 431 25 504 63 q 274 -12 358 -12 q 126 37 181 -12 q 71 176 71 86 l 71 250 q 120 373 71 329 q 258 417 169 417 l 540 417 l 540 476 q 511 567 540 540 q 403 593 482 593 q 113 575 303 593 m 192 233 l 192 190 q 217 113 192 138 q 297 89 242 89 q 417 114 350 88 q 540 190 485 140 l 540 326 l 279 326 q 212 301 232 325 q 192 233 192 278 z "},"á":{"ha":763,"x_min":71,"x_max":660,"o":"m 324 761 l 283 815 l 522 1019 l 590 929 l 324 761 m 113 575 l 101 663 q 428 693 288 693 q 603 644 546 693 q 660 476 660 594 l 660 0 l 567 0 l 553 111 q 431 25 504 63 q 274 -12 358 -12 q 126 37 181 -12 q 71 176 71 86 l 71 250 q 120 373 71 329 q 258 417 169 417 l 540 417 l 540 476 q 511 567 540 540 q 403 593 482 593 q 113 575 303 593 m 192 233 l 192 190 q 217 113 192 138 q 297 89 242 89 q 417 114 350 88 q 540 190 485 140 l 540 326 l 279 326 q 212 301 232 325 q 192 233 192 278 z "},"â":{"ha":763,"x_min":71,"x_max":660,"o":"m 188 767 l 147 818 l 331 994 l 417 994 l 600 818 l 558 767 l 379 903 l 368 903 l 188 767 m 113 575 l 101 663 q 428 693 288 693 q 603 644 546 693 q 660 476 660 594 l 660 0 l 567 0 l 553 111 q 431 25 504 63 q 274 -12 358 -12 q 126 37 181 -12 q 71 176 71 86 l 71 250 q 120 373 71 329 q 258 417 169 417 l 540 417 l 540 476 q 511 567 540 540 q 403 593 482 593 q 113 575 303 593 m 192 233 l 192 190 q 217 113 192 138 q 297 89 242 89 q 417 114 350 88 q 540 190 485 140 l 540 326 l 279 326 q 212 301 232 325 q 192 233 192 278 z "},"ã":{"ha":763,"x_min":71,"x_max":660,"o":"m 210 814 l 154 814 q 177 935 146 893 q 263 972 208 976 q 370 933 307 968 q 469 894 433 899 q 523 907 508 890 q 538 965 538 924 l 593 965 q 571 847 601 889 q 485 810 540 806 q 369 849 433 814 q 275 889 304 885 q 224 875 238 893 q 210 814 210 857 m 113 575 l 101 663 q 428 693 288 693 q 603 644 546 693 q 660 476 660 594 l 660 0 l 567 0 l 553 111 q 431 25 504 63 q 274 -12 358 -12 q 126 37 181 -12 q 71 176 71 86 l 71 250 q 120 373 71 329 q 258 417 169 417 l 540 417 l 540 476 q 511 567 540 540 q 403 593 482 593 q 113 575 303 593 m 192 233 l 192 190 q 217 113 192 138 q 297 89 242 89 q 417 114 350 88 q 540 190 485 140 l 540 326 l 279 326 q 212 301 232 325 q 192 233 192 278 z "},"ä":{"ha":763,"x_min":71,"x_max":660,"o":"m 271 815 l 231 815 q 199 849 199 815 l 199 925 q 231 958 199 958 l 271 958 q 303 925 303 958 l 303 849 q 271 815 303 815 m 517 815 l 476 815 q 444 849 444 815 l 444 925 q 476 958 444 958 l 517 958 q 550 925 550 958 l 550 849 q 517 815 550 815 m 113 575 l 101 663 q 428 693 288 693 q 603 644 546 693 q 660 476 660 594 l 660 0 l 567 0 l 553 111 q 431 25 504 63 q 274 -12 358 -12 q 126 37 181 -12 q 71 176 71 86 l 71 250 q 120 373 71 329 q 258 417 169 417 l 540 417 l 540 476 q 511 567 540 540 q 403 593 482 593 q 113 575 303 593 m 192 233 l 192 190 q 217 113 192 138 q 297 89 242 89 q 417 114 350 88 q 540 190 485 140 l 540 326 l 279 326 q 212 301 232 325 q 192 233 192 278 z "},"å":{"ha":763,"x_min":71,"x_max":660,"o":"m 479 785 q 458 764 479 785 q 374 743 436 743 q 268 785 311 743 q 225 888 225 826 q 268 992 225 950 q 374 1035 311 1035 q 478 992 435 1035 q 522 888 522 950 q 479 785 522 826 m 433 949 q 422 961 433 949 q 374 974 410 974 q 315 950 338 974 q 292 888 292 926 q 315 827 292 850 q 374 804 339 804 q 433 827 410 804 q 457 888 457 850 q 433 949 457 925 m 113 575 l 101 663 q 428 693 288 693 q 603 644 546 693 q 660 476 660 594 l 660 0 l 567 0 l 553 111 q 431 25 504 63 q 274 -12 358 -12 q 126 37 181 -12 q 71 176 71 86 l 71 250 q 120 373 71 329 q 258 417 169 417 l 540 417 l 540 476 q 511 567 540 540 q 403 593 482 593 q 113 575 303 593 m 192 233 l 192 190 q 217 113 192 138 q 297 89 242 89 q 417 114 350 88 q 540 190 485 140 l 540 326 l 279 326 q 212 301 232 325 q 192 233 192 278 z "},"æ":{"ha":1210,"x_min":71,"x_max":1142,"o":"m 965 281 l 665 281 q 721 124 674 164 q 878 83 768 83 q 1114 100 993 83 l 1125 21 q 863 -17 1036 -17 q 676 17 746 -17 q 574 129 607 51 q 446 31 525 75 q 274 -12 367 -12 q 126 37 181 -12 q 71 176 71 86 l 71 250 q 120 373 71 329 q 258 417 169 417 l 540 417 l 540 476 q 511 567 540 540 q 403 593 482 593 q 113 575 303 593 l 101 663 q 428 693 288 693 q 621 624 571 693 q 850 693 690 693 q 1071 638 1001 693 q 1142 472 1140 583 q 965 281 1142 281 m 663 372 l 935 372 q 1022 472 1025 372 q 984 565 1022 536 q 856 593 946 593 q 708 546 750 593 q 663 372 665 499 m 192 233 l 192 190 q 217 113 192 138 q 297 89 242 89 q 424 116 354 88 q 553 197 494 144 q 540 326 540 253 l 279 326 q 212 301 232 325 q 192 233 192 278 z "},"ç":{"ha":679,"x_min":75,"x_max":628,"o":"m 615 97 l 628 18 q 396 -17 528 -17 q 148 63 221 -17 q 75 339 75 143 q 148 614 75 535 q 397 693 221 693 q 615 661 531 693 l 600 585 q 417 593 508 593 q 247 539 294 593 q 200 339 200 485 q 247 138 200 192 q 417 83 294 83 q 615 97 528 83 m 314 -132 l 326 -76 q 447 -87 411 -68 q 482 -167 483 -107 q 414 -301 479 -254 q 249 -335 349 -349 l 268 -272 q 359 -247 324 -274 q 396 -176 394 -219 q 381 -142 397 -151 q 314 -132 364 -133 z "},"è":{"ha":746,"x_min":75,"x_max":676,"o":"m 417 761 l 151 929 l 218 1019 l 458 815 l 417 761 m 515 281 l 200 281 q 257 124 210 164 q 414 83 304 83 q 649 100 529 83 l 661 21 q 399 -17 571 -17 q 149 65 224 -17 q 75 340 75 146 q 147 615 75 536 q 386 693 219 693 q 607 638 538 693 q 676 472 676 583 q 515 281 679 281 m 199 372 l 485 372 q 558 472 558 372 q 519 565 557 538 q 392 593 482 593 q 243 547 285 593 q 199 372 201 500 z "},"é":{"ha":746,"x_min":75,"x_max":676,"o":"m 339 761 l 297 815 l 538 1019 l 604 929 l 339 761 m 515 281 l 200 281 q 257 124 210 164 q 414 83 304 83 q 649 100 529 83 l 661 21 q 399 -17 571 -17 q 149 65 224 -17 q 75 340 75 146 q 147 615 75 536 q 386 693 219 693 q 607 638 538 693 q 676 472 676 583 q 515 281 679 281 m 199 372 l 485 372 q 558 472 558 372 q 519 565 557 538 q 392 593 482 593 q 243 547 285 593 q 199 372 201 500 z "},"ê":{"ha":746,"x_min":75,"x_max":676,"o":"m 203 767 l 163 818 l 346 994 l 431 994 l 615 818 l 574 767 l 393 903 l 382 903 l 203 767 m 515 281 l 200 281 q 257 124 210 164 q 414 83 304 83 q 649 100 529 83 l 661 21 q 399 -17 571 -17 q 149 65 224 -17 q 75 340 75 146 q 147 615 75 536 q 386 693 219 693 q 607 638 538 693 q 676 472 676 583 q 515 281 679 281 m 199 372 l 485 372 q 558 472 558 372 q 519 565 557 538 q 392 593 482 593 q 243 547 285 593 q 199 372 201 500 z "},"ë":{"ha":746,"x_min":75,"x_max":676,"o":"m 285 815 l 244 815 q 213 849 213 815 l 213 925 q 244 958 213 958 l 285 958 q 318 925 318 958 l 318 849 q 285 815 318 815 m 531 815 l 492 815 q 458 849 458 815 l 458 925 q 492 958 458 958 l 531 958 q 564 925 564 958 l 564 849 q 531 815 564 815 m 515 281 l 200 281 q 257 124 210 164 q 414 83 304 83 q 649 100 529 83 l 661 21 q 399 -17 571 -17 q 149 65 224 -17 q 75 340 75 146 q 147 615 75 536 q 386 693 219 693 q 607 638 538 693 q 676 472 676 583 q 515 281 679 281 m 199 372 l 485 372 q 558 472 558 372 q 519 565 557 538 q 392 593 482 593 q 243 547 285 593 q 199 372 201 500 z "},"ì":{"ha":346,"x_min":-64,"x_max":243,"o":"m 243 815 l 201 761 l -64 929 l 3 1019 l 243 815 m 232 0 l 114 0 l 114 676 l 232 676 l 232 0 z "},"í":{"ha":346,"x_min":83,"x_max":390,"o":"m 390 929 l 124 761 l 83 815 l 322 1019 l 390 929 m 232 0 l 114 0 l 114 676 l 232 676 l 232 0 z "},"î":{"ha":346,"x_min":-53,"x_max":400,"o":"m 400 818 l 358 767 l 179 903 l 168 903 l -12 767 l -53 818 l 131 994 l 215 994 l 400 818 m 232 0 l 114 0 l 114 676 l 232 676 l 232 0 z "},"ï":{"ha":346,"x_min":-3,"x_max":349,"o":"m 31 958 l 71 958 q 103 925 103 958 l 103 849 q 71 815 103 815 l 31 815 q -3 849 -3 815 l -3 925 q 31 958 -3 958 m 276 958 l 317 958 q 349 925 349 958 l 349 849 q 317 815 349 815 l 276 815 q 243 849 243 815 l 243 925 q 276 958 243 958 m 232 0 l 114 0 l 114 676 l 232 676 l 232 0 z "},"ð":{"ha":776,"x_min":76,"x_max":688,"o":"m 615 935 l 522 863 q 688 393 688 718 q 675 224 688 294 q 630 97 663 154 q 535 10 597 39 q 382 -18 474 -18 q 151 59 225 -18 q 76 304 76 136 q 142 542 76 463 q 361 622 208 622 q 551 572 471 622 q 440 800 522 725 l 332 717 l 289 769 l 382 842 q 165 883 296 889 l 179 969 q 465 906 347 976 l 574 989 l 615 935 m 383 82 q 478 101 442 82 q 534 165 515 121 q 559 262 553 210 q 565 399 565 314 q 563 490 565 432 q 379 524 476 524 q 242 469 282 524 q 201 304 201 414 q 244 133 201 183 q 383 82 288 82 z "},"ñ":{"ha":807,"x_min":108,"x_max":703,"o":"m 249 814 l 193 814 q 216 935 185 893 q 301 972 247 976 q 409 933 346 968 q 510 894 472 899 q 562 907 547 890 q 576 965 576 924 l 632 965 q 610 847 640 889 q 524 810 579 806 q 408 849 472 814 q 315 889 343 885 q 263 875 278 893 q 249 814 249 857 m 208 676 l 217 569 q 519 693 381 693 q 703 507 703 693 l 703 0 l 585 0 l 585 474 q 563 567 585 540 q 488 593 540 593 q 376 568 432 593 q 226 486 319 543 l 226 0 l 108 0 l 108 676 l 208 676 z "},"ò":{"ha":789,"x_min":76,"x_max":713,"o":"m 463 815 l 422 761 l 156 929 l 224 1019 l 463 815 m 394 693 q 641 613 569 693 q 713 338 713 532 q 641 63 713 143 q 394 -18 569 -18 q 149 63 221 -18 q 76 338 76 143 q 149 613 76 532 q 394 693 221 693 m 548 539 q 527 566 548 539 q 394 593 506 593 q 242 539 283 593 q 200 338 200 485 q 242 136 200 190 q 394 82 283 82 q 548 136 506 82 q 590 338 590 190 q 548 539 590 485 z "},"ó":{"ha":789,"x_min":76,"x_max":713,"o":"m 610 929 l 343 761 l 303 815 l 542 1019 l 610 929 m 394 693 q 641 613 569 693 q 713 338 713 532 q 641 63 713 143 q 394 -18 569 -18 q 149 63 221 -18 q 76 338 76 143 q 149 613 76 532 q 394 693 221 693 m 548 539 q 527 566 548 539 q 394 593 506 593 q 242 539 283 593 q 200 338 200 485 q 242 136 200 190 q 394 82 283 82 q 548 136 506 82 q 590 338 590 190 q 548 539 590 485 z "},"ô":{"ha":789,"x_min":76,"x_max":713,"o":"m 619 818 l 578 767 l 399 903 l 388 903 l 207 767 l 167 818 l 350 994 l 436 994 l 619 818 m 394 693 q 641 613 569 693 q 713 338 713 532 q 641 63 713 143 q 394 -18 569 -18 q 149 63 221 -18 q 76 338 76 143 q 149 613 76 532 q 394 693 221 693 m 548 539 q 527 566 548 539 q 394 593 506 593 q 242 539 283 593 q 200 338 200 485 q 242 136 200 190 q 394 82 283 82 q 548 136 506 82 q 590 338 590 190 q 548 539 590 485 z "},"õ":{"ha":789,"x_min":76,"x_max":713,"o":"m 229 814 l 174 814 q 197 935 165 893 q 282 972 228 976 q 390 933 326 968 q 490 894 453 899 q 542 907 528 890 q 557 965 557 924 l 613 965 q 590 847 621 889 q 504 810 560 806 q 388 849 453 814 q 296 889 324 885 q 244 875 258 893 q 229 814 229 857 m 394 693 q 641 613 569 693 q 713 338 713 532 q 641 63 713 143 q 394 -18 569 -18 q 149 63 221 -18 q 76 338 76 143 q 149 613 76 532 q 394 693 221 693 m 548 539 q 527 566 548 539 q 394 593 506 593 q 242 539 283 593 q 200 338 200 485 q 242 136 200 190 q 394 82 283 82 q 548 136 506 82 q 590 338 590 190 q 548 539 590 485 z "},"ö":{"ha":789,"x_min":76,"x_max":713,"o":"m 250 958 l 290 958 q 322 925 322 958 l 322 849 q 290 815 322 815 l 250 815 q 218 849 218 815 l 218 925 q 250 958 218 958 m 497 958 l 536 958 q 569 925 569 958 l 569 849 q 536 815 569 815 l 497 815 q 464 849 464 815 l 464 925 q 497 958 464 958 m 394 693 q 641 613 569 693 q 713 338 713 532 q 641 63 713 143 q 394 -18 569 -18 q 149 63 221 -18 q 76 338 76 143 q 149 613 76 532 q 394 693 221 693 m 548 539 q 527 566 548 539 q 394 593 506 593 q 242 539 283 593 q 200 338 200 485 q 242 136 200 190 q 394 82 283 82 q 548 136 506 82 q 590 338 590 190 q 548 539 590 485 z "},"÷":{"ha":793,"x_min":92,"x_max":700,"o":"m 379 729 l 410 729 q 444 719 433 729 q 454 685 454 708 l 454 617 q 444 583 454 593 q 410 574 433 574 l 379 574 q 345 583 354 574 q 336 617 336 593 l 336 685 q 345 719 336 710 q 379 729 354 729 m 700 365 l 92 365 l 92 454 l 700 454 l 700 365 m 379 244 l 410 244 q 444 235 433 244 q 454 200 454 225 l 454 133 q 444 99 454 108 q 410 89 433 89 l 379 89 q 345 99 354 89 q 336 133 336 108 l 336 200 q 345 235 336 225 q 379 244 354 244 z "},"ø":{"ha":789,"x_min":76,"x_max":713,"o":"m 617 751 l 575 661 q 681 550 649 628 q 713 338 713 472 q 641 63 713 143 q 394 -18 569 -18 q 265 -4 317 -18 l 218 -104 l 164 -78 l 208 17 q 108 130 139 53 q 76 338 76 207 q 149 613 76 532 q 394 693 221 693 q 517 682 471 693 l 563 778 l 617 751 m 256 121 l 472 586 q 394 593 444 593 q 242 539 283 593 q 200 338 200 485 q 256 121 200 171 m 528 560 l 310 92 q 394 82 343 82 q 548 136 506 82 q 590 338 590 190 q 528 560 590 511 z "},"ù":{"ha":792,"x_min":104,"x_max":683,"o":"m 428 767 l 161 933 l 229 1024 l 468 821 l 428 767 m 683 676 l 683 0 l 589 0 l 581 97 q 289 -18 428 -18 q 104 168 104 -18 l 104 676 l 222 676 l 222 201 q 246 111 221 138 q 329 85 271 85 q 433 108 381 85 q 565 182 486 131 l 565 676 l 683 676 z "},"ú":{"ha":792,"x_min":104,"x_max":683,"o":"m 349 767 l 308 821 l 547 1024 l 615 933 l 349 767 m 683 676 l 683 0 l 589 0 l 581 97 q 289 -18 428 -18 q 104 168 104 -18 l 104 676 l 222 676 l 222 201 q 246 111 221 138 q 329 85 271 85 q 433 108 381 85 q 565 182 486 131 l 565 676 l 683 676 z "},"û":{"ha":792,"x_min":104,"x_max":683,"o":"m 213 772 l 172 824 l 356 1000 l 442 1000 l 625 824 l 583 772 l 404 908 l 393 908 l 213 772 m 683 676 l 683 0 l 589 0 l 581 97 q 289 -18 428 -18 q 104 168 104 -18 l 104 676 l 222 676 l 222 201 q 246 111 221 138 q 329 85 271 85 q 433 108 381 85 q 565 182 486 131 l 565 676 l 683 676 z "},"ü":{"ha":792,"x_min":104,"x_max":683,"o":"m 296 821 l 256 821 q 224 854 224 821 l 224 931 q 256 964 224 964 l 296 964 q 328 931 328 964 l 328 854 q 296 821 328 821 m 542 821 l 503 821 q 469 854 469 821 l 469 931 q 503 964 469 964 l 542 964 q 575 931 575 964 l 575 854 q 542 821 575 821 m 683 676 l 683 0 l 589 0 l 581 97 q 289 -18 428 -18 q 104 168 104 -18 l 104 676 l 222 676 l 222 201 q 246 111 221 138 q 329 85 271 85 q 433 108 381 85 q 565 182 486 131 l 565 676 l 683 676 z "},"ý":{"ha":735,"x_min":25,"x_max":708,"o":"m 321 761 l 279 815 l 519 1019 l 586 929 l 321 761 m 708 676 l 438 -37 q 142 -286 349 -276 l 131 -208 q 255 -140 210 -183 q 328 -29 300 -96 l 339 0 l 313 0 q 271 31 279 0 l 25 676 l 151 676 l 331 172 q 356 90 350 115 l 375 90 q 404 172 386 118 l 581 676 l 708 676 z "},"þ":{"ha":797,"x_min":108,"x_max":718,"o":"m 226 972 l 226 736 q 222 597 226 644 q 475 693 343 693 q 662 608 606 693 q 718 333 718 524 q 660 61 718 140 q 471 -18 603 -18 q 224 43 342 -18 q 226 -83 226 0 l 226 -279 l 108 -279 l 108 972 l 226 972 m 226 499 l 226 131 q 433 81 353 81 q 560 135 524 81 q 596 335 596 190 q 560 535 596 479 q 438 592 524 592 q 226 499 350 592 z "},"ÿ":{"ha":735,"x_min":25,"x_max":708,"o":"m 267 815 l 226 815 q 194 849 194 815 l 194 925 q 226 958 194 958 l 267 958 q 300 925 300 958 l 300 849 q 267 815 300 815 m 513 815 l 474 815 q 440 849 440 815 l 440 925 q 474 958 440 958 l 513 958 q 546 925 546 958 l 546 849 q 513 815 546 815 m 708 676 l 438 -37 q 142 -286 349 -276 l 131 -208 q 255 -140 210 -183 q 328 -29 300 -96 l 339 0 l 313 0 q 271 31 279 0 l 25 676 l 151 676 l 331 172 q 356 90 350 115 l 375 90 q 404 172 386 118 l 581 676 l 708 676 z "},"Ā":{"ha":864,"x_min":14,"x_max":850,"o":"m 626 1092 l 239 1092 l 239 1179 l 626 1179 l 626 1092 m 629 300 l 235 300 l 140 0 l 14 0 l 322 925 q 368 958 331 958 l 496 958 q 542 925 533 958 l 850 0 l 724 0 l 629 300 m 596 406 l 475 786 q 451 864 463 822 l 413 864 l 389 786 l 268 406 l 596 406 z "},"ā":{"ha":763,"x_min":71,"x_max":660,"o":"m 568 842 l 181 842 l 181 929 l 568 929 l 568 842 m 113 575 l 101 663 q 428 693 288 693 q 603 644 546 693 q 660 476 660 594 l 660 0 l 567 0 l 553 111 q 431 25 504 63 q 274 -12 358 -12 q 126 37 181 -12 q 71 176 71 86 l 71 250 q 120 373 71 329 q 258 417 169 417 l 540 417 l 540 476 q 511 567 540 540 q 403 593 482 593 q 113 575 303 593 m 192 233 l 192 190 q 217 113 192 138 q 297 89 242 89 q 417 114 350 88 q 540 190 485 140 l 540 326 l 279 326 q 212 301 232 325 q 192 233 192 278 z "},"Ă":{"ha":864,"x_min":14,"x_max":850,"o":"m 579 1228 l 640 1218 q 589 1086 646 1136 q 432 1036 532 1036 q 275 1086 332 1036 q 224 1218 218 1136 l 285 1228 q 322 1151 283 1178 q 433 1124 361 1124 q 541 1151 503 1124 q 579 1228 579 1178 m 629 300 l 235 300 l 140 0 l 14 0 l 322 925 q 368 958 331 958 l 496 958 q 542 925 533 958 l 850 0 l 724 0 l 629 300 m 596 406 l 475 786 q 451 864 463 822 l 413 864 l 389 786 l 268 406 l 596 406 z "},"ă":{"ha":763,"x_min":71,"x_max":660,"o":"m 519 978 l 581 968 q 529 837 586 888 q 374 786 472 786 q 216 837 274 786 q 165 968 158 888 l 225 978 q 263 901 225 928 q 374 874 301 874 q 482 901 443 874 q 519 978 521 928 m 113 575 l 101 663 q 428 693 288 693 q 603 644 546 693 q 660 476 660 594 l 660 0 l 567 0 l 553 111 q 431 25 504 63 q 274 -12 358 -12 q 126 37 181 -12 q 71 176 71 86 l 71 250 q 120 373 71 329 q 258 417 169 417 l 540 417 l 540 476 q 511 567 540 540 q 403 593 482 593 q 113 575 303 593 m 192 233 l 192 190 q 217 113 192 138 q 297 89 242 89 q 417 114 350 88 q 540 190 485 140 l 540 326 l 279 326 q 212 301 232 325 q 192 233 192 278 z "},"Ą":{"ha":864,"x_min":14,"x_max":869,"o":"m 856 -219 l 869 -268 q 688 -280 742 -317 q 664 -162 635 -243 q 793 0 690 -82 l 724 0 l 629 300 l 235 300 l 140 0 l 14 0 l 322 925 q 368 958 331 958 l 496 958 q 542 925 533 958 l 850 0 q 747 -158 775 -85 q 758 -225 726 -208 q 856 -219 789 -242 m 596 406 l 475 786 q 451 864 463 822 l 413 864 l 389 786 l 268 406 l 596 406 z "},"ą":{"ha":763,"x_min":71,"x_max":679,"o":"m 665 -219 l 679 -268 q 569 -297 617 -294 q 498 -280 521 -299 q 467 -231 475 -261 q 474 -162 458 -200 q 603 0 500 -82 l 567 0 l 553 111 q 431 25 504 63 q 274 -12 358 -12 q 126 37 181 -12 q 71 176 71 86 l 71 250 q 120 373 71 329 q 258 417 169 417 l 540 417 l 540 476 q 511 567 540 540 q 403 593 482 593 q 113 575 303 593 l 101 663 q 428 693 288 693 q 603 644 546 693 q 660 476 660 594 l 660 0 q 557 -158 585 -85 q 567 -225 536 -208 q 665 -219 599 -242 m 192 233 l 192 190 q 217 113 192 138 q 297 89 242 89 q 417 114 350 88 q 540 190 485 140 l 540 326 l 279 326 q 212 301 232 325 q 192 233 192 278 z "},"Ć":{"ha":792,"x_min":85,"x_max":742,"o":"m 661 1178 l 394 1011 l 354 1065 l 593 1269 l 661 1178 m 729 107 l 742 15 q 461 -17 626 -17 q 169 94 254 -17 q 85 479 85 206 q 169 864 85 753 q 461 975 254 975 q 722 947 610 975 l 710 854 q 461 867 585 867 q 267 783 321 867 q 214 479 214 699 q 267 176 214 260 q 461 92 321 92 q 729 107 622 92 z "},"ć":{"ha":679,"x_min":75,"x_max":628,"o":"m 588 929 l 322 761 l 281 815 l 521 1019 l 588 929 m 615 97 l 628 18 q 396 -17 528 -17 q 148 63 221 -17 q 75 339 75 143 q 148 614 75 535 q 397 693 221 693 q 615 661 531 693 l 600 585 q 417 593 508 593 q 247 539 294 593 q 200 339 200 485 q 247 138 200 192 q 417 83 294 83 q 615 97 528 83 z "},"Ċ":{"ha":792,"x_min":85,"x_max":742,"o":"m 426 1204 l 464 1204 q 500 1168 500 1204 l 500 1090 q 464 1054 500 1054 l 426 1054 q 390 1090 390 1054 l 390 1168 q 426 1204 390 1204 m 729 107 l 742 15 q 461 -17 626 -17 q 169 94 254 -17 q 85 479 85 206 q 169 864 85 753 q 461 975 254 975 q 722 947 610 975 l 710 854 q 461 867 585 867 q 267 783 321 867 q 214 479 214 699 q 267 176 214 260 q 461 92 321 92 q 729 107 622 92 z "},"ċ":{"ha":679,"x_min":75,"x_max":628,"o":"m 353 954 l 392 954 q 428 919 428 954 l 428 840 q 392 804 428 804 l 353 804 q 317 840 317 804 l 317 919 q 353 954 317 954 m 615 97 l 628 18 q 396 -17 528 -17 q 148 63 221 -17 q 75 339 75 143 q 148 614 75 535 q 397 693 221 693 q 615 661 531 693 l 600 585 q 417 593 508 593 q 247 539 294 593 q 200 339 200 485 q 247 138 200 192 q 417 83 294 83 q 615 97 528 83 z "},"Č":{"ha":792,"x_min":85,"x_max":742,"o":"m 674 1210 l 474 1033 l 419 1033 l 221 1210 l 261 1261 l 440 1140 l 451 1140 l 632 1261 l 674 1210 m 729 107 l 742 15 q 461 -17 626 -17 q 169 94 254 -17 q 85 479 85 206 q 169 864 85 753 q 461 975 254 975 q 722 947 610 975 l 710 854 q 461 867 585 867 q 267 783 321 867 q 214 479 214 699 q 267 176 214 260 q 461 92 321 92 q 729 107 622 92 z "},"č":{"ha":679,"x_min":75,"x_max":628,"o":"m 600 960 l 401 783 l 346 783 l 147 960 l 188 1011 l 368 890 l 379 890 l 558 1011 l 600 960 m 615 97 l 628 18 q 396 -17 528 -17 q 148 63 221 -17 q 75 339 75 143 q 148 614 75 535 q 397 693 221 693 q 615 661 531 693 l 600 585 q 417 593 508 593 q 247 539 294 593 q 200 339 200 485 q 247 138 200 192 q 417 83 294 83 q 615 97 528 83 z "},"Ď":{"ha":922,"x_min":121,"x_max":836,"o":"m 415 1033 l 217 1210 l 257 1261 l 438 1140 l 449 1140 l 628 1261 l 671 1210 l 471 1033 l 415 1033 m 121 0 l 121 958 q 463 971 301 971 q 753 863 669 971 q 836 479 836 756 q 753 95 836 203 q 463 -12 669 -12 q 121 0 301 -12 m 243 863 l 243 97 q 463 94 368 94 q 654 178 600 94 q 708 479 708 263 q 654 781 708 696 q 463 865 600 865 q 243 863 374 865 z "},"ď":{"ha":796,"x_min":78,"x_max":879,"o":"m 879 942 l 879 871 q 836 700 878 778 l 785 714 q 797 846 797 781 q 768 876 768 846 l 768 942 q 810 976 769 976 l 840 976 q 871 969 863 976 q 879 942 879 961 m 568 972 l 686 972 l 686 0 l 594 0 l 583 97 q 315 -17 454 -17 q 134 72 190 -17 q 78 340 78 160 q 139 613 78 533 q 333 693 200 693 q 574 631 465 693 q 568 764 568 692 l 568 972 m 568 179 l 568 553 q 361 590 435 590 q 235 539 271 590 q 199 342 199 488 q 234 141 199 196 q 354 86 269 86 q 450 106 407 86 q 568 179 493 126 z "},"Đ":{"ha":929,"x_min":31,"x_max":842,"o":"m 126 543 l 126 958 q 468 971 307 971 q 758 863 675 971 q 842 479 842 756 q 758 95 842 203 q 468 -12 675 -12 q 126 0 308 -12 l 126 475 l 31 475 l 31 543 l 126 543 m 249 475 l 249 97 q 468 94 376 94 q 660 178 607 94 q 714 479 714 261 q 660 781 714 697 q 468 865 607 865 q 249 863 379 865 l 249 543 l 460 543 l 460 475 l 249 475 z "},"đ":{"ha":789,"x_min":78,"x_max":781,"o":"m 781 796 l 686 796 l 686 0 l 594 0 l 583 97 q 315 -17 454 -17 q 134 72 190 -17 q 78 340 78 160 q 139 613 78 533 q 333 693 200 693 q 574 631 465 693 q 568 764 568 692 l 568 796 l 356 796 l 356 864 l 568 864 l 568 972 l 686 972 l 686 864 l 781 864 l 781 796 m 568 179 l 568 553 q 361 590 435 590 q 235 539 271 590 q 199 342 199 488 q 234 141 199 196 q 354 86 269 86 q 450 106 407 86 q 568 179 493 126 z "},"Ē":{"ha":778,"x_min":113,"x_max":708,"o":"m 624 1119 l 238 1119 l 238 1208 l 624 1208 l 624 1119 m 703 101 l 708 7 q 297 -1 581 -1 q 163 44 213 -1 q 113 165 114 89 l 113 793 q 163 915 114 869 q 297 960 213 960 q 708 951 581 960 l 703 856 l 318 856 q 235 764 235 856 l 235 556 l 649 556 l 649 457 l 235 457 l 235 194 q 318 101 235 101 l 703 101 z "},"ē":{"ha":746,"x_min":75,"x_max":676,"o":"m 582 842 l 194 842 l 194 929 l 582 929 l 582 842 m 515 281 l 200 281 q 257 124 210 164 q 414 83 304 83 q 649 100 529 83 l 661 21 q 399 -17 571 -17 q 149 65 224 -17 q 75 340 75 146 q 147 615 75 536 q 386 693 219 693 q 607 638 538 693 q 676 472 676 583 q 515 281 679 281 m 199 372 l 485 372 q 558 472 558 372 q 519 565 557 538 q 392 593 482 593 q 243 547 285 593 q 199 372 201 500 z "},"Ė":{"ha":778,"x_min":113,"x_max":708,"o":"m 450 1082 l 411 1082 q 375 1118 375 1082 l 375 1197 q 411 1233 375 1233 l 450 1233 q 486 1197 486 1233 l 486 1118 q 450 1082 486 1082 m 703 101 l 708 7 q 297 -1 581 -1 q 163 44 213 -1 q 113 165 114 89 l 113 793 q 163 915 114 869 q 297 960 213 960 q 708 951 581 960 l 703 856 l 318 856 q 235 764 235 856 l 235 556 l 649 556 l 649 457 l 235 457 l 235 194 q 318 101 235 101 l 703 101 z "},"ė":{"ha":746,"x_min":75,"x_max":676,"o":"m 408 804 l 369 804 q 333 840 333 804 l 333 919 q 369 954 333 954 l 408 954 q 444 919 444 954 l 444 840 q 408 804 444 804 m 515 281 l 200 281 q 257 124 210 164 q 414 83 304 83 q 649 100 529 83 l 661 21 q 399 -17 571 -17 q 149 65 224 -17 q 75 340 75 146 q 147 615 75 536 q 386 693 219 693 q 607 638 538 693 q 676 472 676 583 q 515 281 679 281 m 199 372 l 485 372 q 558 472 558 372 q 519 565 557 538 q 392 593 482 593 q 243 547 285 593 q 199 372 201 500 z "},"Ę":{"ha":778,"x_min":113,"x_max":728,"o":"m 714 -211 l 728 -261 q 547 -272 600 -308 q 522 -156 493 -235 q 647 4 550 -75 q 297 -1 535 -1 q 163 44 213 -1 q 113 165 114 89 l 113 793 q 163 915 114 869 q 297 960 213 960 q 708 951 581 960 l 703 856 l 318 856 q 235 764 235 856 l 235 556 l 649 556 l 649 457 l 235 457 l 235 194 q 318 101 235 101 l 703 101 l 708 7 q 606 -150 633 -75 q 616 -217 585 -201 q 714 -211 647 -233 z "},"ę":{"ha":746,"x_min":75,"x_max":681,"o":"m 667 -197 l 681 -247 q 499 -258 551 -294 q 475 -142 446 -221 q 576 -1 500 -71 q 399 -17 496 -17 q 149 65 224 -17 q 75 340 75 146 q 147 615 75 536 q 386 693 219 693 q 607 638 538 693 q 676 472 676 583 q 515 281 679 281 l 200 281 q 257 124 210 164 q 414 83 304 83 q 649 100 529 83 l 661 21 q 558 -136 586 -61 q 569 -203 538 -187 q 667 -197 600 -219 m 199 372 l 485 372 q 558 472 558 372 q 519 565 557 538 q 392 593 482 593 q 243 547 285 593 q 199 372 201 500 z "},"Ě":{"ha":778,"x_min":113,"x_max":708,"o":"m 404 1063 l 206 1239 l 246 1290 l 426 1168 l 438 1168 l 617 1290 l 658 1239 l 460 1063 l 404 1063 m 703 101 l 708 7 q 297 -1 581 -1 q 163 44 213 -1 q 113 165 114 89 l 113 793 q 163 915 114 869 q 297 960 213 960 q 708 951 581 960 l 703 856 l 318 856 q 235 764 235 856 l 235 556 l 649 556 l 649 457 l 235 457 l 235 194 q 318 101 235 101 l 703 101 z "},"ě":{"ha":746,"x_min":75,"x_max":676,"o":"m 363 783 l 164 960 l 204 1011 l 385 890 l 396 890 l 575 1011 l 617 960 l 418 783 l 363 783 m 515 281 l 200 281 q 257 124 210 164 q 414 83 304 83 q 649 100 529 83 l 661 21 q 399 -17 571 -17 q 149 65 224 -17 q 75 340 75 146 q 147 615 75 536 q 386 693 219 693 q 607 638 538 693 q 676 472 676 583 q 515 281 679 281 m 199 372 l 485 372 q 558 472 558 372 q 519 565 557 538 q 392 593 482 593 q 243 547 285 593 q 199 372 201 500 z "},"Ğ":{"ha":872,"x_min":86,"x_max":778,"o":"m 601 1228 l 663 1218 q 612 1086 668 1136 q 456 1036 556 1036 q 298 1086 356 1036 q 246 1218 240 1136 l 307 1228 q 345 1151 307 1178 q 456 1124 383 1124 q 563 1151 525 1124 q 601 1228 601 1178 m 689 0 l 675 101 q 389 -18 553 -18 q 158 101 229 -18 q 86 482 86 221 q 174 870 86 764 q 486 976 261 976 q 753 947 638 976 l 740 856 q 493 867 624 867 q 327 838 383 867 q 243 725 271 810 q 215 474 215 640 q 261 175 215 261 q 422 89 307 89 q 658 182 531 89 l 658 554 l 778 554 l 778 0 l 689 0 z "},"ğ":{"ha":775,"x_min":57,"x_max":744,"o":"m 524 978 l 585 968 q 533 837 590 888 q 378 786 476 786 q 220 837 278 786 q 169 968 163 888 l 229 978 q 267 901 229 928 q 378 874 306 874 q 486 901 447 874 q 524 978 525 928 m 738 611 l 638 603 q 665 478 665 557 q 600 313 665 364 q 375 263 535 263 q 235 276 297 263 q 219 206 208 244 q 282 160 231 168 l 535 119 q 667 60 629 106 q 706 -71 706 15 q 635 -235 706 -189 q 383 -281 565 -281 q 128 -235 200 -281 q 57 -75 57 -190 q 82 21 57 -15 q 167 89 107 57 q 119 196 115 129 q 172 300 124 263 q 86 476 86 346 q 151 643 86 593 q 376 693 215 693 q 533 676 472 693 l 744 676 l 738 611 m 235 381 q 255 367 235 381 q 375 353 275 353 q 515 381 475 353 q 556 478 556 410 q 516 574 556 546 q 375 603 476 603 q 235 574 275 603 q 194 478 194 546 q 235 381 194 410 m 474 32 l 243 64 q 172 -65 172 10 q 214 -158 172 -136 q 382 -181 256 -181 q 548 -158 506 -181 q 590 -65 590 -135 q 569 3 590 -15 q 474 32 547 21 z "},"Ġ":{"ha":872,"x_min":86,"x_max":778,"o":"m 474 1054 l 436 1054 q 400 1090 400 1054 l 400 1168 q 436 1204 400 1204 l 474 1204 q 510 1168 510 1204 l 510 1090 q 474 1054 510 1054 m 689 0 l 675 101 q 389 -18 553 -18 q 158 101 229 -18 q 86 482 86 221 q 174 870 86 764 q 486 976 261 976 q 753 947 638 976 l 740 856 q 493 867 624 867 q 327 838 383 867 q 243 725 271 810 q 215 474 215 640 q 261 175 215 261 q 422 89 307 89 q 658 182 531 89 l 658 554 l 778 554 l 778 0 l 689 0 z "},"ġ":{"ha":775,"x_min":57,"x_max":744,"o":"m 397 804 l 358 804 q 324 840 324 804 l 324 919 q 358 954 324 954 l 397 954 q 433 919 433 954 l 433 840 q 397 804 433 804 m 738 611 l 638 603 q 665 478 665 557 q 600 313 665 364 q 375 263 535 263 q 235 276 297 263 q 219 206 208 244 q 282 160 231 168 l 535 119 q 667 60 629 106 q 706 -71 706 15 q 635 -235 706 -189 q 383 -281 565 -281 q 128 -235 200 -281 q 57 -75 57 -190 q 82 21 57 -15 q 167 89 107 57 q 119 196 115 129 q 172 300 124 263 q 86 476 86 346 q 151 643 86 593 q 376 693 215 693 q 533 676 472 693 l 744 676 l 738 611 m 235 381 q 255 367 235 381 q 375 353 275 353 q 515 381 475 353 q 556 478 556 410 q 516 574 556 546 q 375 603 476 603 q 235 574 275 603 q 194 478 194 546 q 235 381 194 410 m 474 32 l 243 64 q 172 -65 172 10 q 214 -158 172 -136 q 382 -181 256 -181 q 548 -158 506 -181 q 590 -65 590 -135 q 569 3 590 -15 q 474 32 547 21 z "},"Ģ":{"ha":872,"x_min":86,"x_max":778,"o":"m 689 0 l 675 101 q 389 -18 553 -18 q 158 101 229 -18 q 86 482 86 221 q 174 870 86 764 q 486 976 261 976 q 753 947 638 976 l 740 856 q 493 867 624 867 q 327 838 383 867 q 243 725 271 810 q 215 474 215 640 q 261 175 215 261 q 422 89 307 89 q 658 182 531 89 l 658 554 l 778 554 l 778 0 l 689 0 m 436 -81 l 468 -81 q 499 -90 490 -81 q 507 -119 507 -99 l 507 -196 q 463 -379 506 -296 l 413 -365 q 425 -222 425 -293 q 394 -189 394 -222 l 394 -119 q 436 -81 396 -81 z "},"ģ":{"ha":775,"x_min":57,"x_max":744,"o":"m 410 774 l 378 774 q 347 782 356 774 q 339 811 339 790 l 339 888 q 383 1071 342 990 l 435 1058 q 422 915 422 996 q 451 882 451 915 l 451 811 q 410 774 450 774 m 738 611 l 638 603 q 665 478 665 557 q 600 313 665 364 q 375 263 535 263 q 235 276 297 263 q 219 206 208 244 q 282 160 231 168 l 535 119 q 667 60 629 106 q 706 -71 706 15 q 635 -235 706 -189 q 383 -281 565 -281 q 128 -235 200 -281 q 57 -75 57 -190 q 82 21 57 -15 q 167 89 107 57 q 119 196 115 129 q 172 300 124 263 q 86 476 86 346 q 151 643 86 593 q 376 693 215 693 q 533 676 472 693 l 744 676 l 738 611 m 235 381 q 255 367 235 381 q 375 353 275 353 q 515 381 475 353 q 556 478 556 410 q 516 574 556 546 q 375 603 476 603 q 235 574 275 603 q 194 478 194 546 q 235 381 194 410 m 474 32 l 243 64 q 172 -65 172 10 q 214 -158 172 -136 q 382 -181 256 -181 q 548 -158 506 -181 q 590 -65 590 -135 q 569 3 590 -15 q 474 32 547 21 z "},"Ħ":{"ha":939,"x_min":28,"x_max":910,"o":"m 910 721 l 813 721 l 813 0 l 690 0 l 690 460 l 249 460 l 249 0 l 126 0 l 126 721 l 28 721 l 28 786 l 126 786 l 126 958 l 249 958 l 249 786 l 690 786 l 690 958 l 813 958 l 813 786 l 910 786 l 910 721 m 690 721 l 249 721 l 249 565 l 690 565 l 690 721 z "},"ħ":{"ha":813,"x_min":8,"x_max":708,"o":"m 233 796 l 233 704 q 225 572 233 626 q 525 693 389 693 q 708 507 708 693 l 708 0 l 589 0 l 589 474 q 567 567 589 540 q 493 593 546 593 q 378 568 436 593 q 232 488 321 543 l 232 0 l 114 0 l 114 796 l 8 796 l 8 864 l 114 864 l 114 972 l 233 972 l 233 864 l 435 864 l 435 796 l 233 796 z "},"Ī":{"ha":364,"x_min":-11,"x_max":376,"o":"m 376 1092 l -11 1092 l -11 1179 l 376 1179 l 376 1092 m 243 0 l 121 0 l 121 958 l 243 958 l 243 0 z "},"ī":{"ha":346,"x_min":-19,"x_max":368,"o":"m 368 842 l -19 842 l -19 929 l 368 929 l 368 842 m 232 0 l 114 0 l 114 676 l 232 676 l 232 0 z "},"Į":{"ha":364,"x_min":43,"x_max":250,"o":"m 235 -219 l 250 -268 q 67 -280 121 -317 q 43 -162 14 -243 q 172 0 72 -81 l 121 0 l 121 958 l 243 958 l 243 0 l 229 0 q 126 -158 156 -87 q 137 -225 106 -208 q 235 -219 168 -242 z "},"į":{"ha":346,"x_min":31,"x_max":243,"o":"m 193 804 l 154 804 q 118 840 118 804 l 118 919 q 154 954 118 954 l 193 954 q 229 919 229 954 l 229 840 q 193 804 229 804 m 229 -219 l 243 -268 q 133 -297 181 -294 q 62 -280 85 -299 q 31 -231 39 -261 q 38 -162 22 -200 q 167 0 64 -82 l 114 0 l 114 676 l 232 676 l 232 0 l 224 0 q 121 -158 149 -85 q 131 -225 100 -208 q 229 -219 163 -242 z "},"İ":{"ha":364,"x_min":121,"x_max":243,"o":"m 163 1204 l 201 1204 q 238 1168 238 1204 l 238 1090 q 201 1054 238 1054 l 163 1054 q 126 1090 126 1054 l 126 1168 q 163 1204 126 1204 m 243 0 l 121 0 l 121 958 l 243 958 l 243 0 z "},"ı":{"ha":346,"x_min":114,"x_max":232,"o":"m 232 0 l 114 0 l 114 676 l 232 676 l 232 0 z "},"Ĳ":{"ha":836,"x_min":121,"x_max":719,"o":"m 243 0 l 121 0 l 121 958 l 243 958 l 243 0 m 719 958 l 719 201 q 672 42 719 97 q 533 -12 624 -12 q 406 6 456 -12 l 418 92 l 488 92 q 597 197 597 92 l 597 958 l 719 958 z "},"ĳ":{"ha":692,"x_min":108,"x_max":583,"o":"m 144 964 l 200 964 q 236 928 236 964 l 236 849 q 200 813 236 813 l 144 813 q 108 849 108 813 l 108 928 q 144 964 108 964 m 492 964 l 547 964 q 583 928 583 964 l 583 849 q 547 813 583 813 l 492 813 q 456 849 456 813 l 456 928 q 492 964 456 964 m 231 0 l 114 0 l 114 676 l 231 676 l 231 0 m 578 676 l 578 -17 q 543 -167 578 -97 q 449 -282 508 -236 l 382 -231 q 460 -17 460 -135 l 460 676 l 578 676 z "},"Ķ":{"ha":821,"x_min":121,"x_max":794,"o":"m 794 0 l 657 0 l 351 450 l 233 450 q 242 349 242 397 l 242 0 l 121 0 l 121 958 l 242 958 l 242 658 q 233 549 242 603 l 350 549 l 642 958 l 775 958 l 496 561 q 443 500 479 536 l 443 497 q 503 431 482 460 l 794 0 m 422 -81 l 453 -81 q 484 -90 475 -81 q 493 -119 493 -99 l 493 -196 q 449 -379 492 -292 l 397 -365 q 410 -222 410 -293 q 388 -213 396 -222 q 381 -189 379 -204 l 381 -119 q 422 -81 382 -81 z "},"ķ":{"ha":707,"x_min":108,"x_max":683,"o":"m 683 0 l 546 0 l 311 339 l 219 339 q 226 231 226 276 l 226 0 l 108 0 l 108 972 l 228 972 l 228 540 q 221 425 228 472 l 310 425 l 524 676 l 661 676 l 449 428 q 401 382 428 399 l 401 379 q 449 325 429 358 l 683 0 m 368 -81 l 400 -81 q 431 -90 422 -81 q 439 -119 439 -99 l 439 -196 q 394 -379 438 -296 l 344 -365 q 357 -222 357 -293 q 326 -189 326 -222 l 326 -119 q 368 -81 328 -81 z "},"Ĺ":{"ha":714,"x_min":90,"x_max":683,"o":"m 397 1178 l 131 1011 l 90 1065 l 329 1269 l 397 1178 m 239 958 l 239 194 q 332 103 239 103 l 678 103 l 683 8 q 313 -1 563 -1 q 118 179 118 -1 l 118 958 l 239 958 z "},"ĺ":{"ha":413,"x_min":82,"x_max":399,"o":"m 389 1208 l 122 1040 l 82 1096 l 321 1299 l 389 1208 m 228 972 l 228 186 q 250 119 226 142 q 319 96 274 96 l 385 96 l 399 6 q 275 -12 361 -12 q 154 33 199 -12 q 110 160 110 78 l 110 972 l 228 972 z "},"Ļ":{"ha":714,"x_min":118,"x_max":683,"o":"m 239 958 l 239 194 q 332 103 239 103 l 678 103 l 683 8 q 313 -1 563 -1 q 118 179 118 -1 l 118 958 l 239 958 m 396 -85 l 428 -85 q 458 -93 450 -85 q 467 -122 467 -101 l 467 -199 q 422 -382 464 -301 l 372 -368 q 385 -225 385 -296 q 354 -193 354 -225 l 354 -122 q 396 -85 356 -85 z "},"ļ":{"ha":413,"x_min":110,"x_max":399,"o":"m 228 972 l 228 186 q 250 119 226 142 q 319 96 274 96 l 385 96 l 399 6 q 275 -12 361 -12 q 154 33 199 -12 q 110 160 110 78 l 110 972 l 228 972 m 225 -85 l 256 -85 q 287 -93 278 -85 q 296 -122 296 -101 l 296 -199 q 251 -382 294 -297 l 200 -368 q 213 -225 213 -294 q 190 -216 199 -225 q 183 -193 182 -207 l 183 -122 q 225 -85 185 -85 z "},"Ľ":{"ha":714,"x_min":118,"x_max":683,"o":"m 444 960 l 475 960 q 506 951 497 960 q 515 922 515 943 l 515 846 q 471 663 514 750 l 419 676 q 432 819 432 750 q 410 828 418 819 q 403 853 401 838 l 403 922 q 444 960 404 960 m 239 958 l 239 194 q 332 103 239 103 l 678 103 l 683 8 q 313 -1 563 -1 q 118 179 118 -1 l 118 958 l 239 958 z "},"ľ":{"ha":413,"x_min":110,"x_max":421,"o":"m 351 976 l 382 976 q 413 969 404 976 q 421 942 421 961 l 421 871 q 378 700 419 778 l 328 714 q 339 846 339 774 q 310 876 310 846 l 310 942 q 351 976 311 976 m 228 972 l 228 186 q 250 119 226 142 q 319 96 274 96 l 385 96 l 399 6 q 275 -12 361 -12 q 154 33 199 -12 q 110 160 110 78 l 110 972 l 228 972 z "},"Ŀ":{"ha":714,"x_min":118,"x_max":683,"o":"m 239 958 l 239 194 q 332 103 239 103 l 678 103 l 683 8 q 313 -1 563 -1 q 118 179 118 -1 l 118 958 l 239 958 m 560 469 l 521 469 q 486 506 486 469 l 486 585 q 521 621 486 621 l 560 621 q 596 585 596 621 l 596 506 q 560 469 596 469 z "},"ŀ":{"ha":447,"x_min":110,"x_max":443,"o":"m 228 972 l 228 186 q 250 119 226 142 q 319 96 274 96 l 385 96 l 399 6 q 275 -12 361 -12 q 154 33 199 -12 q 110 160 110 78 l 110 972 l 228 972 m 407 465 l 368 465 q 332 501 332 465 l 332 581 q 368 617 332 617 l 407 617 q 443 581 443 617 l 443 501 q 407 465 443 465 z "},"Ł":{"ha":722,"x_min":28,"x_max":692,"o":"m 688 103 l 692 8 q 321 -1 571 -1 q 126 179 126 -1 l 126 465 l 28 424 l 28 500 l 126 540 l 126 958 l 249 958 l 249 592 l 408 658 l 408 583 l 249 517 l 249 194 q 270 125 249 147 q 340 103 292 103 l 688 103 z "},"ł":{"ha":456,"x_min":29,"x_max":429,"o":"m 415 96 l 429 6 q 306 -12 392 -12 q 185 33 229 -12 q 140 160 140 78 l 140 464 l 29 418 l 29 494 l 140 540 l 140 972 l 258 972 l 258 590 l 408 653 l 408 576 l 257 514 l 257 186 q 349 96 257 96 l 415 96 z "},"Ń":{"ha":979,"x_min":121,"x_max":858,"o":"m 717 1178 l 451 1011 l 410 1065 l 650 1269 l 717 1178 m 858 958 l 858 49 q 811 0 858 0 l 692 0 q 638 39 654 0 l 314 718 q 260 844 267 821 l 238 844 q 243 718 243 789 l 243 0 l 121 0 l 121 910 q 169 958 121 958 l 285 958 q 339 919 322 958 l 653 257 q 718 118 688 189 l 742 118 q 738 264 738 193 l 738 958 l 858 958 z "},"ń":{"ha":807,"x_min":108,"x_max":703,"o":"m 363 761 l 322 815 l 561 1019 l 629 929 l 363 761 m 208 676 l 217 569 q 519 693 381 693 q 703 507 703 693 l 703 0 l 585 0 l 585 474 q 563 567 585 540 q 488 593 540 593 q 376 568 432 593 q 226 486 319 543 l 226 0 l 108 0 l 108 676 l 208 676 z "},"Ņ":{"ha":979,"x_min":121,"x_max":858,"o":"m 858 958 l 858 49 q 811 0 858 0 l 692 0 q 638 39 654 0 l 314 718 q 260 844 267 821 l 238 844 q 243 718 243 789 l 243 0 l 121 0 l 121 910 q 169 958 121 958 l 285 958 q 339 919 322 958 l 653 257 q 718 118 688 189 l 742 118 q 738 264 738 193 l 738 958 l 858 958 m 457 -81 l 488 -81 q 519 -90 510 -81 q 528 -119 528 -99 l 528 -196 q 483 -379 526 -292 l 432 -365 q 444 -222 444 -293 q 422 -213 431 -222 q 415 -189 414 -204 l 415 -119 q 457 -81 417 -81 z "},"ņ":{"ha":807,"x_min":108,"x_max":703,"o":"m 208 676 l 217 569 q 519 693 381 693 q 703 507 703 693 l 703 0 l 585 0 l 585 474 q 563 567 585 540 q 488 593 540 593 q 376 568 432 593 q 226 486 319 543 l 226 0 l 108 0 l 108 676 l 208 676 m 389 -81 l 421 -81 q 451 -90 443 -81 q 460 -119 460 -99 l 460 -196 q 415 -379 458 -292 l 364 -365 q 376 -222 376 -293 q 354 -213 363 -222 q 347 -189 346 -204 l 347 -119 q 389 -81 349 -81 z "},"Ň":{"ha":979,"x_min":121,"x_max":858,"o":"m 729 1210 l 531 1033 l 475 1033 l 276 1210 l 317 1261 l 497 1140 l 508 1140 l 688 1261 l 729 1210 m 858 958 l 858 49 q 811 0 858 0 l 692 0 q 638 39 654 0 l 314 718 q 260 844 267 821 l 238 844 q 243 718 243 789 l 243 0 l 121 0 l 121 910 q 169 958 121 958 l 285 958 q 339 919 322 958 l 653 257 q 718 118 688 189 l 742 118 q 738 264 738 193 l 738 958 l 858 958 z "},"ň":{"ha":807,"x_min":108,"x_max":703,"o":"m 386 783 l 189 960 l 229 1011 l 408 890 l 419 890 l 600 1011 l 642 960 l 442 783 l 386 783 m 208 676 l 217 569 q 519 693 381 693 q 703 507 703 693 l 703 0 l 585 0 l 585 474 q 563 567 585 540 q 488 593 540 593 q 376 568 432 593 q 226 486 319 543 l 226 0 l 108 0 l 108 676 l 208 676 z "},"Ŋ":{"ha":979,"x_min":121,"x_max":858,"o":"m 858 958 l 858 -110 q 808 -251 858 -201 q 671 -300 758 -301 q 549 -283 599 -300 l 561 -206 l 629 -206 q 743 -100 743 -206 l 743 0 l 694 0 q 658 35 675 0 l 314 697 q 257 825 289 746 l 238 825 q 243 696 243 782 l 243 0 l 121 0 l 121 910 q 169 958 121 958 l 263 958 q 318 919 297 958 l 653 278 q 718 139 679 226 l 742 139 q 736 281 736 233 l 736 958 l 858 958 z "},"ŋ":{"ha":807,"x_min":108,"x_max":703,"o":"m 200 676 l 211 565 q 518 693 374 693 q 703 507 703 693 l 703 -94 q 659 -237 703 -187 q 531 -285 615 -286 q 411 -267 472 -285 l 425 -192 l 485 -192 q 585 -85 585 -192 l 585 474 q 562 559 585 533 q 485 585 539 585 q 226 486 392 585 l 226 0 l 108 0 l 108 676 l 200 676 z "},"Ō":{"ha":928,"x_min":85,"x_max":842,"o":"m 657 1092 l 269 1092 l 269 1179 l 657 1179 l 657 1092 m 169 867 q 211 922 169 867 q 464 976 253 976 q 758 867 675 976 q 842 479 842 758 q 758 91 842 200 q 464 -18 675 -18 q 169 91 253 -18 q 85 479 85 200 q 169 867 85 758 m 660 783 q 633 825 660 783 q 464 867 606 867 q 268 783 322 867 q 214 479 214 699 q 268 176 214 260 q 464 92 322 92 q 660 176 606 92 q 714 479 714 260 q 660 783 714 699 z "},"ō":{"ha":789,"x_min":76,"x_max":713,"o":"m 588 842 l 200 842 l 200 929 l 588 929 l 588 842 m 394 693 q 641 613 569 693 q 713 338 713 532 q 641 63 713 143 q 394 -18 569 -18 q 149 63 221 -18 q 76 338 76 143 q 149 613 76 532 q 394 693 221 693 m 548 539 q 527 566 548 539 q 394 593 506 593 q 242 539 283 593 q 200 338 200 485 q 242 136 200 190 q 394 82 283 82 q 548 136 506 82 q 590 338 590 190 q 548 539 590 485 z "},"Ő":{"ha":928,"x_min":85,"x_max":842,"o":"m 747 1225 l 561 1003 l 508 1042 l 661 1283 l 747 1225 m 519 1225 l 333 1003 l 281 1042 l 433 1283 l 519 1225 m 169 867 q 211 922 169 867 q 464 976 253 976 q 758 867 675 976 q 842 479 842 758 q 758 91 842 200 q 464 -18 675 -18 q 169 91 253 -18 q 85 479 85 200 q 169 867 85 758 m 660 783 q 633 825 660 783 q 464 867 606 867 q 268 783 322 867 q 214 479 214 699 q 268 176 214 260 q 464 92 322 92 q 660 176 606 92 q 714 479 714 260 q 660 783 714 699 z "},"ő":{"ha":789,"x_min":76,"x_max":713,"o":"m 678 975 l 492 753 l 439 793 l 592 1033 l 678 975 m 450 975 l 263 753 l 211 793 l 364 1033 l 450 975 m 394 693 q 641 613 569 693 q 713 338 713 532 q 641 63 713 143 q 394 -18 569 -18 q 149 63 221 -18 q 76 338 76 143 q 149 613 76 532 q 394 693 221 693 m 548 539 q 527 566 548 539 q 394 593 506 593 q 242 539 283 593 q 200 338 200 485 q 242 136 200 190 q 394 82 283 82 q 548 136 506 82 q 590 338 590 190 q 548 539 590 485 z "},"Œ":{"ha":1268,"x_min":85,"x_max":1197,"o":"m 1193 101 l 1197 7 q 786 -1 1069 -1 q 690 28 731 -1 q 464 -18 586 -18 q 169 91 253 -18 q 85 479 85 200 q 169 867 85 758 q 464 976 253 976 q 697 932 589 976 q 796 960 740 960 q 1197 951 1072 960 l 1193 856 l 836 856 q 743 764 743 856 l 743 556 l 1138 556 l 1138 456 l 743 456 l 743 194 q 765 124 743 146 q 836 101 788 101 l 1193 101 m 621 179 l 621 779 q 632 846 621 813 q 464 867 549 867 q 268 783 322 867 q 214 479 214 700 q 268 176 214 260 q 464 92 322 92 q 631 114 560 92 q 621 179 621 142 z "},"œ":{"ha":1260,"x_min":76,"x_max":1192,"o":"m 981 286 l 714 286 q 770 125 722 167 q 929 83 818 83 q 1163 100 1043 83 l 1174 21 q 911 -17 1085 -17 q 653 76 724 -17 q 394 -18 582 -18 q 149 63 221 -18 q 76 338 76 143 q 149 613 76 532 q 394 693 221 693 q 650 603 579 693 q 893 693 717 693 q 1192 485 1189 693 q 1144 329 1192 372 q 981 286 1096 286 m 713 374 l 974 374 q 1053 399 1031 374 q 1072 486 1075 424 q 896 593 1067 593 q 756 545 796 593 q 713 374 715 497 m 394 82 q 543 131 500 82 q 590 307 586 179 l 589 343 l 589 374 q 542 546 585 499 q 394 593 500 593 q 242 539 283 593 q 200 338 200 485 q 242 136 200 190 q 394 82 283 82 z "},"Ŕ":{"ha":858,"x_min":121,"x_max":796,"o":"m 371 1011 l 329 1065 l 569 1269 l 636 1178 l 371 1011 m 796 0 l 665 0 l 581 300 q 532 377 563 354 q 453 400 501 400 q 334 401 404 400 q 242 401 264 401 l 242 0 l 121 0 l 121 958 q 451 971 238 971 q 692 912 622 971 q 761 694 761 853 q 720 518 761 576 q 585 447 679 460 l 585 440 q 656 395 624 431 q 703 303 688 360 l 796 0 m 242 506 l 449 506 q 597 544 557 507 q 638 688 638 582 q 597 828 638 792 q 449 865 557 865 q 242 864 296 865 l 242 506 z "},"ŕ":{"ha":557,"x_min":108,"x_max":532,"o":"m 265 761 l 225 815 l 464 1019 l 532 929 l 265 761 m 532 693 l 518 582 l 479 582 q 373 562 428 582 q 226 496 318 542 l 226 0 l 108 0 l 108 676 l 200 676 l 213 569 q 501 693 369 693 l 532 693 z "},"Ŗ":{"ha":858,"x_min":121,"x_max":796,"o":"m 796 0 l 665 0 l 581 300 q 532 377 563 354 q 453 400 501 400 q 334 401 404 400 q 242 401 264 401 l 242 0 l 121 0 l 121 958 q 451 971 238 971 q 692 912 622 971 q 761 694 761 853 q 720 518 761 576 q 585 447 679 460 l 585 440 q 656 395 624 431 q 703 303 688 360 l 796 0 m 242 506 l 449 506 q 597 544 557 507 q 638 688 638 582 q 597 828 638 792 q 449 865 557 865 q 242 864 296 865 l 242 506 m 440 -81 l 472 -81 q 503 -90 494 -81 q 511 -119 511 -99 l 511 -196 q 467 -379 510 -296 l 417 -365 q 429 -222 429 -293 q 399 -189 399 -222 l 399 -119 q 440 -81 400 -81 z "},"ŗ":{"ha":557,"x_min":100,"x_max":532,"o":"m 532 693 l 518 582 l 479 582 q 373 562 428 582 q 226 496 318 542 l 226 0 l 108 0 l 108 676 l 200 676 l 213 569 q 501 693 369 693 l 532 693 m 142 -81 l 174 -81 q 204 -90 196 -81 q 213 -119 213 -99 l 213 -196 q 168 -379 211 -292 l 117 -365 q 129 -222 129 -293 q 107 -213 115 -222 q 100 -189 99 -204 l 100 -119 q 142 -81 101 -81 z "},"Ř":{"ha":858,"x_min":121,"x_max":796,"o":"m 394 1033 l 196 1210 l 236 1261 l 417 1140 l 428 1140 l 607 1261 l 649 1210 l 450 1033 l 394 1033 m 796 0 l 665 0 l 581 300 q 532 377 563 354 q 453 400 501 400 q 334 401 404 400 q 242 401 264 401 l 242 0 l 121 0 l 121 958 q 451 971 238 971 q 692 912 622 971 q 761 694 761 853 q 720 518 761 576 q 585 447 679 460 l 585 440 q 656 395 624 431 q 703 303 688 360 l 796 0 m 242 506 l 449 506 q 597 544 557 507 q 638 688 638 582 q 597 828 638 792 q 449 865 557 865 q 242 864 296 865 l 242 506 z "},"ř":{"ha":557,"x_min":92,"x_max":544,"o":"m 290 783 l 92 960 l 132 1011 l 311 890 l 322 890 l 503 1011 l 544 960 l 344 783 l 290 783 m 200 676 l 213 569 q 501 693 369 693 l 532 693 l 518 582 l 479 582 q 373 562 428 582 q 226 496 318 542 l 226 0 l 108 0 l 108 676 l 200 676 z "},"Ś":{"ha":779,"x_min":76,"x_max":708,"o":"m 603 1178 l 336 1011 l 296 1065 l 535 1269 l 603 1178 m 464 406 l 265 456 q 120 545 164 481 q 76 722 76 610 q 94 856 76 806 q 153 933 111 907 q 248 967 196 958 q 388 975 300 975 q 672 947 557 972 l 664 858 q 393 865 529 865 q 303 863 332 865 q 246 846 274 860 q 209 802 218 832 q 200 719 200 772 q 227 611 200 643 q 321 563 254 579 l 515 514 q 665 424 622 488 q 708 244 708 360 q 637 35 708 86 q 388 -17 565 -17 q 90 10 236 -17 l 99 100 q 392 93 332 92 q 545 122 506 93 q 585 247 585 151 q 558 358 585 326 q 464 406 531 389 z "},"ś":{"ha":706,"x_min":69,"x_max":638,"o":"m 575 929 l 308 761 l 268 815 l 507 1019 l 575 929 m 417 274 l 222 318 q 104 381 139 338 q 69 507 69 424 q 128 658 69 619 q 333 693 188 696 q 618 672 496 690 l 608 586 q 351 593 397 593 q 217 581 249 594 q 185 507 185 567 q 206 440 185 458 q 283 410 228 422 l 481 365 q 601 303 564 344 q 638 179 638 263 q 572 23 638 61 q 349 -15 507 -15 q 83 4 207 -15 l 92 90 q 325 85 210 83 q 483 103 443 85 q 524 179 524 121 q 499 242 524 225 q 417 274 475 260 z "},"Ş":{"ha":779,"x_min":76,"x_max":708,"o":"m 464 406 l 265 456 q 120 545 164 481 q 76 722 76 610 q 94 856 76 806 q 153 933 111 907 q 248 967 196 958 q 388 975 300 975 q 672 947 557 972 l 664 858 q 393 865 529 865 q 303 863 332 865 q 246 846 274 860 q 209 802 218 832 q 200 719 200 772 q 227 611 200 643 q 321 563 254 579 l 515 514 q 665 424 622 488 q 708 244 708 360 q 637 35 708 86 q 388 -17 565 -17 q 90 10 236 -17 l 99 100 q 392 93 332 92 q 545 122 506 93 q 585 247 585 151 q 558 358 585 326 q 464 406 531 389 m 322 -132 l 335 -76 q 455 -87 419 -68 q 489 -167 490 -106 q 422 -301 488 -254 q 257 -335 357 -347 l 275 -272 q 366 -247 331 -274 q 404 -175 401 -219 q 388 -141 404 -150 q 322 -132 371 -132 z "},"ş":{"ha":706,"x_min":69,"x_max":638,"o":"m 417 274 l 222 318 q 104 381 139 338 q 69 507 69 424 q 128 658 69 619 q 333 693 188 696 q 618 672 496 690 l 608 586 q 351 593 397 593 q 217 581 249 594 q 185 507 185 567 q 206 440 185 458 q 283 410 228 422 l 481 365 q 601 303 564 344 q 638 179 638 263 q 572 23 638 61 q 349 -15 507 -15 q 83 4 207 -15 l 92 90 q 325 85 210 83 q 483 103 443 85 q 524 179 524 121 q 499 242 524 225 q 417 274 475 260 m 274 -131 l 286 -75 q 406 -86 371 -67 q 440 -165 442 -106 q 374 -300 439 -253 q 208 -333 308 -347 l 226 -271 q 319 -245 283 -272 q 356 -175 354 -218 q 340 -141 357 -150 q 274 -131 324 -132 z "},"Š":{"ha":779,"x_min":76,"x_max":708,"o":"m 615 1210 l 415 1033 l 361 1033 l 163 1210 l 203 1261 l 382 1140 l 393 1140 l 574 1261 l 615 1210 m 464 406 l 265 456 q 120 545 164 481 q 76 722 76 610 q 94 856 76 806 q 153 933 111 907 q 248 967 196 958 q 388 975 300 975 q 672 947 557 972 l 664 858 q 393 865 529 865 q 303 863 332 865 q 246 846 274 860 q 209 802 218 832 q 200 719 200 772 q 227 611 200 643 q 321 563 254 579 l 515 514 q 665 424 622 488 q 708 244 708 360 q 637 35 708 86 q 388 -17 565 -17 q 90 10 236 -17 l 99 100 q 392 93 332 92 q 545 122 506 93 q 585 247 585 151 q 558 358 585 326 q 464 406 531 389 z "},"š":{"ha":706,"x_min":69,"x_max":638,"o":"m 588 960 l 388 783 l 332 783 l 133 960 l 174 1011 l 354 890 l 365 890 l 544 1011 l 588 960 m 417 274 l 222 318 q 104 381 139 338 q 69 507 69 424 q 128 658 69 619 q 333 693 188 696 q 618 672 496 690 l 608 586 q 351 593 397 593 q 217 581 249 594 q 185 507 185 567 q 206 440 185 458 q 283 410 228 422 l 481 365 q 601 303 564 344 q 638 179 638 263 q 572 23 638 61 q 349 -15 507 -15 q 83 4 207 -15 l 92 90 q 325 85 210 83 q 483 103 443 85 q 524 179 524 121 q 499 242 524 225 q 417 274 475 260 z "},"Ţ":{"ha":807,"x_min":33,"x_max":774,"o":"m 774 958 l 774 850 l 464 850 l 464 0 l 342 0 l 342 850 l 33 850 l 33 958 l 774 958 m 326 -115 l 339 -60 q 460 -72 424 -53 q 494 -150 496 -90 q 426 -285 492 -239 q 261 -318 361 -332 l 281 -256 q 372 -230 336 -257 q 408 -160 407 -203 q 393 -126 410 -135 q 326 -115 376 -117 z "},"ţ":{"ha":529,"x_min":38,"x_max":493,"o":"m 278 583 l 278 186 q 299 117 278 138 q 369 96 319 96 l 472 96 l 486 6 q 333 -12 422 -12 q 204 35 249 -12 q 160 171 160 82 l 160 583 l 38 583 l 38 669 l 160 675 l 160 876 l 278 876 l 278 676 l 493 676 l 493 583 l 278 583 m 226 -128 l 239 -72 q 360 -83 324 -64 q 394 -162 396 -103 q 326 -297 392 -250 q 161 -331 261 -344 l 181 -268 q 272 -242 236 -269 q 308 -172 307 -215 q 293 -138 310 -147 q 226 -128 276 -129 z "},"Ť":{"ha":807,"x_min":33,"x_max":774,"o":"m 376 1033 l 178 1210 l 218 1261 l 399 1140 l 410 1140 l 589 1261 l 632 1210 l 432 1033 l 376 1033 m 774 850 l 464 850 l 464 0 l 342 0 l 342 850 l 33 850 l 33 958 l 774 958 l 774 850 z "},"ť":{"ha":529,"x_min":38,"x_max":493,"o":"m 440 774 l 390 788 q 401 929 401 850 q 372 963 372 929 l 372 1033 q 414 1071 374 1071 l 446 1071 q 476 1063 468 1071 q 485 1033 485 1054 l 485 957 q 440 774 482 854 m 278 583 l 278 186 q 299 117 278 138 q 369 96 319 96 l 472 96 l 486 6 q 333 -12 422 -12 q 204 35 249 -12 q 160 171 160 82 l 160 583 l 38 583 l 38 669 l 160 675 l 160 876 l 278 876 l 278 676 l 493 676 l 493 583 l 278 583 z "},"Ŧ":{"ha":807,"x_min":33,"x_max":774,"o":"m 464 850 l 464 585 l 658 585 l 658 515 l 464 515 l 464 0 l 342 0 l 342 515 l 146 515 l 146 585 l 342 585 l 342 850 l 33 850 l 33 958 l 774 958 l 774 850 l 464 850 z "},"ŧ":{"ha":529,"x_min":38,"x_max":493,"o":"m 278 583 l 278 451 l 458 451 l 458 385 l 278 385 l 278 186 q 299 117 278 138 q 369 96 319 96 l 472 96 l 486 6 q 333 -12 422 -12 q 204 35 249 -12 q 160 171 160 82 l 160 385 l 69 385 l 69 451 l 160 451 l 160 583 l 38 583 l 38 669 l 160 675 l 160 876 l 278 876 l 278 676 l 493 676 l 493 583 l 278 583 z "},"Ū":{"ha":925,"x_min":114,"x_max":811,"o":"m 658 1092 l 271 1092 l 271 1179 l 658 1179 l 658 1092 m 811 958 l 811 367 q 733 69 811 157 q 468 -18 656 -18 q 194 69 274 -18 q 114 367 114 157 l 114 958 l 236 958 l 236 367 q 286 152 236 213 q 463 92 336 92 q 638 152 588 92 q 689 367 689 213 l 689 958 l 811 958 z "},"ū":{"ha":792,"x_min":104,"x_max":683,"o":"m 593 847 l 206 847 l 206 935 l 593 935 l 593 847 m 683 676 l 683 0 l 589 0 l 581 97 q 289 -18 428 -18 q 104 168 104 -18 l 104 676 l 222 676 l 222 201 q 246 111 221 138 q 329 85 271 85 q 433 108 381 85 q 565 182 486 131 l 565 676 l 683 676 z "},"Ů":{"ha":925,"x_min":114,"x_max":811,"o":"m 359 1241 q 381 1262 359 1241 q 464 1283 403 1283 q 569 1241 525 1283 q 613 1138 613 1199 q 569 1035 613 1076 q 464 993 526 993 q 358 1035 401 993 q 315 1138 315 1076 q 359 1241 315 1199 m 524 1199 q 512 1211 524 1199 q 464 1224 500 1224 q 405 1200 428 1224 q 382 1138 382 1176 q 406 1076 382 1100 q 464 1053 429 1053 q 524 1076 500 1053 q 547 1138 547 1100 q 524 1199 547 1175 m 811 958 l 811 367 q 733 69 811 157 q 468 -18 656 -18 q 194 69 274 -18 q 114 367 114 157 l 114 958 l 236 958 l 236 367 q 286 152 236 213 q 463 92 336 92 q 638 152 588 92 q 689 367 689 213 l 689 958 l 811 958 z "},"ů":{"ha":792,"x_min":104,"x_max":683,"o":"m 504 789 q 483 768 504 789 q 399 747 461 747 q 293 789 336 747 q 250 893 250 831 q 294 997 250 954 q 399 1039 338 1039 q 503 997 460 1039 q 547 893 547 954 q 504 789 547 831 m 458 954 q 447 966 458 954 q 399 978 435 978 q 340 954 363 978 q 317 893 317 931 q 340 832 317 856 q 399 808 364 808 q 458 832 435 808 q 482 893 482 856 q 458 954 482 931 m 683 676 l 683 0 l 589 0 l 581 97 q 289 -18 428 -18 q 104 168 104 -18 l 104 676 l 222 676 l 222 201 q 246 111 221 138 q 329 85 271 85 q 433 108 381 85 q 565 182 486 131 l 565 676 l 683 676 z "},"Ű":{"ha":925,"x_min":114,"x_max":811,"o":"m 749 1225 l 561 1003 l 510 1042 l 663 1283 l 749 1225 m 521 1225 l 333 1003 l 281 1042 l 435 1283 l 521 1225 m 811 958 l 811 367 q 733 69 811 157 q 468 -18 656 -18 q 194 69 274 -18 q 114 367 114 157 l 114 958 l 236 958 l 236 367 q 286 152 236 213 q 463 92 336 92 q 638 152 588 92 q 689 367 689 213 l 689 958 l 811 958 z "},"ű":{"ha":792,"x_min":104,"x_max":683,"o":"m 444 797 l 597 1039 l 683 979 l 496 758 l 444 797 m 268 758 l 217 797 l 369 1039 l 456 979 l 268 758 m 683 676 l 683 0 l 589 0 l 581 97 q 289 -18 428 -18 q 104 168 104 -18 l 104 676 l 222 676 l 222 201 q 246 111 221 138 q 329 85 271 85 q 433 108 381 85 q 565 182 486 131 l 565 676 l 683 676 z "},"Ų":{"ha":925,"x_min":114,"x_max":811,"o":"m 811 958 l 811 367 q 744 82 811 171 q 517 -17 676 -7 q 417 -171 444 -99 q 427 -237 396 -221 q 525 -232 458 -254 l 539 -281 q 358 -292 411 -329 q 333 -175 304 -256 q 457 -18 361 -96 q 192 73 269 -15 q 114 367 114 161 l 114 958 l 236 958 l 236 367 q 286 152 236 213 q 463 92 336 92 q 638 152 588 92 q 689 367 689 213 l 689 958 l 811 958 z "},"ų":{"ha":792,"x_min":104,"x_max":707,"o":"m 692 -219 l 707 -268 q 524 -280 578 -317 q 500 -162 471 -243 q 629 0 529 -81 l 589 0 l 581 97 q 289 -18 428 -18 q 104 168 104 -18 l 104 676 l 222 676 l 222 201 q 246 111 221 138 q 329 85 271 85 q 433 108 381 85 q 565 182 486 131 l 565 676 l 683 676 l 683 0 l 686 0 q 583 -158 613 -87 q 594 -225 563 -208 q 692 -219 625 -242 z "},"Ŵ":{"ha":1317,"x_min":43,"x_max":1274,"o":"m 886 1067 l 844 1017 l 664 1151 l 653 1151 l 474 1017 l 433 1067 l 615 1244 l 701 1244 l 886 1067 m 1274 958 l 1079 36 q 1031 0 1069 0 l 892 0 q 844 38 851 0 l 694 758 q 672 867 686 794 l 643 867 l 622 758 l 474 38 q 425 0 464 0 l 285 0 q 253 10 267 0 q 238 36 240 21 l 43 958 l 172 958 l 322 211 q 342 93 325 199 l 374 93 q 396 211 385 158 l 544 918 q 592 958 551 958 l 725 958 q 772 918 763 958 l 921 211 q 940 93 935 143 l 975 93 q 993 210 988 176 l 1144 958 l 1274 958 z "},"ŵ":{"ha":1144,"x_min":35,"x_max":1110,"o":"m 799 818 l 757 767 l 578 903 l 567 903 l 386 767 l 347 818 l 529 994 l 615 994 l 799 818 m 1110 676 l 913 33 q 867 0 904 0 l 760 0 q 730 10 743 0 q 714 38 717 21 l 603 497 q 592 552 599 517 q 581 604 585 588 l 564 604 l 540 497 l 431 38 q 383 0 421 0 l 278 0 q 232 33 240 0 l 35 676 l 157 676 l 297 178 q 319 76 310 135 l 338 76 l 363 178 l 475 639 q 519 676 482 676 l 626 676 q 671 638 661 676 l 782 178 q 793 128 785 163 q 806 76 801 94 l 824 76 q 833 120 825 83 q 847 178 840 157 l 988 676 l 1110 676 z "},"Ŷ":{"ha":790,"x_min":15,"x_max":774,"o":"m 208 1017 l 168 1068 l 351 1244 l 438 1244 l 621 1068 l 579 1017 l 400 1153 l 389 1153 l 208 1017 m 456 336 l 456 0 l 333 0 l 333 338 l 15 958 l 146 958 l 347 554 q 390 446 364 521 l 400 446 q 443 553 422 507 l 644 958 l 774 958 l 456 336 z "},"ŷ":{"ha":735,"x_min":25,"x_max":708,"o":"m 185 767 l 144 818 l 328 994 l 413 994 l 597 818 l 556 767 l 375 903 l 364 903 l 185 767 m 708 676 l 438 -37 q 142 -286 349 -276 l 131 -208 q 255 -140 210 -183 q 328 -29 300 -96 l 339 0 l 313 0 q 271 31 279 0 l 25 676 l 151 676 l 331 172 q 356 90 350 115 l 375 90 q 404 172 386 118 l 581 676 l 708 676 z "},"Ÿ":{"ha":790,"x_min":15,"x_max":774,"o":"m 292 1065 l 251 1065 q 219 1099 219 1065 l 219 1175 q 251 1208 219 1208 l 292 1208 q 324 1175 324 1208 l 324 1099 q 292 1065 324 1065 m 538 1065 l 497 1065 q 465 1099 465 1065 l 465 1175 q 497 1208 465 1208 l 538 1208 q 571 1175 571 1208 l 571 1099 q 538 1065 571 1065 m 456 336 l 456 0 l 333 0 l 333 338 l 15 958 l 146 958 l 347 554 q 390 446 364 521 l 400 446 q 443 553 422 507 l 644 958 l 774 958 l 456 336 z "},"Ź":{"ha":786,"x_min":67,"x_max":721,"o":"m 346 1011 l 306 1065 l 544 1269 l 613 1178 l 346 1011 m 721 104 l 721 0 l 67 0 l 67 104 l 578 854 l 75 854 l 75 958 l 711 958 l 711 854 l 203 104 l 721 104 z "},"ź":{"ha":708,"x_min":68,"x_max":640,"o":"m 304 761 l 264 815 l 503 1019 l 569 929 l 304 761 m 640 96 l 640 0 l 68 0 l 68 96 l 503 579 l 72 579 l 72 676 l 636 676 l 636 579 l 200 96 l 640 96 z "},"Ż":{"ha":786,"x_min":67,"x_max":721,"o":"m 415 1054 l 378 1054 q 342 1090 342 1054 l 342 1168 q 378 1204 342 1204 l 415 1204 q 451 1168 451 1204 l 451 1090 q 415 1054 451 1054 m 721 104 l 721 0 l 67 0 l 67 104 l 578 854 l 75 854 l 75 958 l 711 958 l 711 854 l 203 104 l 721 104 z "},"ż":{"ha":708,"x_min":68,"x_max":640,"o":"m 374 804 l 335 804 q 299 840 299 804 l 299 919 q 335 954 299 954 l 374 954 q 410 919 410 954 l 410 840 q 374 804 410 804 m 640 96 l 640 0 l 68 0 l 68 96 l 503 579 l 72 579 l 72 676 l 636 676 l 636 579 l 200 96 l 640 96 z "},"Ž":{"ha":786,"x_min":67,"x_max":721,"o":"m 371 1033 l 172 1210 l 213 1261 l 392 1140 l 403 1140 l 583 1261 l 625 1210 l 425 1033 l 371 1033 m 721 104 l 721 0 l 67 0 l 67 104 l 578 854 l 75 854 l 75 958 l 711 958 l 711 854 l 203 104 l 721 104 z "},"ž":{"ha":708,"x_min":68,"x_max":640,"o":"m 328 783 l 129 960 l 169 1011 l 350 890 l 361 890 l 540 1011 l 582 960 l 383 783 l 328 783 m 640 96 l 640 0 l 68 0 l 68 96 l 503 579 l 72 579 l 72 676 l 636 676 l 636 579 l 200 96 l 640 96 z "},"ƒ":{"ha":614,"x_min":-64,"x_max":594,"o":"m 579 875 l 481 875 q 389 851 417 875 q 356 761 361 828 l 336 553 l 535 553 l 525 460 l 326 460 l 283 -6 q 226 -153 275 -103 q 78 -203 178 -203 q -64 -193 -10 -203 l -49 -104 l 44 -104 q 133 -78 106 -104 q 165 8 160 -53 l 208 460 l 72 460 l 78 547 l 217 553 l 238 775 q 453 972 256 972 q 594 964 550 972 l 579 875 z "},"Ș":{"ha":779,"x_min":76,"x_max":708,"o":"m 464 406 l 265 456 q 120 545 164 481 q 76 722 76 610 q 94 856 76 806 q 153 933 111 907 q 248 967 196 958 q 388 975 300 975 q 672 947 557 972 l 664 858 q 393 865 529 865 q 303 863 332 865 q 246 846 274 860 q 209 802 218 832 q 200 719 200 772 q 227 611 200 643 q 321 563 254 579 l 515 514 q 665 424 622 488 q 708 244 708 360 q 637 35 708 86 q 388 -17 565 -17 q 90 10 236 -17 l 99 100 q 392 93 332 92 q 545 122 506 93 q 585 247 585 151 q 558 358 585 326 q 464 406 531 389 m 382 -81 l 413 -81 q 444 -90 435 -81 q 453 -119 453 -99 l 453 -196 q 408 -379 451 -292 l 357 -365 q 369 -222 369 -293 q 340 -189 338 -222 l 340 -119 q 382 -81 342 -81 z "},"ș":{"ha":706,"x_min":69,"x_max":638,"o":"m 417 274 l 222 318 q 104 381 139 338 q 69 507 69 424 q 128 658 69 619 q 333 693 188 696 q 618 672 496 690 l 608 586 q 351 593 397 593 q 217 581 249 594 q 185 507 185 567 q 206 440 185 458 q 283 410 228 422 l 481 365 q 601 303 564 344 q 638 179 638 263 q 572 23 638 61 q 349 -15 507 -15 q 83 4 207 -15 l 92 90 q 325 85 210 83 q 483 103 443 85 q 524 179 524 121 q 499 242 524 225 q 417 274 475 260 m 346 -81 l 378 -81 q 408 -90 400 -81 q 417 -119 417 -99 l 417 -196 q 374 -379 415 -294 l 322 -365 q 335 -222 335 -293 q 306 -189 303 -222 l 306 -119 q 346 -81 307 -81 z "},"Ț":{"ha":807,"x_min":33,"x_max":774,"o":"m 774 850 l 464 850 l 464 0 l 342 0 l 342 850 l 33 850 l 33 958 l 774 958 l 774 850 m 372 -81 l 404 -81 q 435 -90 426 -81 q 443 -119 443 -99 l 443 -196 q 399 -379 442 -296 l 349 -365 q 360 -222 360 -300 q 331 -189 331 -222 l 331 -119 q 372 -81 332 -81 z "},"ț":{"ha":529,"x_min":38,"x_max":493,"o":"m 278 583 l 278 186 q 299 117 278 138 q 369 96 319 96 l 472 96 l 486 6 q 333 -12 422 -12 q 204 35 249 -12 q 160 171 160 82 l 160 583 l 38 583 l 38 669 l 160 675 l 160 876 l 278 876 l 278 676 l 493 676 l 493 583 l 278 583 m 303 -81 l 335 -81 q 365 -90 357 -81 q 374 -119 374 -99 l 374 -196 q 331 -379 372 -294 l 279 -365 q 292 -222 292 -293 q 263 -189 260 -222 l 263 -119 q 303 -81 264 -81 z "},"ˆ":{"ha":583,"x_min":67,"x_max":519,"o":"m 519 814 l 478 763 l 299 897 l 288 897 l 107 763 l 67 814 l 250 990 l 335 990 l 519 814 z "},"ˇ":{"ha":583,"x_min":67,"x_max":519,"o":"m 519 956 l 321 778 l 265 778 l 67 956 l 107 1006 l 288 885 l 299 885 l 478 1006 l 519 956 z "},"˘":{"ha":521,"x_min":53,"x_max":469,"o":"m 408 967 l 469 958 q 418 826 475 876 q 261 775 361 775 q 104 826 161 775 q 53 958 47 876 l 114 967 q 151 890 113 918 q 263 863 190 863 q 369 890 331 863 q 408 967 408 918 z "},"˙":{"ha":307,"x_min":99,"x_max":208,"o":"m 135 951 l 172 951 q 208 917 208 951 l 208 838 q 172 801 208 801 l 135 801 q 99 838 99 801 l 99 917 q 135 951 99 951 z "},"˚":{"ha":417,"x_min":60,"x_max":357,"o":"m 103 988 q 125 1009 103 988 q 208 1031 147 1031 q 313 988 269 1031 q 357 885 357 946 q 314 781 357 822 q 208 739 271 739 q 103 781 146 739 q 60 885 60 822 q 103 988 60 946 m 268 946 q 256 958 268 946 q 208 969 244 969 q 149 946 172 969 q 126 885 126 922 q 150 823 126 846 q 208 800 174 800 q 268 823 244 800 q 292 885 292 846 q 268 946 292 922 z "},"˛":{"ha":350,"x_min":67,"x_max":272,"o":"m 200 3 l 253 0 q 150 -158 178 -85 q 160 -225 129 -208 q 258 -219 192 -242 l 272 -268 q 91 -280 144 -317 q 67 -162 38 -243 q 200 3 94 -81 z "},"˜":{"ha":583,"x_min":72,"x_max":511,"o":"m 128 813 l 72 813 q 95 934 64 893 q 181 971 126 975 q 288 933 225 967 q 388 894 350 899 q 441 906 426 889 q 456 964 456 922 l 511 964 q 489 846 519 888 q 403 808 458 804 q 287 848 351 813 q 193 888 222 883 q 142 874 156 892 q 128 813 128 856 z "},"˝":{"ha":632,"x_min":78,"x_max":544,"o":"m 544 960 l 358 739 l 307 778 l 458 1019 l 544 960 m 317 960 l 131 739 l 78 778 l 231 1019 l 317 960 z "},"Δ":{"ha":869,"x_min":35,"x_max":835,"o":"m 835 51 l 835 0 l 35 0 l 35 51 l 374 958 l 496 958 l 835 51 m 692 100 l 467 732 q 436 840 461 747 q 403 731 408 747 l 175 100 l 692 100 z "},"Ω":{"ha":999,"x_min":72,"x_max":926,"o":"m 72 107 l 217 107 q 308 99 269 107 q 153 273 200 178 q 108 517 107 368 q 200 863 108 750 q 500 976 292 976 q 797 863 704 976 q 890 517 890 749 q 844 271 890 364 q 689 99 797 178 q 781 107 739 107 l 926 107 l 926 0 l 576 0 l 576 103 q 722 265 681 175 q 764 501 763 356 q 701 782 763 696 q 499 868 640 868 q 294 783 354 868 q 235 499 235 697 q 276 265 235 349 q 421 103 318 181 l 421 0 l 72 0 l 72 107 z "},"μ":{"ha":825,"x_min":119,"x_max":701,"o":"m 701 676 l 701 0 l 610 0 l 599 104 q 326 -18 454 -18 q 215 8 264 -18 q 224 -83 224 -36 l 224 -279 l 119 -279 l 119 676 l 238 676 l 238 201 q 265 121 236 147 q 354 94 294 94 q 583 179 440 94 l 583 676 l 701 676 z "},"π":{"ha":893,"x_min":38,"x_max":856,"o":"m 856 581 l 724 581 l 724 0 l 606 0 l 606 581 l 286 581 l 286 0 l 169 0 l 169 581 l 38 581 l 38 676 l 856 676 l 856 581 z "},"Ё":{"ha":778,"x_min":113,"x_max":707,"o":"m 326 1094 l 286 1094 q 254 1128 254 1094 l 254 1203 q 286 1236 254 1236 l 326 1236 q 358 1203 358 1236 l 358 1128 q 326 1094 358 1094 m 572 1094 l 533 1094 q 500 1128 500 1094 l 500 1203 q 533 1236 500 1236 l 572 1236 q 606 1203 606 1236 l 606 1128 q 572 1094 606 1094 m 701 101 l 707 7 q 297 -1 579 -1 q 162 44 211 -1 q 113 165 113 89 l 113 793 q 163 915 113 869 q 297 960 213 960 q 707 951 579 960 l 701 856 l 317 856 q 254 833 274 856 q 235 764 235 811 l 235 556 l 647 556 l 647 457 l 235 457 l 235 194 q 254 124 235 146 q 317 101 274 101 l 701 101 z "},"Ђ":{"ha":1044,"x_min":33,"x_max":983,"o":"m 464 850 l 464 533 q 746 614 596 614 q 921 551 858 614 q 983 322 983 489 q 892 65 983 142 q 628 -6 800 -12 l 617 83 q 805 139 747 92 q 863 311 863 186 q 827 470 863 432 q 707 508 792 508 q 464 436 594 508 l 464 0 l 342 0 l 342 850 l 33 850 l 33 958 l 774 958 l 774 850 l 464 850 z "},"Ѓ":{"ha":719,"x_min":118,"x_max":690,"o":"m 625 1178 l 360 1011 l 318 1065 l 558 1269 l 625 1178 m 118 0 l 118 779 q 167 909 118 858 q 293 960 217 960 q 690 950 565 960 l 685 856 l 333 856 q 261 833 283 856 q 239 757 239 810 l 239 0 l 118 0 z "},"Є":{"ha":801,"x_min":85,"x_max":744,"o":"m 731 108 l 744 15 q 471 -17 631 -17 q 171 94 257 -17 q 85 479 85 206 q 171 864 85 753 q 471 975 257 975 q 735 947 622 975 l 722 853 q 469 865 615 865 q 278 797 336 865 q 213 556 221 728 l 622 556 l 622 460 l 211 460 q 269 174 213 254 q 469 93 326 93 q 731 108 625 93 z "},"Ѕ":{"ha":779,"x_min":76,"x_max":708,"o":"m 464 406 l 265 456 q 120 545 164 481 q 76 722 76 610 q 94 856 76 806 q 153 933 111 907 q 248 967 196 958 q 388 975 300 975 q 672 947 557 972 l 664 858 q 393 865 529 865 q 303 863 332 865 q 246 846 274 860 q 209 802 218 832 q 200 719 200 772 q 227 611 200 643 q 321 563 254 579 l 515 514 q 665 424 622 488 q 708 244 708 360 q 637 35 708 86 q 388 -17 565 -17 q 90 10 236 -17 l 99 100 q 392 93 332 92 q 545 122 506 93 q 585 247 585 151 q 558 358 585 326 q 464 406 531 389 z "},"І":{"ha":364,"x_min":121,"x_max":243,"o":"m 243 0 l 121 0 l 121 958 l 243 958 l 243 0 z "},"Ї":{"ha":364,"x_min":6,"x_max":357,"o":"m 39 1207 l 79 1207 q 111 1174 111 1207 l 111 1097 q 79 1064 111 1064 l 39 1064 q 6 1097 6 1064 l 6 1174 q 39 1207 6 1207 m 285 1207 l 325 1207 q 357 1174 357 1207 l 357 1097 q 325 1064 357 1064 l 285 1064 q 251 1097 251 1064 l 251 1174 q 285 1207 251 1207 m 243 0 l 121 0 l 121 958 l 243 958 l 243 0 z "},"Ј":{"ha":472,"x_min":42,"x_max":356,"o":"m 356 958 l 356 201 q 308 42 356 96 q 169 -12 260 -12 q 42 6 92 -12 l 56 92 l 125 92 q 233 197 233 92 l 233 958 l 356 958 z "},"Љ":{"ha":1347,"x_min":31,"x_max":1283,"o":"m 771 572 l 968 572 q 1215 508 1146 572 q 1283 279 1283 443 q 1217 51 1283 113 q 986 -11 1150 -11 q 650 0 771 -11 l 650 6 l 650 858 l 469 858 q 403 834 424 858 q 378 761 382 810 q 336 376 353 482 q 279 181 319 271 q 183 47 239 90 q 40 -1 128 4 l 31 82 q 164 215 111 115 q 210 348 193 272 q 235 488 228 424 q 254 710 242 553 q 260 779 258 756 q 458 958 269 958 l 771 958 l 771 572 m 771 469 l 771 97 q 968 96 824 96 q 1121 133 1082 96 q 1160 282 1160 169 q 1122 429 1160 389 q 968 469 1083 469 l 771 469 z "},"Њ":{"ha":1360,"x_min":121,"x_max":1294,"o":"m 782 569 l 981 569 q 1226 506 1157 569 q 1294 278 1294 442 q 1228 50 1294 111 q 999 -11 1163 -11 q 661 0 782 -11 l 661 469 l 243 469 l 243 0 l 121 0 l 121 958 l 243 958 l 243 569 l 661 569 l 661 958 l 782 958 l 782 569 m 782 469 l 782 97 q 981 96 835 96 q 1133 132 1094 96 q 1172 279 1172 168 q 1133 428 1172 388 q 981 469 1094 469 l 782 469 z "},"Ћ":{"ha":1078,"x_min":33,"x_max":1000,"o":"m 464 850 l 464 532 q 781 614 619 614 q 946 560 892 614 q 1000 397 1000 507 l 1000 0 l 878 0 l 878 374 q 847 477 878 447 q 739 507 815 507 q 464 432 608 507 l 464 0 l 342 0 l 342 850 l 33 850 l 33 958 l 774 958 l 774 850 l 464 850 z "},"Ќ":{"ha":833,"x_min":121,"x_max":790,"o":"m 371 1011 l 331 1065 l 569 1269 l 638 1178 l 371 1011 m 451 503 l 451 497 q 502 486 478 494 q 546 469 526 478 q 585 439 565 460 q 617 403 604 418 q 648 354 631 388 q 675 301 665 321 q 703 237 685 282 q 730 167 721 192 q 759 85 739 142 q 790 0 779 29 l 661 0 q 640 58 654 19 q 603 160 615 128 q 571 244 592 193 q 535 319 550 296 q 498 373 521 342 q 453 417 475 404 q 401 440 431 431 q 338 450 372 450 l 233 450 q 242 349 242 397 l 242 0 l 121 0 l 121 958 l 242 958 l 242 658 q 233 549 242 603 l 338 549 q 424 571 385 549 q 488 619 463 593 q 543 709 513 644 q 588 810 574 774 q 633 939 601 846 q 640 958 638 951 l 765 958 q 650 663 685 729 q 467 506 576 524 q 451 503 460 504 z "},"Ѝ":{"ha":960,"x_min":121,"x_max":839,"o":"m 553 1065 l 513 1011 l 246 1178 l 314 1269 l 553 1065 m 839 0 l 721 0 l 721 699 q 728 808 721 764 l 721 808 q 671 704 703 761 l 246 0 l 121 0 l 121 958 l 239 958 l 239 267 q 232 153 239 215 l 238 153 q 292 257 258 199 l 713 958 l 839 958 l 839 0 z "},"Ў":{"ha":782,"x_min":29,"x_max":765,"o":"m 538 1228 l 599 1218 q 548 1086 604 1136 q 392 1036 492 1036 q 234 1086 292 1036 q 182 1218 176 1136 l 243 1228 q 281 1151 243 1178 q 392 1124 319 1124 q 500 1151 461 1124 q 538 1228 539 1178 m 765 958 l 507 236 q 418 59 465 121 q 292 -10 371 -3 q 119 10 208 -15 l 133 100 q 212 94 185 96 q 267 97 239 92 q 306 107 294 101 q 333 133 317 113 q 358 174 349 154 q 383 236 367 194 l 400 279 l 347 279 q 251 344 274 279 l 29 958 l 156 958 l 349 404 q 381 382 357 382 l 436 382 l 640 958 l 765 958 z "},"Џ":{"ha":936,"x_min":121,"x_max":815,"o":"m 815 958 l 815 0 l 519 0 l 514 -210 l 431 -210 l 422 0 l 121 0 l 121 958 l 243 958 l 243 100 l 693 100 l 693 958 l 815 958 z "},"А":{"ha":864,"x_min":14,"x_max":850,"o":"m 629 300 l 235 300 l 140 0 l 14 0 l 322 925 q 368 958 331 958 l 496 958 q 542 925 533 958 l 850 0 l 724 0 l 629 300 m 596 406 l 475 786 q 451 864 463 822 l 413 864 l 389 786 l 268 406 l 596 406 z "},"Б":{"ha":832,"x_min":121,"x_max":761,"o":"m 243 546 l 446 546 q 692 484 624 546 q 761 264 761 422 q 742 117 761 172 q 676 33 722 61 q 575 -4 631 4 q 425 -12 519 -12 q 124 0 261 -12 l 121 0 l 121 958 q 418 967 271 967 q 710 958 564 967 l 699 857 l 243 857 l 243 546 m 243 450 l 243 94 q 446 93 296 93 q 599 128 561 93 q 638 269 638 163 q 599 412 638 374 q 446 450 561 450 l 243 450 z "},"В":{"ha":861,"x_min":121,"x_max":781,"o":"m 589 500 l 589 494 q 737 422 693 485 q 781 239 781 358 q 713 42 781 94 q 475 -11 644 -11 q 121 0 244 -11 l 121 958 q 432 969 231 969 q 681 917 611 969 q 751 719 751 865 q 713 562 751 615 q 589 500 674 508 m 240 543 l 446 543 q 593 578 553 544 q 633 706 633 611 q 590 833 633 801 q 426 865 546 865 l 240 865 l 240 543 m 240 450 l 240 94 q 456 93 297 93 q 615 126 572 93 q 657 260 657 160 q 612 408 657 369 q 447 450 567 447 l 240 450 z "},"Г":{"ha":719,"x_min":118,"x_max":690,"o":"m 118 0 l 118 779 q 167 909 118 858 q 293 960 217 960 q 690 950 565 960 l 685 856 l 333 856 q 261 833 283 856 q 239 757 239 810 l 239 0 l 118 0 z "},"Д":{"ha":963,"x_min":31,"x_max":918,"o":"m 918 100 l 918 -210 l 833 -210 l 822 0 l 128 0 l 115 -210 l 31 -210 l 31 100 l 124 100 q 264 779 242 351 q 318 911 267 864 q 458 958 369 958 l 800 958 l 800 100 l 918 100 m 678 100 l 678 858 l 481 858 q 406 836 429 858 q 381 761 383 814 q 338 388 368 543 q 242 100 307 232 l 678 100 z "},"Е":{"ha":778,"x_min":113,"x_max":707,"o":"m 701 101 l 707 7 q 297 -1 579 -1 q 162 44 211 -1 q 113 165 113 89 l 113 793 q 163 915 113 869 q 297 960 213 960 q 707 951 579 960 l 701 856 l 317 856 q 254 833 274 856 q 235 764 235 811 l 235 556 l 647 556 l 647 457 l 235 457 l 235 194 q 254 124 235 146 q 317 101 274 101 l 701 101 z "},"Ж":{"ha":1261,"x_min":43,"x_max":1218,"o":"m 879 503 l 879 497 q 970 467 929 493 q 1038 415 1011 442 q 1097 317 1064 388 q 1146 203 1129 247 q 1200 51 1163 160 q 1218 0 1213 18 l 1089 0 q 972 299 1000 243 q 831 443 911 418 q 775 450 806 450 l 683 450 q 692 349 692 399 l 692 0 l 575 0 l 575 349 q 585 450 575 389 l 485 450 q 361 397 414 450 q 281 283 308 344 q 196 67 253 222 q 171 0 179 22 l 43 0 q 165 321 132 254 q 326 486 232 454 q 381 497 351 494 l 381 503 q 296 532 335 508 q 231 588 257 556 q 177 676 204 619 q 131 783 150 733 q 83 914 111 833 q 68 958 74 943 l 193 958 q 308 676 272 740 q 485 549 381 549 l 583 549 q 575 658 575 603 l 575 958 l 692 958 l 692 658 q 683 549 692 592 l 775 549 q 839 560 810 549 q 894 599 868 571 q 938 653 919 628 q 979 731 956 678 q 1015 817 1003 785 q 1054 921 1028 850 q 1068 958 1064 946 l 1193 958 q 1078 663 1113 729 q 894 506 1004 524 q 879 503 888 504 z "},"З":{"ha":764,"x_min":51,"x_max":681,"o":"m 83 854 l 74 947 q 338 969 197 969 q 584 917 515 969 q 653 719 653 865 q 615 562 653 615 q 492 500 576 508 l 492 494 q 638 422 594 485 q 681 239 681 358 q 613 42 681 94 q 379 -11 546 -11 q 51 19 181 -11 l 61 108 q 360 90 218 90 q 514 124 472 90 q 556 260 556 158 q 511 409 556 369 q 350 449 467 449 l 189 449 l 189 544 l 350 544 q 492 578 453 544 q 531 706 531 611 q 488 836 531 803 q 331 869 444 869 q 83 854 247 869 z "},"И":{"ha":960,"x_min":121,"x_max":839,"o":"m 839 0 l 721 0 l 721 699 q 728 808 721 764 l 721 808 q 671 704 703 761 l 246 0 l 121 0 l 121 958 l 239 958 l 239 267 q 232 153 239 215 l 238 153 q 292 257 258 199 l 713 958 l 839 958 l 839 0 z "},"Й":{"ha":960,"x_min":121,"x_max":839,"o":"m 600 1226 l 690 1226 q 639 1089 696 1143 q 483 1035 582 1035 q 326 1089 383 1035 q 274 1226 268 1143 l 364 1226 q 395 1134 364 1167 q 483 1101 426 1101 q 570 1134 540 1101 q 600 1226 600 1167 m 839 0 l 721 0 l 721 699 q 728 808 721 764 l 721 808 q 671 704 703 761 l 246 0 l 121 0 l 121 958 l 239 958 l 239 267 q 232 153 239 215 l 238 153 q 292 257 258 199 l 713 958 l 839 958 l 839 0 z "},"К":{"ha":833,"x_min":121,"x_max":790,"o":"m 451 503 l 451 497 q 502 486 478 494 q 546 469 526 478 q 585 439 565 460 q 617 403 604 418 q 648 354 631 388 q 675 301 665 321 q 703 237 685 282 q 730 167 721 192 q 759 85 739 142 q 790 0 779 29 l 661 0 q 640 58 654 19 q 603 160 615 128 q 571 244 592 193 q 535 319 550 296 q 498 373 521 342 q 453 417 475 404 q 401 440 431 431 q 338 450 372 450 l 233 450 q 242 349 242 397 l 242 0 l 121 0 l 121 958 l 242 958 l 242 658 q 233 549 242 603 l 338 549 q 424 571 385 549 q 488 619 463 593 q 543 709 513 644 q 588 810 574 774 q 633 939 601 846 q 640 958 638 951 l 765 958 q 650 663 685 729 q 467 506 576 524 q 451 503 460 504 z "},"Л":{"ha":904,"x_min":14,"x_max":783,"o":"m 783 958 l 783 0 l 661 0 l 661 858 l 469 858 q 367 761 375 858 q 340 482 349 556 q 314 325 332 408 q 267 181 296 242 q 25 -1 183 -1 l 14 93 q 151 214 110 122 q 208 408 190 301 q 247 783 226 514 q 438 958 264 958 l 783 958 z "},"М":{"ha":1218,"x_min":101,"x_max":1117,"o":"m 889 958 l 1026 958 q 1076 907 1076 958 l 1117 0 l 994 0 l 960 857 l 931 857 l 717 150 q 664 108 706 108 l 554 108 q 499 150 511 108 l 285 857 l 257 857 l 224 0 l 101 0 l 139 907 q 190 958 142 958 l 329 958 q 381 917 368 958 l 560 332 q 581 258 568 307 q 596 203 594 208 l 621 203 q 637 263 625 218 q 657 335 649 308 l 836 917 q 889 958 847 958 z "},"Н":{"ha":928,"x_min":121,"x_max":807,"o":"m 807 958 l 807 0 l 685 0 l 685 460 l 243 460 l 243 0 l 121 0 l 121 958 l 243 958 l 243 565 l 685 565 l 685 958 l 807 958 z "},"О":{"ha":928,"x_min":85,"x_max":842,"o":"m 169 867 q 211 922 169 867 q 464 976 253 976 q 758 867 675 976 q 842 479 842 758 q 758 91 842 200 q 464 -18 675 -18 q 169 91 253 -18 q 85 479 85 200 q 169 867 85 758 m 660 783 q 633 825 660 783 q 464 867 606 867 q 268 783 322 867 q 214 479 214 699 q 268 176 214 260 q 464 92 322 92 q 660 176 606 92 q 714 479 714 260 q 660 783 714 699 z "},"П":{"ha":929,"x_min":121,"x_max":808,"o":"m 808 958 l 808 0 l 686 0 l 686 858 l 243 858 l 243 0 l 121 0 l 121 958 l 808 958 z "},"Р":{"ha":819,"x_min":121,"x_max":758,"o":"m 121 0 l 121 958 q 451 971 238 971 q 692 908 625 971 q 758 671 758 844 q 694 434 758 497 q 464 371 629 371 q 243 383 353 371 l 243 0 l 121 0 m 243 476 l 449 476 q 595 517 556 478 q 635 671 635 557 q 594 825 635 785 q 449 865 554 865 q 243 864 299 865 l 243 476 z "},"С":{"ha":792,"x_min":85,"x_max":742,"o":"m 729 107 l 742 15 q 461 -17 626 -17 q 169 94 254 -17 q 85 479 85 206 q 169 864 85 753 q 461 975 254 975 q 722 947 610 975 l 710 854 q 461 867 585 867 q 267 783 321 867 q 214 479 214 699 q 267 176 214 260 q 461 92 321 92 q 729 107 622 92 z "},"Т":{"ha":807,"x_min":33,"x_max":774,"o":"m 774 850 l 464 850 l 464 0 l 342 0 l 342 850 l 33 850 l 33 958 l 774 958 l 774 850 z "},"У":{"ha":782,"x_min":29,"x_max":765,"o":"m 765 958 l 507 236 q 418 59 465 121 q 292 -10 371 -3 q 119 10 208 -15 l 133 100 q 212 94 185 96 q 267 97 239 92 q 306 107 294 101 q 333 133 317 113 q 358 174 349 154 q 383 236 367 194 l 400 279 l 347 279 q 251 344 274 279 l 29 958 l 156 958 l 349 404 q 381 382 357 382 l 436 382 l 640 958 l 765 958 z "},"Ф":{"ha":1142,"x_min":71,"x_max":1071,"o":"m 632 1036 l 632 901 q 972 801 874 893 q 1071 489 1069 710 q 972 182 1069 272 q 632 83 874 92 l 632 -51 l 510 -51 l 510 83 q 169 182 268 92 q 71 489 71 272 q 169 801 71 710 q 510 901 267 893 l 510 1036 l 632 1036 m 514 186 l 514 799 q 264 726 332 792 q 196 489 196 660 q 264 258 196 322 q 514 186 332 193 m 626 799 l 626 186 q 876 258 808 193 q 946 489 944 322 q 876 726 944 660 q 626 799 808 792 z "},"Х":{"ha":851,"x_min":36,"x_max":815,"o":"m 443 450 l 407 450 l 168 0 l 36 0 l 306 496 l 54 958 l 186 958 l 406 544 l 444 544 l 665 958 l 797 958 l 544 496 l 815 0 l 682 0 l 443 450 z "},"Ц":{"ha":960,"x_min":121,"x_max":915,"o":"m 915 100 l 915 -210 l 831 -210 l 819 0 l 121 0 l 121 958 l 243 958 l 243 100 l 675 100 l 675 958 l 797 958 l 797 100 l 915 100 z "},"Ч":{"ha":868,"x_min":83,"x_max":747,"o":"m 747 958 l 747 0 l 626 0 l 626 438 q 297 349 467 349 q 135 401 188 349 q 83 565 83 454 l 83 958 l 206 958 l 206 590 q 236 490 204 521 q 340 458 268 458 q 626 532 478 458 l 626 958 l 747 958 z "},"Ш":{"ha":1290,"x_min":121,"x_max":1169,"o":"m 1169 958 l 1169 0 l 121 0 l 121 958 l 240 958 l 240 100 l 586 100 l 586 958 l 704 958 l 704 100 l 1050 100 l 1050 958 l 1169 958 z "},"Щ":{"ha":1322,"x_min":121,"x_max":1278,"o":"m 1278 100 l 1278 -210 l 1193 -210 l 1182 0 l 121 0 l 121 958 l 240 958 l 240 100 l 581 100 l 581 958 l 700 958 l 700 100 l 1042 100 l 1042 958 l 1160 958 l 1160 100 l 1278 100 z "},"Ъ":{"ha":1039,"x_min":32,"x_max":974,"o":"m 460 572 l 660 572 q 905 507 836 572 q 974 278 974 442 q 908 50 974 111 q 678 -11 842 -11 q 336 0 458 -11 l 336 850 l 32 850 l 32 958 l 460 958 l 460 572 m 460 469 l 460 97 q 660 96 513 96 q 813 132 774 96 q 851 279 851 168 q 813 428 851 388 q 660 469 774 469 l 460 469 z "},"Ы":{"ha":1175,"x_min":121,"x_max":1054,"o":"m 243 572 l 446 572 q 691 507 622 572 q 760 278 760 442 q 694 50 760 111 q 464 -11 628 -11 q 124 0 244 -11 l 121 0 l 121 958 l 243 958 l 243 572 m 1054 958 l 1054 0 l 933 0 l 933 958 l 1054 958 m 243 469 l 243 97 q 446 96 296 96 q 599 132 560 96 q 638 279 638 168 q 599 428 638 388 q 446 469 560 469 l 243 469 z "},"Ь":{"ha":825,"x_min":121,"x_max":760,"o":"m 243 572 l 446 572 q 691 507 622 572 q 760 278 760 442 q 694 50 760 111 q 464 -11 628 -11 q 124 0 244 -11 l 121 0 l 121 958 l 243 958 l 243 572 m 243 469 l 243 97 q 446 96 296 96 q 599 132 560 96 q 638 279 638 168 q 599 428 638 388 q 446 469 560 469 l 243 469 z "},"Э":{"ha":801,"x_min":57,"x_max":715,"o":"m 79 853 l 65 947 q 331 975 178 975 q 630 864 544 975 q 715 479 715 753 q 630 94 715 206 q 331 -17 544 -17 q 57 15 169 -17 l 69 108 q 331 93 175 93 q 531 174 474 93 q 589 461 588 254 l 178 461 l 178 557 l 588 557 q 522 797 579 729 q 331 865 464 865 q 79 853 185 865 z "},"Ю":{"ha":1288,"x_min":122,"x_max":1200,"o":"m 244 547 l 463 547 q 552 881 471 786 q 821 976 633 976 q 1116 867 1032 976 q 1200 479 1200 758 q 1116 91 1200 200 q 821 -18 1032 -18 q 546 85 626 -18 q 461 449 465 188 l 244 449 l 244 0 l 122 0 l 122 958 l 244 958 l 244 547 m 821 92 q 1017 176 963 92 q 1072 479 1071 260 q 1017 783 1071 699 q 821 867 963 867 q 633 783 685 867 q 582 479 582 699 q 633 176 582 260 q 821 92 685 92 z "},"Я":{"ha":851,"x_min":60,"x_max":731,"o":"m 279 428 l 278 435 q 100 690 97 460 q 171 906 100 842 q 404 971 242 971 q 731 958 615 971 l 731 0 l 608 0 l 608 390 q 518 390 588 390 q 400 389 449 389 q 274 288 304 389 l 190 0 l 60 0 l 149 293 q 279 428 182 404 m 608 494 l 608 864 q 406 865 556 865 q 264 826 304 865 q 222 683 224 788 q 263 541 222 588 q 400 494 303 494 l 608 494 z "},"а":{"ha":767,"x_min":74,"x_max":661,"o":"m 114 575 l 103 663 q 431 693 292 693 q 605 644 549 693 q 661 476 661 594 l 661 0 l 568 0 l 554 111 q 433 24 506 61 q 275 -12 360 -12 q 128 37 182 -12 q 74 176 74 86 l 74 250 q 123 373 74 329 q 261 417 172 417 l 543 417 l 543 476 q 513 567 542 540 q 406 593 483 593 q 114 575 307 593 m 193 233 l 193 190 q 219 113 193 138 q 299 89 244 89 q 419 114 353 88 q 543 190 486 140 l 543 326 l 282 326 q 193 233 193 322 z "},"б":{"ha":797,"x_min":99,"x_max":718,"o":"m 657 1024 l 685 932 q 589 886 635 901 q 484 860 543 871 q 393 840 425 849 q 254 754 296 813 q 200 611 213 696 q 188 513 192 569 l 190 513 q 274 617 218 578 q 449 656 331 656 q 658 581 597 656 q 718 329 718 506 q 651 69 718 156 q 408 -17 585 -17 q 265 6 324 -17 q 174 61 206 28 q 124 155 142 94 q 103 269 107 215 q 99 408 99 322 q 103 569 99 504 q 124 699 108 635 q 167 803 139 763 q 242 878 196 844 q 354 931 288 911 q 451 952 392 942 q 558 978 510 963 q 657 1024 607 993 m 418 556 q 260 502 300 556 q 221 329 221 449 q 263 137 221 190 q 410 83 304 83 q 553 136 513 83 q 594 329 594 189 q 557 508 594 460 q 418 556 519 556 z "},"в":{"ha":769,"x_min":110,"x_max":693,"o":"m 524 350 l 524 346 q 654 295 615 339 q 693 167 693 251 q 633 28 693 65 q 422 -10 572 -10 q 110 -1 225 -10 l 110 675 q 385 683 211 683 q 608 646 546 683 q 669 503 669 608 q 635 393 669 431 q 524 350 600 356 m 221 390 l 399 390 q 522 412 488 390 q 557 493 557 433 q 519 570 557 550 q 381 590 481 590 q 221 590 285 592 l 221 390 m 221 306 l 221 85 q 304 84 242 85 q 406 83 367 83 q 538 106 501 83 q 575 192 575 128 q 536 281 575 256 q 399 306 497 306 l 221 306 z "},"г":{"ha":642,"x_min":107,"x_max":611,"o":"m 107 0 l 107 532 q 257 679 107 679 q 611 668 500 679 l 607 585 l 306 585 q 243 565 263 585 q 224 501 224 544 l 224 0 l 107 0 z "},"д":{"ha":815,"x_min":40,"x_max":763,"o":"m 763 94 l 763 -200 l 685 -200 l 675 0 l 128 0 l 117 -200 l 40 -200 l 40 94 l 118 94 q 219 521 203 265 q 392 676 231 676 l 669 676 l 669 94 l 763 94 m 557 94 l 557 583 l 411 583 q 326 501 333 583 q 225 94 308 249 l 557 94 z "},"е":{"ha":750,"x_min":78,"x_max":679,"o":"m 518 281 l 203 281 q 260 124 213 164 q 415 83 307 83 q 651 100 532 83 l 663 21 q 400 -17 574 -17 q 151 65 225 -17 q 78 340 78 146 q 150 615 78 536 q 388 693 222 693 q 608 638 539 693 q 679 472 678 583 q 518 281 679 281 m 201 372 l 488 372 q 560 472 563 372 q 522 565 560 538 q 393 593 485 593 q 244 546 286 593 q 201 372 203 499 z "},"ж":{"ha":1096,"x_min":47,"x_max":1049,"o":"m 782 354 l 782 351 q 846 338 818 347 q 898 303 874 328 q 938 260 922 279 q 975 190 953 240 q 1009 108 997 139 q 1049 0 1021 76 l 928 0 q 826 229 854 186 q 700 307 778 304 q 694 307 697 307 l 597 307 q 603 240 603 260 l 603 0 l 499 0 l 499 240 q 504 307 499 260 l 400 307 q 286 251 325 306 q 182 35 247 196 q 168 0 174 13 l 47 0 q 87 108 75 76 q 121 190 99 139 q 158 260 143 240 q 198 303 174 279 q 250 338 222 328 q 314 351 278 347 l 314 354 q 205 405 250 361 q 140 492 160 449 q 74 660 119 536 q 67 676 69 671 l 185 676 q 224 578 211 610 q 260 504 238 547 q 300 442 282 461 q 345 410 318 424 q 406 396 372 396 l 504 396 q 499 475 499 429 l 499 676 l 603 676 l 603 475 q 597 396 603 429 l 689 396 q 808 458 765 396 q 910 676 850 519 l 1029 676 q 988 566 1000 599 q 951 484 975 533 q 907 415 928 435 q 854 376 886 394 q 782 354 822 358 z "},"з":{"ha":689,"x_min":53,"x_max":613,"o":"m 83 576 l 75 667 q 283 688 161 688 q 522 651 456 688 q 588 507 588 614 q 556 394 588 432 q 446 350 524 357 l 446 346 q 573 296 533 339 q 613 167 613 253 q 547 25 613 63 q 322 -12 482 -12 q 53 8 168 -12 l 63 99 q 314 88 188 88 q 453 109 417 88 q 490 192 490 131 q 452 278 490 254 q 315 301 414 301 l 154 301 l 154 389 l 315 389 q 438 410 406 389 q 471 492 471 432 q 433 569 471 550 q 285 588 394 588 q 83 576 165 588 z "},"и":{"ha":815,"x_min":110,"x_max":704,"o":"m 704 0 l 597 0 l 597 449 q 599 498 597 465 q 601 539 601 531 l 599 539 q 551 460 583 501 l 207 0 l 110 0 l 110 676 l 217 676 l 217 228 q 213 138 217 188 l 215 138 q 264 215 238 183 l 608 676 l 704 676 l 704 0 z "},"й":{"ha":815,"x_min":110,"x_max":704,"o":"m 519 976 l 610 976 q 558 840 615 894 q 403 786 501 786 q 245 840 303 786 q 193 976 188 894 l 283 976 q 315 884 283 917 q 403 851 346 851 q 489 884 458 851 q 519 976 519 917 m 704 0 l 597 0 l 597 449 q 599 498 597 465 q 601 539 601 531 l 599 539 q 551 460 583 501 l 207 0 l 110 0 l 110 676 l 217 676 l 217 228 q 213 138 217 188 l 215 138 q 264 215 238 183 l 608 676 l 704 676 l 704 0 z "},"к":{"ha":744,"x_min":110,"x_max":697,"o":"m 419 354 l 419 350 q 486 338 457 347 q 540 304 515 328 q 582 260 565 281 q 621 191 599 239 q 656 108 643 143 q 697 0 669 74 l 574 0 q 540 85 550 61 q 512 153 531 110 q 482 211 493 196 q 452 251 471 226 q 416 283 433 275 q 375 298 399 290 q 322 306 351 306 l 315 306 l 222 306 q 228 240 228 261 l 228 0 l 110 0 l 110 676 l 228 676 l 228 475 q 221 397 228 439 l 315 397 q 399 414 364 397 q 462 473 433 431 q 508 556 490 515 q 556 676 526 596 l 678 676 q 653 612 661 631 q 631 557 646 593 q 608 506 617 521 q 586 465 600 492 q 561 428 572 439 q 533 401 550 417 q 501 377 517 385 q 464 363 485 369 q 419 354 443 357 z "},"л":{"ha":781,"x_min":26,"x_max":669,"o":"m 669 676 l 669 0 l 551 0 l 551 583 l 404 583 q 342 565 361 583 q 317 499 324 546 q 251 143 283 229 q 39 -7 200 -6 l 26 83 q 106 117 81 96 q 146 178 131 139 q 206 518 179 263 q 257 638 215 599 q 382 676 299 676 l 669 676 z "},"м":{"ha":1039,"x_min":96,"x_max":943,"o":"m 746 676 l 869 676 q 914 632 914 676 l 943 0 l 833 0 l 807 586 l 783 586 l 611 113 q 564 74 599 74 l 472 74 q 425 113 438 74 l 253 586 l 229 586 l 204 0 l 96 0 l 124 632 q 169 676 124 676 l 292 676 q 338 638 326 676 l 478 249 q 507 151 492 210 l 529 151 q 558 249 549 219 l 699 638 q 746 676 711 676 z "},"н":{"ha":808,"x_min":110,"x_max":699,"o":"m 699 676 l 699 0 l 582 0 l 582 314 l 226 314 l 226 0 l 110 0 l 110 676 l 226 676 l 226 404 l 582 404 l 582 676 l 699 676 z "},"о":{"ha":793,"x_min":78,"x_max":715,"o":"m 397 693 q 643 613 571 693 q 715 338 715 532 q 643 63 715 143 q 397 -18 571 -18 q 150 63 222 -18 q 78 338 78 143 q 150 613 78 532 q 397 693 222 693 m 397 593 q 243 539 285 593 q 201 338 201 485 q 243 136 201 190 q 397 82 285 82 q 550 136 508 82 q 592 338 592 190 q 550 539 592 485 q 397 593 508 593 z "},"п":{"ha":799,"x_min":110,"x_max":689,"o":"m 689 676 l 689 0 l 572 0 l 572 581 l 225 581 l 225 0 l 110 0 l 110 676 l 689 676 z "},"р":{"ha":810,"x_min":111,"x_max":731,"o":"m 207 676 l 217 568 q 348 660 272 626 q 497 693 424 693 q 675 604 619 693 q 731 335 731 515 q 669 63 731 143 q 475 -17 608 -17 q 225 53 339 -17 q 228 -83 231 -6 l 228 -279 l 111 -279 l 111 676 l 207 676 m 228 486 l 228 128 q 444 86 369 86 q 572 138 536 86 q 608 335 608 189 q 574 533 608 476 q 460 590 540 590 q 228 486 367 590 z "},"с":{"ha":683,"x_min":78,"x_max":629,"o":"m 618 97 l 629 18 q 399 -17 531 -17 q 150 63 222 -17 q 78 339 78 143 q 151 613 78 533 q 399 693 224 693 q 617 661 532 693 l 601 585 q 418 593 510 593 q 249 539 297 593 q 201 339 201 485 q 249 138 201 192 q 418 83 296 83 q 618 97 531 83 z "},"т":{"ha":681,"x_min":36,"x_max":644,"o":"m 644 579 l 400 579 l 400 0 l 282 0 l 282 579 l 36 579 l 36 676 l 644 676 l 644 579 z "},"у":{"ha":739,"x_min":28,"x_max":710,"o":"m 710 676 l 440 -37 q 313 -235 386 -179 q 61 -279 224 -301 l 72 -197 q 235 -167 182 -203 q 329 -29 292 -126 l 342 0 l 315 0 q 272 31 283 0 l 28 676 l 154 676 l 333 172 q 358 90 349 126 l 378 90 q 406 172 388 118 l 583 676 l 710 676 z "},"ф":{"ha":999,"x_min":76,"x_max":922,"o":"m 554 972 l 554 692 q 838 601 753 683 q 922 338 922 519 q 838 75 922 157 q 554 -15 753 -7 l 554 -279 l 444 -279 l 444 -15 q 161 75 246 -7 q 76 338 76 157 q 161 601 76 519 q 444 692 246 683 l 444 972 l 554 972 m 449 85 l 449 593 q 247 530 304 586 q 190 338 190 474 q 247 147 190 203 q 449 85 304 92 m 550 593 l 550 85 q 750 147 693 92 q 807 338 807 203 q 750 529 807 472 q 550 593 693 586 z "},"х":{"ha":738,"x_min":33,"x_max":704,"o":"m 383 306 l 356 306 l 163 0 l 33 0 l 260 349 l 51 676 l 179 676 l 353 397 l 385 397 l 560 676 l 688 676 l 478 349 l 704 0 l 575 0 l 383 306 z "},"ц":{"ha":825,"x_min":111,"x_max":772,"o":"m 772 -200 l 694 -200 l 682 0 l 111 0 l 111 676 l 226 676 l 226 94 l 563 94 l 563 676 l 679 676 l 679 94 l 772 94 l 772 -200 z "},"ч":{"ha":739,"x_min":76,"x_max":626,"o":"m 626 676 l 626 0 l 510 0 l 510 285 q 246 235 371 235 q 76 383 76 235 l 76 676 l 193 676 l 193 422 q 214 352 193 372 q 285 332 235 332 q 510 379 397 332 l 510 676 l 626 676 z "},"ш":{"ha":1119,"x_min":110,"x_max":1008,"o":"m 1008 676 l 1008 0 l 110 0 l 110 676 l 225 676 l 225 94 l 506 94 l 506 676 l 613 676 l 613 94 l 894 94 l 894 676 l 1008 676 z "},"щ":{"ha":1154,"x_min":111,"x_max":1103,"o":"m 1103 -200 l 1024 -200 l 1013 0 l 111 0 l 111 676 l 225 676 l 225 94 l 506 94 l 506 676 l 613 676 l 613 94 l 896 94 l 896 676 l 1010 676 l 1010 94 l 1103 94 l 1103 -200 z "},"ъ":{"ha":878,"x_min":36,"x_max":818,"o":"m 389 414 l 546 414 q 760 368 701 414 q 818 203 818 322 q 760 37 818 82 q 564 -8 703 -8 q 274 0 381 -8 l 274 582 l 36 582 l 36 676 l 389 676 l 389 414 m 389 86 l 546 85 q 665 109 632 85 q 697 207 697 133 q 666 301 697 275 q 546 326 635 326 l 389 326 l 389 86 z "},"ы":{"ha":1001,"x_min":110,"x_max":892,"o":"m 225 414 l 385 414 q 592 368 535 414 q 649 203 649 322 q 593 37 649 82 q 403 -8 538 -8 q 114 0 221 -8 l 110 0 l 110 676 l 225 676 l 225 414 m 892 676 l 892 0 l 772 0 l 772 676 l 892 676 m 225 86 l 385 85 q 498 109 467 85 q 529 207 529 133 q 499 301 529 275 q 385 326 468 326 l 225 326 l 225 86 z "},"ь":{"ha":717,"x_min":110,"x_max":657,"o":"m 225 414 l 385 414 q 599 368 540 414 q 657 203 657 322 q 599 37 657 82 q 403 -8 542 -8 q 114 0 221 -8 l 110 0 l 110 676 l 225 676 l 225 414 m 225 86 l 385 85 q 503 109 471 85 q 536 207 536 133 q 505 301 536 275 q 385 326 474 326 l 225 326 l 225 86 z "},"э":{"ha":703,"x_min":57,"x_max":625,"o":"m 76 579 l 64 661 q 294 685 149 685 q 551 608 478 685 q 625 335 625 531 q 551 64 625 142 q 294 -14 478 -14 q 57 13 150 -14 l 69 96 q 294 86 186 86 q 454 131 408 86 q 506 300 500 176 l 161 300 l 161 389 l 504 389 q 450 544 497 501 q 294 586 403 586 q 76 579 197 586 z "},"ю":{"ha":1104,"x_min":111,"x_max":1026,"o":"m 228 394 l 401 394 q 477 628 410 564 q 706 693 544 693 q 956 617 885 693 q 1026 339 1026 542 q 956 63 1026 139 q 706 -12 885 -12 q 474 56 542 -12 q 401 303 407 124 l 228 303 l 228 0 l 111 0 l 111 676 l 228 676 l 228 394 m 704 88 q 860 142 817 88 q 904 340 903 196 q 860 540 903 486 q 704 593 817 593 q 554 540 594 593 q 514 340 514 486 q 554 142 514 196 q 704 88 594 88 z "},"я":{"ha":754,"x_min":56,"x_max":644,"o":"m 249 289 l 249 294 q 131 352 167 306 q 94 483 94 399 q 151 633 94 583 q 346 683 207 683 q 644 674 544 683 l 644 0 l 529 0 l 529 250 l 347 250 q 229 181 249 250 l 178 0 l 56 0 l 117 203 q 249 289 140 278 m 529 339 l 529 588 q 448 588 508 588 q 349 589 388 589 q 238 562 267 589 q 210 467 210 535 q 240 367 210 396 q 353 339 269 339 l 529 339 z "},"ё":{"ha":750,"x_min":78,"x_max":679,"o":"m 288 815 l 247 815 q 215 849 215 815 l 215 925 q 247 958 215 958 l 288 958 q 319 925 319 958 l 319 849 q 288 815 319 815 m 533 815 l 494 815 q 461 849 461 815 l 461 925 q 494 958 461 958 l 533 958 q 567 925 567 958 l 567 849 q 533 815 567 815 m 518 281 l 203 281 q 260 124 213 164 q 415 83 307 83 q 651 100 532 83 l 663 21 q 400 -17 574 -17 q 151 65 225 -17 q 78 340 78 146 q 150 615 78 536 q 388 693 222 693 q 608 638 539 693 q 679 472 678 583 q 518 281 679 281 m 201 372 l 488 372 q 560 472 563 372 q 522 565 560 538 q 393 593 485 593 q 244 546 286 593 q 201 372 203 499 z "},"ђ":{"ha":813,"x_min":38,"x_max":736,"o":"m 261 686 l 261 569 q 254 450 261 508 q 551 558 410 558 q 736 372 736 558 l 736 0 l 618 0 l 618 340 q 591 427 618 401 q 500 453 564 453 q 260 363 407 453 l 260 0 l 142 0 l 142 686 l 38 686 l 38 754 l 142 754 l 142 972 l 261 972 l 261 754 l 519 754 l 519 686 l 261 686 z "},"ѓ":{"ha":642,"x_min":107,"x_max":611,"o":"m 588 929 l 321 761 l 281 815 l 519 1019 l 588 929 m 107 0 l 107 532 q 257 679 107 679 q 611 668 500 679 l 607 585 l 306 585 q 243 565 263 585 q 224 501 224 544 l 224 0 l 107 0 z "},"є":{"ha":704,"x_min":78,"x_max":646,"o":"m 635 96 l 646 13 q 410 -14 556 -14 q 152 64 226 -14 q 78 335 78 142 q 152 608 78 531 q 410 685 226 685 q 639 661 556 685 l 628 579 q 410 586 507 586 q 254 544 301 586 q 200 389 207 501 l 544 389 l 544 300 l 199 300 q 250 132 204 178 q 410 86 296 86 q 635 96 518 86 z "},"ѕ":{"ha":710,"x_min":72,"x_max":639,"o":"m 419 274 l 225 318 q 107 381 142 338 q 72 507 72 424 q 131 658 72 619 q 336 693 190 696 q 619 672 497 690 l 611 586 q 353 593 396 593 q 218 581 250 594 q 186 507 186 567 q 208 440 186 458 q 285 410 229 422 l 482 365 q 602 303 565 344 q 639 179 639 263 q 574 23 639 61 q 350 -15 508 -15 q 86 4 208 -15 l 94 90 q 326 85 211 83 q 485 103 444 85 q 525 179 525 121 q 501 242 525 225 q 419 274 476 260 z "},"і":{"ha":349,"x_min":111,"x_max":238,"o":"m 147 964 l 203 964 q 238 928 238 964 l 238 849 q 203 813 238 813 l 147 813 q 111 849 111 813 l 111 928 q 147 964 111 964 m 233 0 l 115 0 l 115 676 l 233 676 l 233 0 z "},"ї":{"ha":349,"x_min":-1,"x_max":350,"o":"m 31 958 l 71 958 q 103 925 103 958 l 103 849 q 71 815 103 815 l 31 815 q -1 849 -1 815 l -1 925 q 31 958 -1 958 m 278 958 l 317 958 q 350 925 350 958 l 350 849 q 317 815 350 815 l 278 815 q 244 849 244 815 l 244 925 q 278 958 244 958 m 233 0 l 115 0 l 115 676 l 233 676 l 233 0 z "},"ј":{"ha":350,"x_min":39,"x_max":239,"o":"m 147 964 l 203 964 q 239 928 239 964 l 239 849 q 203 813 239 813 l 147 813 q 113 849 113 813 l 113 928 q 147 964 113 964 m 235 676 l 235 -17 q 200 -167 235 -97 q 104 -282 165 -236 l 39 -231 q 115 -17 115 -136 l 115 676 l 235 676 z "},"љ":{"ha":1115,"x_min":39,"x_max":1054,"o":"m 636 418 l 788 418 q 997 372 940 418 q 1054 204 1054 325 q 996 35 1054 79 q 796 -8 938 -8 q 524 0 626 -8 l 524 586 l 410 586 q 353 571 371 586 q 331 519 335 556 q 299 276 313 353 q 257 136 285 199 q 49 -4 201 -4 l 39 76 q 149 165 118 107 q 190 287 178 221 q 222 540 201 353 q 378 676 235 676 l 636 676 l 636 418 m 636 86 l 778 85 q 901 108 868 85 q 935 208 935 132 q 903 305 935 278 q 788 332 872 332 l 636 332 l 636 86 z "},"њ":{"ha":1125,"x_min":111,"x_max":1065,"o":"m 644 417 l 799 417 q 1008 371 951 417 q 1065 204 1065 325 q 1009 37 1065 82 q 817 -8 953 -8 q 533 0 639 -8 l 533 331 l 219 331 l 219 0 l 111 0 l 111 676 l 219 676 l 219 415 l 533 415 l 533 676 l 644 676 l 644 417 m 644 86 l 799 85 q 914 110 882 85 q 946 208 946 135 q 915 304 946 278 q 799 331 885 331 l 644 331 l 644 86 z "},"ћ":{"ha":813,"x_min":38,"x_max":736,"o":"m 261 686 l 261 569 q 254 450 261 508 q 551 558 410 558 q 736 372 733 558 l 736 -17 q 701 -167 736 -97 q 606 -282 667 -236 l 540 -231 q 618 -17 618 -135 l 618 340 q 591 427 618 401 q 500 453 564 453 q 260 363 407 453 l 260 0 l 142 0 l 142 686 l 38 686 l 38 754 l 142 754 l 142 972 l 261 972 l 261 754 l 519 754 l 519 686 l 261 686 z "},"ќ":{"ha":744,"x_min":110,"x_max":697,"o":"m 338 761 l 297 815 l 536 1019 l 604 929 l 338 761 m 419 354 l 419 350 q 486 338 457 347 q 540 304 515 328 q 582 260 565 281 q 621 191 599 239 q 656 108 643 143 q 697 0 669 74 l 574 0 q 540 85 550 61 q 512 153 531 110 q 482 211 493 196 q 452 251 471 226 q 416 283 433 275 q 375 298 399 290 q 322 306 351 306 l 315 306 l 222 306 q 228 240 228 261 l 228 0 l 110 0 l 110 676 l 228 676 l 228 475 q 221 397 228 439 l 315 397 q 399 414 364 397 q 462 473 433 431 q 508 556 490 515 q 556 676 526 596 l 678 676 q 653 612 661 631 q 631 557 646 593 q 608 506 617 521 q 586 465 600 492 q 561 428 572 439 q 533 401 550 417 q 501 377 517 385 q 464 363 485 369 q 419 354 443 357 z "},"ѝ":{"ha":815,"x_min":110,"x_max":704,"o":"m 471 815 l 431 761 l 164 929 l 232 1019 l 471 815 m 704 0 l 597 0 l 597 449 q 599 498 597 465 q 601 539 601 531 l 599 539 q 551 460 583 501 l 207 0 l 110 0 l 110 676 l 217 676 l 217 228 q 213 138 217 188 l 215 138 q 264 215 238 183 l 608 676 l 704 676 l 704 0 z "},"ў":{"ha":739,"x_min":28,"x_max":710,"o":"m 486 976 l 576 976 q 525 840 582 894 q 369 786 468 786 q 212 840 269 786 q 160 976 154 894 l 250 976 q 281 884 250 917 q 369 851 313 851 q 456 884 425 851 q 486 976 486 917 m 710 676 l 440 -37 q 313 -235 386 -179 q 61 -279 224 -301 l 72 -197 q 235 -167 182 -203 q 329 -29 292 -126 l 342 0 l 315 0 q 272 31 283 0 l 28 676 l 154 676 l 333 172 q 358 90 349 126 l 378 90 q 406 172 388 118 l 583 676 l 710 676 z "},"џ":{"ha":806,"x_min":111,"x_max":694,"o":"m 694 676 l 694 0 l 451 0 l 442 -229 l 363 -229 l 351 0 l 111 0 l 111 676 l 229 676 l 229 94 l 576 94 l 576 676 l 694 676 z "},"Ґ":{"ha":726,"x_min":118,"x_max":697,"o":"m 692 856 l 333 856 q 261 833 283 856 q 239 757 239 810 l 239 0 l 118 0 l 118 779 q 167 909 118 858 q 293 960 217 960 q 604 951 503 960 l 618 1169 l 697 1169 l 697 940 l 692 856 z "},"ґ":{"ha":644,"x_min":107,"x_max":614,"o":"m 614 879 l 614 668 l 608 585 l 306 585 q 244 566 264 586 q 225 501 225 546 l 225 0 l 107 0 l 107 532 q 257 679 107 679 q 522 675 436 679 l 535 879 l 614 879 z "},"Ұ":{"ha":806,"x_min":25,"x_max":782,"o":"m 672 310 l 465 310 l 465 0 l 343 0 l 343 310 l 135 310 l 135 382 l 319 382 l 25 958 l 154 958 l 356 554 q 400 446 363 540 l 410 446 q 453 553 436 521 l 654 958 l 782 958 l 489 382 l 672 382 l 672 310 z "},"ұ":{"ha":811,"x_min":26,"x_max":785,"o":"m 490 103 l 675 103 l 675 28 l 467 28 l 467 -279 l 346 -279 l 346 28 l 136 28 l 136 103 l 322 103 l 26 676 l 156 676 l 357 275 q 400 168 368 251 l 411 168 q 454 275 443 251 l 656 676 l 785 676 l 490 103 z "},"Ҷ":{"ha":907,"x_min":83,"x_max":863,"o":"m 863 85 l 863 -210 l 779 -210 l 767 0 l 626 0 l 626 432 q 304 349 468 349 q 138 402 192 349 q 83 565 83 456 l 83 958 l 207 958 l 207 590 q 238 488 206 519 q 344 456 271 456 q 626 529 478 456 l 626 958 l 750 958 l 750 85 l 863 85 z "},"ҷ":{"ha":772,"x_min":76,"x_max":721,"o":"m 721 94 l 721 -200 l 642 -200 l 631 0 l 510 0 l 510 285 q 246 235 371 235 q 76 383 76 235 l 76 676 l 193 676 l 193 422 q 214 352 193 372 q 285 332 235 332 q 510 379 397 332 l 510 676 l 626 676 l 626 94 l 721 94 z "},"Һ":{"ha":869,"x_min":121,"x_max":786,"o":"m 243 958 l 243 528 q 567 610 399 610 q 732 556 678 610 q 786 393 786 503 l 786 0 l 664 0 l 664 368 q 633 471 665 439 q 525 503 600 503 q 243 429 389 503 l 243 0 l 121 0 l 121 958 l 243 958 z "},"Ӏ":{"ha":365,"x_min":122,"x_max":243,"o":"m 243 0 l 122 0 l 122 958 l 243 958 l 243 0 z "},"Ẁ":{"ha":1317,"x_min":43,"x_max":1274,"o":"m 728 1064 l 688 1010 l 421 1178 l 489 1268 l 728 1064 m 1274 958 l 1079 36 q 1031 0 1069 0 l 892 0 q 844 38 851 0 l 694 758 q 672 867 686 794 l 643 867 l 622 758 l 474 38 q 425 0 464 0 l 285 0 q 253 10 267 0 q 238 36 240 21 l 43 958 l 172 958 l 322 211 q 342 93 325 199 l 374 93 q 396 211 385 158 l 544 918 q 592 958 551 958 l 725 958 q 772 918 763 958 l 921 211 q 940 93 935 143 l 975 93 q 993 210 988 176 l 1144 958 l 1274 958 z "},"ẁ":{"ha":1144,"x_min":35,"x_max":1110,"o":"m 642 815 l 601 761 l 335 929 l 403 1019 l 642 815 m 1110 676 l 913 33 q 867 0 904 0 l 760 0 q 730 10 743 0 q 714 38 717 21 l 603 497 q 592 552 599 517 q 581 604 585 588 l 564 604 l 540 497 l 431 38 q 383 0 421 0 l 278 0 q 232 33 240 0 l 35 676 l 157 676 l 297 178 q 319 76 310 135 l 338 76 l 363 178 l 475 639 q 519 676 482 676 l 626 676 q 671 638 661 676 l 782 178 q 793 128 785 163 q 806 76 801 94 l 824 76 q 833 120 825 83 q 847 178 840 157 l 988 676 l 1110 676 z "},"Ẃ":{"ha":1317,"x_min":43,"x_max":1274,"o":"m 875 1178 l 610 1010 l 568 1064 l 808 1268 l 875 1178 m 1274 958 l 1079 36 q 1031 0 1069 0 l 892 0 q 844 38 851 0 l 694 758 q 672 867 686 794 l 643 867 l 622 758 l 474 38 q 425 0 464 0 l 285 0 q 253 10 267 0 q 238 36 240 21 l 43 958 l 172 958 l 322 211 q 342 93 325 199 l 374 93 q 396 211 385 158 l 544 918 q 592 958 551 958 l 725 958 q 772 918 763 958 l 921 211 q 940 93 935 143 l 975 93 q 993 210 988 176 l 1144 958 l 1274 958 z "},"ẃ":{"ha":1144,"x_min":35,"x_max":1110,"o":"m 789 929 l 522 761 l 482 815 l 721 1019 l 789 929 m 1110 676 l 913 33 q 867 0 904 0 l 760 0 q 730 10 743 0 q 714 38 717 21 l 603 497 q 592 552 599 517 q 581 604 585 588 l 564 604 l 540 497 l 431 38 q 383 0 421 0 l 278 0 q 232 33 240 0 l 35 676 l 157 676 l 297 178 q 319 76 310 135 l 338 76 l 363 178 l 475 639 q 519 676 482 676 l 626 676 q 671 638 661 676 l 782 178 q 793 128 785 163 q 806 76 801 94 l 824 76 q 833 120 825 83 q 847 178 840 157 l 988 676 l 1110 676 z "},"Ẅ":{"ha":1317,"x_min":43,"x_max":1274,"o":"m 515 1207 l 556 1207 q 588 1174 588 1207 l 588 1097 q 556 1064 588 1064 l 515 1064 q 483 1097 483 1064 l 483 1174 q 515 1207 483 1207 m 763 1207 l 801 1207 q 835 1174 835 1207 l 835 1097 q 801 1064 835 1064 l 763 1064 q 729 1097 729 1064 l 729 1174 q 763 1207 729 1207 m 1274 958 l 1079 36 q 1031 0 1069 0 l 892 0 q 844 38 851 0 l 694 758 q 672 867 686 794 l 643 867 l 622 758 l 474 38 q 425 0 464 0 l 285 0 q 253 10 267 0 q 238 36 240 21 l 43 958 l 172 958 l 322 211 q 342 93 325 199 l 374 93 q 396 211 385 158 l 544 918 q 592 958 551 958 l 725 958 q 772 918 763 958 l 921 211 q 940 93 935 143 l 975 93 q 993 210 988 176 l 1144 958 l 1274 958 z "},"ẅ":{"ha":1144,"x_min":35,"x_max":1110,"o":"m 429 958 l 469 958 q 501 925 501 958 l 501 849 q 469 815 501 815 l 429 815 q 397 849 397 815 l 397 925 q 429 958 397 958 m 676 958 l 715 958 q 749 925 749 958 l 749 849 q 715 815 749 815 l 676 815 q 643 849 643 815 l 643 925 q 676 958 643 958 m 1110 676 l 913 33 q 867 0 904 0 l 760 0 q 730 10 743 0 q 714 38 717 21 l 603 497 q 592 552 599 517 q 581 604 585 588 l 564 604 l 540 497 l 431 38 q 383 0 421 0 l 278 0 q 232 33 240 0 l 35 676 l 157 676 l 297 178 q 319 76 310 135 l 338 76 l 363 178 l 475 639 q 519 676 482 676 l 626 676 q 671 638 661 676 l 782 178 q 793 128 785 163 q 806 76 801 94 l 824 76 q 833 120 825 83 q 847 178 840 157 l 988 676 l 1110 676 z "},"Ỳ":{"ha":790,"x_min":15,"x_max":774,"o":"m 422 1011 l 157 1178 l 224 1269 l 464 1065 l 422 1011 m 456 336 l 456 0 l 333 0 l 333 338 l 15 958 l 146 958 l 347 554 q 390 446 364 521 l 400 446 q 443 553 422 507 l 644 958 l 774 958 l 456 336 z "},"ỳ":{"ha":735,"x_min":25,"x_max":708,"o":"m 399 761 l 133 929 l 200 1019 l 440 815 l 399 761 m 708 676 l 438 -37 q 142 -286 349 -276 l 131 -208 q 255 -140 210 -183 q 328 -29 300 -96 l 339 0 l 313 0 q 271 31 279 0 l 25 676 l 151 676 l 331 172 q 356 90 350 115 l 375 90 q 404 172 386 118 l 581 676 l 708 676 z "},"–":{"ha":822,"x_min":100,"x_max":722,"o":"m 722 306 l 100 306 l 100 396 l 722 396 l 722 306 z "},"—":{"ha":1244,"x_min":100,"x_max":1144,"o":"m 1144 306 l 100 306 l 100 396 l 1144 396 l 1144 306 z "},"‘":{"ha":301,"x_min":90,"x_max":213,"o":"m 168 689 l 133 689 q 100 698 110 689 q 90 731 90 707 l 90 814 q 139 1014 92 921 l 194 999 q 181 843 181 924 q 213 807 215 843 l 213 731 q 168 689 211 689 z "},"’":{"ha":297,"x_min":88,"x_max":210,"o":"m 132 1004 l 167 1004 q 200 995 190 1004 q 210 963 210 986 l 210 879 q 161 681 208 771 l 106 694 q 119 850 119 769 q 88 886 85 850 l 88 963 q 132 1004 89 1004 z "},"‚":{"ha":317,"x_min":97,"x_max":221,"o":"m 143 154 l 178 154 q 211 145 201 154 q 221 113 221 136 l 221 31 q 172 -169 219 -76 l 115 -154 q 129 1 129 -79 q 97 36 94 1 l 97 113 q 143 154 99 154 z "},"“":{"ha":513,"x_min":90,"x_max":425,"o":"m 379 689 l 346 689 q 313 698 322 689 q 303 731 303 707 l 303 814 q 350 1014 304 924 l 407 999 q 393 843 393 924 q 425 807 428 843 l 425 731 q 379 689 424 689 m 168 689 l 133 689 q 100 698 110 689 q 90 731 90 707 l 90 814 q 139 1014 92 921 l 194 999 q 181 843 181 924 q 213 807 215 843 l 213 731 q 168 689 211 689 z "},"”":{"ha":510,"x_min":88,"x_max":421,"o":"m 132 1004 l 167 1004 q 200 995 190 1004 q 210 963 210 986 l 210 879 q 161 681 208 771 l 106 694 q 119 850 119 769 q 88 886 85 850 l 88 963 q 132 1004 89 1004 m 344 1004 l 379 1004 q 412 995 403 1004 q 421 963 421 986 l 421 879 q 374 681 418 768 l 318 694 q 332 850 332 782 q 299 886 299 850 l 299 963 q 344 1004 300 1004 z "},"„":{"ha":529,"x_min":97,"x_max":431,"o":"m 142 154 l 176 154 q 210 145 200 154 q 219 113 219 136 l 219 31 q 171 -169 218 -76 l 115 -154 q 129 1 129 -79 q 97 36 94 1 l 97 113 q 142 154 99 154 m 354 154 l 389 154 q 422 145 413 154 q 431 113 431 136 l 431 31 q 383 -169 429 -79 l 328 -154 q 342 1 342 -79 q 308 36 308 1 l 308 113 q 320 144 310 135 q 354 154 331 154 z "},"†":{"ha":629,"x_min":60,"x_max":571,"o":"m 364 -153 l 267 -153 l 267 669 l 261 960 l 368 960 l 364 669 l 364 -153 m 571 676 l 571 572 l 389 586 l 389 676 l 571 676 m 60 572 l 60 676 l 240 676 l 240 586 l 60 572 z "},"‡":{"ha":682,"x_min":85,"x_max":596,"o":"m 389 674 l 389 132 l 394 -153 l 286 -153 l 292 132 l 292 674 l 286 960 l 394 960 l 389 674 m 267 586 l 85 572 l 85 676 l 267 676 l 267 586 m 596 572 l 415 586 l 415 676 l 596 676 l 596 572 m 267 221 l 267 131 l 85 131 l 85 235 l 267 221 m 596 131 l 415 131 l 415 221 l 596 235 l 596 131 z "},"•":{"ha":504,"x_min":126,"x_max":378,"o":"m 246 497 l 263 497 q 353 472 328 497 q 378 382 378 447 l 378 365 q 353 272 378 297 q 263 246 328 246 l 246 246 q 152 272 178 246 q 126 365 126 297 l 126 382 q 152 472 126 447 q 246 497 178 497 z "},"…":{"ha":1174,"x_min":92,"x_max":1075,"o":"m 135 164 l 175 164 q 208 154 199 164 q 218 119 218 144 l 218 44 q 208 10 218 19 q 175 0 199 0 l 135 0 q 101 10 111 0 q 92 44 92 19 l 92 119 q 101 154 92 144 q 135 164 111 164 m 564 164 l 603 164 q 636 154 626 164 q 646 119 646 144 l 646 44 q 636 10 646 19 q 603 0 626 0 l 564 0 q 529 10 539 0 q 519 44 519 19 l 519 119 q 529 154 519 144 q 564 164 539 164 m 992 164 l 1031 164 q 1065 154 1054 164 q 1075 119 1075 144 l 1075 44 q 1065 10 1075 19 q 1031 0 1054 0 l 992 0 q 957 10 967 0 q 947 44 947 19 l 947 119 q 957 154 947 144 q 992 164 967 164 z "},"‰":{"ha":1760,"x_min":65,"x_max":1692,"o":"m 288 976 q 461 911 411 976 q 511 692 511 846 q 461 472 511 538 q 288 407 411 407 q 115 472 165 407 q 65 692 65 538 q 115 911 65 846 q 288 976 165 976 m 350 0 l 267 0 l 888 958 l 971 958 l 350 0 m 391 856 q 377 878 391 856 q 288 901 363 901 q 184 856 213 901 q 156 692 156 810 q 184 528 156 574 q 288 482 213 482 q 391 528 363 482 q 419 692 419 574 q 391 856 419 810 m 781 490 q 806 523 781 490 q 953 556 831 556 q 1125 490 1075 556 q 1175 272 1175 425 q 1125 53 1175 118 q 953 -12 1075 -12 q 781 53 831 -12 q 731 272 731 118 q 781 490 731 425 m 1468 556 q 1642 490 1592 556 q 1692 272 1692 425 q 1642 53 1692 118 q 1468 -12 1592 -12 q 1296 53 1346 -12 q 1246 272 1246 118 q 1296 490 1246 425 q 1468 556 1346 556 m 1056 435 q 1041 458 1056 435 q 951 481 1026 481 q 848 435 876 481 q 821 272 819 390 q 848 108 819 154 q 951 61 876 61 q 1056 108 1026 61 q 1085 272 1085 154 q 1056 435 1085 389 m 1572 435 q 1557 458 1572 435 q 1468 481 1543 481 q 1365 435 1393 481 q 1338 272 1338 390 q 1365 108 1338 154 q 1468 61 1393 61 q 1572 107 1543 61 q 1600 272 1600 153 q 1572 435 1600 390 z "},"‹":{"ha":396,"x_min":50,"x_max":336,"o":"m 335 596 l 160 349 l 336 96 l 274 54 l 50 335 l 50 363 l 272 638 l 335 596 z "},"›":{"ha":399,"x_min":60,"x_max":346,"o":"m 346 363 l 346 335 l 121 54 l 60 96 l 236 349 l 61 596 l 122 638 l 346 363 z "},"⁄":{"ha":222,"x_min":-242,"x_max":464,"o":"m -157 0 l -242 0 l 379 958 l 464 958 l -157 0 z "},"€":{"ha":888,"x_min":74,"x_max":815,"o":"m 803 110 l 815 15 q 569 -17 708 -17 q 299 76 388 -17 q 192 363 210 169 l 74 363 l 74 436 l 188 436 l 188 479 q 189 544 188 524 l 74 544 l 74 618 l 194 618 q 303 887 215 799 q 569 975 392 975 q 800 947 700 975 l 786 853 q 563 865 681 871 q 397 801 454 861 q 322 618 340 742 l 676 618 l 667 544 l 315 544 q 315 511 315 533 q 314 478 314 489 l 315 436 l 621 436 l 611 363 l 319 363 q 392 161 335 226 q 563 93 449 96 q 803 110 696 89 z "},"™":{"ha":1339,"x_min":93,"x_max":1236,"o":"m 1236 439 l 1157 439 l 1135 901 l 1119 901 l 992 529 q 956 501 983 501 l 890 501 q 856 529 865 501 l 728 901 l 711 901 l 690 439 l 611 439 l 633 933 q 667 967 636 967 l 754 967 q 789 939 781 967 l 894 633 q 906 592 899 619 q 915 560 914 565 l 931 560 q 942 597 935 572 q 953 635 949 622 l 1057 939 q 1090 967 1065 967 l 1182 967 q 1215 933 1213 967 l 1236 439 m 543 967 l 543 896 l 361 896 l 361 439 l 275 439 l 275 896 l 93 896 l 93 967 l 543 967 z "},"∂":{"ha":794,"x_min":75,"x_max":710,"o":"m 182 886 l 182 976 q 433 960 338 978 q 597 887 528 942 q 692 731 667 832 q 710 468 718 631 q 621 106 697 229 q 371 -17 544 -17 q 225 11 286 -17 q 132 88 164 39 q 86 192 100 136 q 75 314 72 249 q 156 540 82 454 q 365 624 231 625 q 590 515 510 621 q 515 812 599 738 q 182 886 432 886 m 372 89 q 472 115 432 89 q 535 192 513 140 q 569 301 558 244 q 588 443 581 358 q 389 524 499 524 q 246 468 294 524 q 193 314 197 413 q 233 151 189 213 q 372 89 276 89 z "},"∅":{"ha":951,"x_min":69,"x_max":882,"o":"m 189 760 q 249 820 189 760 q 476 879 308 879 q 763 760 644 879 q 882 474 882 642 q 763 186 882 306 q 476 67 644 67 q 189 186 308 67 q 69 474 69 306 q 189 760 69 642 m 433 335 l 508 335 q 528 424 508 383 q 574 489 549 465 q 619 549 599 513 q 639 628 639 586 q 476 757 639 757 q 307 742 406 757 l 311 679 q 476 692 394 692 q 568 628 568 692 q 547 566 568 599 q 501 507 526 533 q 454 435 475 481 q 433 335 433 389 m 499 238 l 444 238 q 435 226 435 238 l 435 175 q 444 165 435 165 l 499 165 q 510 175 510 165 l 510 226 q 499 238 510 238 z "},"∏":{"ha":1003,"x_min":54,"x_max":949,"o":"m 949 858 l 804 858 l 804 -143 l 688 -143 l 688 858 l 315 858 l 315 -143 l 199 -143 l 199 858 l 54 858 l 54 958 l 949 958 l 949 858 z "},"∑":{"ha":819,"x_min":68,"x_max":747,"o":"m 733 858 l 219 858 l 450 483 l 200 -53 l 747 -53 l 747 -151 l 68 -151 l 68 -53 l 318 483 l 85 858 l 85 958 l 733 958 l 733 858 z "},"−":{"ha":813,"x_min":103,"x_max":711,"o":"m 711 365 l 103 365 l 103 454 l 711 454 l 711 365 z "},"√":{"ha":786,"x_min":47,"x_max":753,"o":"m 753 1217 l 396 11 q 378 0 392 0 l 240 0 q 222 11 225 0 l 47 676 l 147 676 l 300 81 l 318 81 l 651 1217 l 753 1217 z "},"∞":{"ha":1083,"x_min":85,"x_max":1000,"o":"m 810 619 q 946 572 892 619 q 1000 432 1000 524 q 941 283 1000 336 q 792 229 882 229 q 544 358 660 229 q 289 229 418 229 q 143 283 201 229 q 85 432 85 336 q 140 572 85 525 q 283 619 194 619 q 543 485 421 619 q 810 619 671 619 m 308 317 q 404 343 364 317 q 490 422 444 369 q 404 505 444 478 q 300 532 364 532 q 186 429 186 532 q 308 317 186 317 m 776 317 q 865 345 833 317 q 897 429 897 374 q 788 532 897 532 q 707 513 744 532 q 649 474 669 494 q 597 418 628 454 q 776 317 676 317 z "},"∫":{"ha":515,"x_min":47,"x_max":469,"o":"m 235 -101 l 175 807 q 210 944 169 897 q 332 992 250 992 q 469 986 421 992 l 461 901 l 371 901 q 297 876 318 901 q 279 788 276 851 l 342 -124 q 309 -263 347 -218 q 179 -308 271 -308 q 47 -303 86 -308 l 54 -218 l 143 -218 q 217 -192 196 -218 q 235 -101 239 -165 z "},"≈":{"ha":815,"x_min":107,"x_max":710,"o":"m 186 454 l 107 454 q 132 583 94 542 q 240 621 169 624 q 403 581 289 619 q 569 540 518 542 q 617 553 604 539 q 629 614 629 568 l 710 614 q 688 490 721 531 q 574 450 654 449 q 406 491 519 451 q 246 532 292 531 q 199 517 213 533 q 186 454 186 500 m 186 189 l 107 189 q 132 317 94 276 q 240 356 169 358 q 403 315 289 354 q 569 274 518 276 q 616 288 603 272 q 629 347 629 303 l 710 347 q 688 224 721 265 q 574 185 654 183 q 406 226 519 186 q 246 267 292 265 q 199 251 213 267 q 186 189 186 235 z "},"≠":{"ha":856,"x_min":131,"x_max":740,"o":"m 503 510 l 378 304 l 740 304 l 740 215 l 324 215 l 221 44 l 183 64 l 276 215 l 131 215 l 131 304 l 329 304 l 454 510 l 131 510 l 131 597 l 507 597 l 599 749 l 636 729 l 556 597 l 740 597 l 740 510 l 503 510 z "},"≤":{"ha":788,"x_min":96,"x_max":690,"o":"m 679 649 l 214 501 l 679 367 l 679 272 l 110 454 l 110 549 l 679 743 l 679 649 m 690 110 l 96 110 l 96 197 l 690 197 l 690 110 z "},"≥":{"ha":788,"x_min":97,"x_max":692,"o":"m 678 549 l 678 454 l 110 272 l 110 367 l 574 501 l 110 649 l 110 743 l 678 549 m 692 110 l 97 110 l 97 197 l 692 197 l 692 110 z "},"◊":{"ha":800,"x_min":50,"x_max":750,"o":"m 413 961 l 750 492 q 750 469 757 481 l 413 -3 q 390 -3 400 -18 l 50 469 q 50 492 43 481 l 390 961 q 413 961 400 976 m 147 481 l 401 115 l 654 481 l 401 843 l 147 481 z "},"ﬁ":{"ha":843,"x_min":39,"x_max":732,"o":"m 728 676 l 728 0 l 611 0 l 611 583 l 279 583 l 279 0 l 161 0 l 161 583 l 39 583 l 39 669 l 161 675 l 161 783 q 207 942 161 889 q 358 996 253 996 q 517 986 450 996 l 517 899 l 400 899 q 306 870 333 899 q 279 771 279 842 l 279 676 l 728 676 m 640 964 l 696 964 q 732 928 732 964 l 732 849 q 696 813 732 813 l 640 813 q 606 849 606 813 l 606 928 q 640 964 606 964 z "},"ﬂ":{"ha":929,"x_min":39,"x_max":915,"o":"m 903 81 l 915 6 q 792 -12 878 -12 q 671 29 715 -12 q 626 146 626 71 l 626 900 l 399 900 q 306 872 332 901 q 279 771 279 843 l 279 676 l 482 676 l 482 583 l 279 583 l 279 0 l 161 0 l 161 583 l 39 583 l 39 669 l 161 675 l 161 783 q 207 944 161 890 q 357 996 253 997 q 744 979 643 996 l 744 172 q 836 81 744 81 l 903 81 z "}}}
